M48
; DRILL file {KiCad (7.0.0)} date Sat May  6 08:33:52 2023
; FORMAT={-:-/ absolute / inch / decimal}
; #@! TF.CreationDate,2023-05-06T08:33:52+03:00
; #@! TF.GenerationSoftware,Kicad,Pcbnew,(7.0.0)
; #@! TF.FileFunction,Plated,1,2,PTH
FMAT,2
INCH
; #@! TA.AperFunction,Plated,PTH,ViaDrill
T1C0.0157
; #@! TA.AperFunction,Plated,PTH,ComponentDrill
T2C0.0315
%
G90
G05
T1
X3.0374Y-4.4567
X3.0551Y-4.7008
X3.3566Y-4.1439
X3.5197Y-4.3031
X3.5827Y-4.063
X3.5827Y-4.2874
X3.5906Y-4.2165
X3.626Y-4.0787
X3.6654Y-4.0551
X3.689Y-4.2835
X3.7441Y-3.5748
X3.7795Y-2.2126
X3.7913Y-3.5748
X3.7913Y-3.6442
X3.815Y-4.2697
X3.8307Y-2.4646
X3.8307Y-2.7992
X3.8307Y-3.1299
X3.9173Y-2.1693
X4.0118Y-2.2795
X4.0118Y-2.3898
X4.0118Y-2.5
X4.0118Y-2.6102
X4.0118Y-2.7205
X4.0118Y-2.8307
X4.0118Y-2.9409
X4.0118Y-3.0512
X4.0118Y-3.1614
X4.0118Y-3.2717
X4.0118Y-3.3819
X4.2323Y-3.6477
X4.2597Y-4.0949
X4.3031Y-4.248
X4.3606Y-4.3154
X4.3779Y-4.1028
X4.378Y-4.378
X4.4094Y-4.4803
X4.4251Y-4.1343
X4.4409Y-4.2209
X4.4606Y-4.5079
X4.4645Y-4.3154
X4.4843Y-4.1102
X4.5353Y-4.1973
X4.559Y-4.2918
X4.6181Y-4.1417
X4.6357Y-4.2091
X4.6457Y-4.563
X4.6575Y-4.0709
X4.6693Y-4.3268
X4.6693Y-4.5079
X4.6811Y-4.4606
X4.7047Y-4.1024
X4.7244Y-4.3858
X4.8031Y-4.2677
X4.8346Y-4.4528
X4.8425Y-4.2283
X4.9055Y-4.4055
X4.9213Y-4.5906
T2
G00X2.5374Y-4.36
M15
G01X2.5715Y-4.3404
M16
G05
G00X2.8695Y-4.9352
M15
G01X2.9036Y-4.9155
M16
G05
G00X3.6049Y-2.5118
M15
G01X3.6049Y-2.5512
M16
G05
G00X4.2691Y-2.5118
M15
G01X4.2691Y-2.5512
M16
G05
G00X5.0085Y-4.9392
M15
G01X4.9744Y-4.9195
M16
G05
G00X5.3406Y-4.364
M15
G01X5.3065Y-4.3443
M16
G05
T0
M30
