%TF.GenerationSoftware,KiCad,Pcbnew,(7.0.0)*%
%TF.CreationDate,2023-05-06T08:33:59+03:00*%
%TF.ProjectId,LEDSpinner,4c454453-7069-46e6-9e65-722e6b696361,1.0*%
%TF.SameCoordinates,Original*%
%TF.FileFunction,Copper,L1,Top*%
%TF.FilePolarity,Positive*%
%FSLAX46Y46*%
G04 Gerber Fmt 4.6, Leading zero omitted, Abs format (unit mm)*
G04 Created by KiCad (PCBNEW (7.0.0)) date 2023-05-06 08:33:59*
%MOMM*%
%LPD*%
G01*
G04 APERTURE LIST*
G04 Aperture macros list*
%AMRoundRect*
0 Rectangle with rounded corners*
0 $1 Rounding radius*
0 $2 $3 $4 $5 $6 $7 $8 $9 X,Y pos of 4 corners*
0 Add a 4 corners polygon primitive as box body*
4,1,4,$2,$3,$4,$5,$6,$7,$8,$9,$2,$3,0*
0 Add four circle primitives for the rounded corners*
1,1,$1+$1,$2,$3*
1,1,$1+$1,$4,$5*
1,1,$1+$1,$6,$7*
1,1,$1+$1,$8,$9*
0 Add four rect primitives between the rounded corners*
20,1,$1+$1,$2,$3,$4,$5,0*
20,1,$1+$1,$4,$5,$6,$7,0*
20,1,$1+$1,$6,$7,$8,$9,0*
20,1,$1+$1,$8,$9,$2,$3,0*%
%AMHorizOval*
0 Thick line with rounded ends*
0 $1 width*
0 $2 $3 position (X,Y) of the first rounded end (center of the circle)*
0 $4 $5 position (X,Y) of the second rounded end (center of the circle)*
0 Add line between two ends*
20,1,$1,$2,$3,$4,$5,0*
0 Add two circle primitives to create the rounded ends*
1,1,$1,$2,$3*
1,1,$1,$4,$5*%
%AMRotRect*
0 Rectangle, with rotation*
0 The origin of the aperture is its center*
0 $1 length*
0 $2 width*
0 $3 Rotation angle, in degrees counterclockwise*
0 Add horizontal line*
21,1,$1,$2,0,0,$3*%
G04 Aperture macros list end*
%TA.AperFunction,SMDPad,CuDef*%
%ADD10R,0.700000X0.700000*%
%TD*%
%TA.AperFunction,SMDPad,CuDef*%
%ADD11RoundRect,0.237500X0.250000X0.237500X-0.250000X0.237500X-0.250000X-0.237500X0.250000X-0.237500X0*%
%TD*%
%TA.AperFunction,SMDPad,CuDef*%
%ADD12RotRect,1.700000X1.000000X330.000000*%
%TD*%
%TA.AperFunction,SMDPad,CuDef*%
%ADD13RotRect,3.000000X3.000000X300.000000*%
%TD*%
%TA.AperFunction,SMDPad,CuDef*%
%ADD14RoundRect,0.237500X0.355681X-0.141058X0.055681X0.378558X-0.355681X0.141058X-0.055681X-0.378558X0*%
%TD*%
%TA.AperFunction,SMDPad,CuDef*%
%ADD15RoundRect,0.237500X-0.330681X0.097756X-0.080681X-0.335256X0.330681X-0.097756X0.080681X0.335256X0*%
%TD*%
%TA.AperFunction,SMDPad,CuDef*%
%ADD16RoundRect,0.237500X-0.237500X0.300000X-0.237500X-0.300000X0.237500X-0.300000X0.237500X0.300000X0*%
%TD*%
%TA.AperFunction,SMDPad,CuDef*%
%ADD17RoundRect,0.237500X-0.080681X0.335256X-0.330681X-0.097756X0.080681X-0.335256X0.330681X0.097756X0*%
%TD*%
%TA.AperFunction,SMDPad,CuDef*%
%ADD18RoundRect,0.237500X0.180012X0.294112X-0.302951X0.164703X-0.180012X-0.294112X0.302951X-0.164703X0*%
%TD*%
%TA.AperFunction,SMDPad,CuDef*%
%ADD19RoundRect,0.237500X0.307053X-0.228308X0.151762X0.351247X-0.307053X0.228308X-0.151762X-0.351247X0*%
%TD*%
%TA.AperFunction,SMDPad,CuDef*%
%ADD20C,0.800000*%
%TD*%
%TA.AperFunction,SMDPad,CuDef*%
%ADD21RoundRect,0.237500X0.237500X-0.300000X0.237500X0.300000X-0.237500X0.300000X-0.237500X-0.300000X0*%
%TD*%
%TA.AperFunction,SMDPad,CuDef*%
%ADD22RotRect,1.100000X1.900000X120.000000*%
%TD*%
%TA.AperFunction,SMDPad,CuDef*%
%ADD23RotRect,0.650000X0.350000X120.000000*%
%TD*%
%TA.AperFunction,SMDPad,CuDef*%
%ADD24RotRect,1.550000X2.400000X120.000000*%
%TD*%
%TA.AperFunction,SMDPad,CuDef*%
%ADD25RoundRect,0.237500X-0.097756X-0.330681X0.335256X-0.080681X0.097756X0.330681X-0.335256X0.080681X0*%
%TD*%
%TA.AperFunction,SMDPad,CuDef*%
%ADD26RoundRect,0.150000X-0.587500X-0.150000X0.587500X-0.150000X0.587500X0.150000X-0.587500X0.150000X0*%
%TD*%
%TA.AperFunction,SMDPad,CuDef*%
%ADD27RotRect,0.650000X0.400000X300.000000*%
%TD*%
%TA.AperFunction,SMDPad,CuDef*%
%ADD28RoundRect,0.062500X-0.157428X0.346046X0.036687X-0.378398X0.157428X-0.346046X-0.036687X0.378398X0*%
%TD*%
%TA.AperFunction,SMDPad,CuDef*%
%ADD29RoundRect,0.062500X-0.378398X-0.036687X-0.346046X-0.157428X0.378398X0.036687X0.346046X0.157428X0*%
%TD*%
%TA.AperFunction,SMDPad,CuDef*%
%ADD30RotRect,3.450000X3.450000X285.000000*%
%TD*%
%TA.AperFunction,SMDPad,CuDef*%
%ADD31RoundRect,0.237500X-0.141058X-0.355681X0.378558X-0.055681X0.141058X0.355681X-0.378558X0.055681X0*%
%TD*%
%TA.AperFunction,SMDPad,CuDef*%
%ADD32RoundRect,0.237500X0.228308X0.307053X-0.351247X0.151762X-0.228308X-0.307053X0.351247X-0.151762X0*%
%TD*%
%TA.AperFunction,SMDPad,CuDef*%
%ADD33RotRect,1.700000X1.000000X210.000000*%
%TD*%
%TA.AperFunction,SMDPad,CuDef*%
%ADD34RoundRect,0.237500X0.055681X-0.378558X0.355681X0.141058X-0.055681X0.378558X-0.355681X-0.141058X0*%
%TD*%
%TA.AperFunction,SMDPad,CuDef*%
%ADD35RoundRect,0.237500X-0.303818X0.216234X-0.154997X-0.339173X0.303818X-0.216234X0.154997X0.339173X0*%
%TD*%
%TA.AperFunction,SMDPad,CuDef*%
%ADD36RoundRect,0.237500X0.080681X-0.335256X0.330681X0.097756X-0.080681X0.335256X-0.330681X-0.097756X0*%
%TD*%
%TA.AperFunction,SMDPad,CuDef*%
%ADD37RoundRect,0.237500X-0.055681X0.378558X-0.355681X-0.141058X0.055681X-0.378558X0.355681X0.141058X0*%
%TD*%
%TA.AperFunction,ComponentPad*%
%ADD38HorizOval,1.600000X-0.692820X0.400000X0.692820X-0.400000X0*%
%TD*%
%TA.AperFunction,ComponentPad*%
%ADD39O,1.600000X3.200000*%
%TD*%
%TA.AperFunction,ComponentPad*%
%ADD40HorizOval,1.600000X0.692820X0.400000X-0.692820X-0.400000X0*%
%TD*%
%TA.AperFunction,ViaPad*%
%ADD41C,0.800000*%
%TD*%
%TA.AperFunction,Conductor*%
%ADD42C,0.250000*%
%TD*%
%TA.AperFunction,Conductor*%
%ADD43C,0.500000*%
%TD*%
G04 APERTURE END LIST*
D10*
%TO.P,D6,1,DO*%
%TO.N,Net-(D6-DO)*%
X100914999Y-71049999D03*
%TO.P,D6,2,GND*%
%TO.N,GND*%
X100914999Y-69949999D03*
%TO.P,D6,3,DI*%
%TO.N,Net-(D5-DO)*%
X99084999Y-69949999D03*
%TO.P,D6,4,VDD*%
%TO.N,VOUT*%
X99084999Y-71049999D03*
%TD*%
D11*
%TO.P,R6,1*%
%TO.N,Net-(U1-PA5)*%
X100912500Y-111200000D03*
%TO.P,R6,2*%
%TO.N,SPI_CLK*%
X99087500Y-111200000D03*
%TD*%
D12*
%TO.P,SW2,1,1*%
%TO.N,Net-(C8-Pad1)*%
X129222019Y-114679551D03*
X134677979Y-117829551D03*
%TO.P,SW2,2,2*%
%TO.N,+3V0*%
X127322019Y-117970447D03*
X132777979Y-121120447D03*
%TD*%
D10*
%TO.P,D9,1,DO*%
%TO.N,Net-(D10-DI)*%
X100914999Y-79449999D03*
%TO.P,D9,2,GND*%
%TO.N,GND*%
X100914999Y-78349999D03*
%TO.P,D9,3,DI*%
%TO.N,Net-(D8-DO)*%
X99084999Y-78349999D03*
%TO.P,D9,4,VDD*%
%TO.N,VOUT*%
X99084999Y-79449999D03*
%TD*%
D13*
%TO.P,GND,1*%
%TO.N,GND*%
X77149999Y-113199999D03*
%TD*%
D14*
%TO.P,C7,1*%
%TO.N,Net-(C7-Pad1)*%
X64181250Y-121546947D03*
%TO.P,C7,2*%
%TO.N,+3V0*%
X63318750Y-120053053D03*
%TD*%
D10*
%TO.P,D3,1,DO*%
%TO.N,Net-(D3-DO)*%
X100914999Y-62649999D03*
%TO.P,D3,2,GND*%
%TO.N,GND*%
X100914999Y-61549999D03*
%TO.P,D3,3,DI*%
%TO.N,Net-(D2-DO)*%
X99084999Y-61549999D03*
%TO.P,D3,4,VDD*%
%TO.N,VOUT*%
X99084999Y-62649999D03*
%TD*%
D15*
%TO.P,R2,1*%
%TO.N,MOD_BTN*%
X73043750Y-114409752D03*
%TO.P,R2,2*%
%TO.N,Net-(C7-Pad1)*%
X73956250Y-115990248D03*
%TD*%
D10*
%TO.P,D7,1,DO*%
%TO.N,Net-(D7-DO)*%
X100914999Y-73849999D03*
%TO.P,D7,2,GND*%
%TO.N,GND*%
X100914999Y-72749999D03*
%TO.P,D7,3,DI*%
%TO.N,Net-(D6-DO)*%
X99084999Y-72749999D03*
%TO.P,D7,4,VDD*%
%TO.N,VOUT*%
X99084999Y-73849999D03*
%TD*%
%TO.P,D5,1,DO*%
%TO.N,Net-(D5-DO)*%
X100914999Y-68249999D03*
%TO.P,D5,2,GND*%
%TO.N,GND*%
X100914999Y-67149999D03*
%TO.P,D5,3,DI*%
%TO.N,Net-(D4-DO)*%
X99084999Y-67149999D03*
%TO.P,D5,4,VDD*%
%TO.N,VOUT*%
X99084999Y-68249999D03*
%TD*%
%TO.P,D1,1,DO*%
%TO.N,Net-(D1-DO)*%
X100914999Y-57049999D03*
%TO.P,D1,2,GND*%
%TO.N,GND*%
X100914999Y-55949999D03*
%TO.P,D1,3,DI*%
%TO.N,LED_DIN*%
X99084999Y-55949999D03*
%TO.P,D1,4,VDD*%
%TO.N,VOUT*%
X99084999Y-57049999D03*
%TD*%
D16*
%TO.P,C12,1*%
%TO.N,GND*%
X97300000Y-55637500D03*
%TO.P,C12,2*%
%TO.N,VOUT*%
X97300000Y-57362500D03*
%TD*%
D17*
%TO.P,R4,1*%
%TO.N,+3V0*%
X125556250Y-113709752D03*
%TO.P,R4,2*%
%TO.N,Net-(J1-Pin_1)*%
X124643750Y-115290248D03*
%TD*%
D18*
%TO.P,R7,1*%
%TO.N,Net-(U1-PA6)*%
X108781407Y-109863828D03*
%TO.P,R7,2*%
%TO.N,SPI_MISO*%
X107018593Y-110336172D03*
%TD*%
D19*
%TO.P,C4,1*%
%TO.N,GND*%
X117631688Y-114785469D03*
%TO.P,C4,2*%
%TO.N,+3V0*%
X117185226Y-113119247D03*
%TD*%
D20*
%TO.P,J1,1,Pin_1*%
%TO.N,Net-(J1-Pin_1)*%
X121412532Y-113724705D03*
%TO.P,J1,2,Pin_2*%
%TO.N,SWCLK*%
X120330000Y-113099705D03*
%TO.P,J1,3,Pin_3*%
%TO.N,GND*%
X122047532Y-112624852D03*
%TO.P,J1,4,Pin_4*%
%TO.N,SWDIO*%
X120965000Y-111999852D03*
%TO.P,J1,5,Pin_5*%
%TO.N,NRST*%
X122682532Y-111525000D03*
%TO.P,J1,6,Pin_6*%
%TO.N,TRSWO*%
X121600000Y-110900000D03*
%TD*%
D19*
%TO.P,C3,1*%
%TO.N,GND*%
X110905221Y-103285469D03*
%TO.P,C3,2*%
%TO.N,+3V0*%
X110458759Y-101619247D03*
%TD*%
D18*
%TO.P,R1,1*%
%TO.N,GND*%
X121789864Y-107716186D03*
%TO.P,R1,2*%
%TO.N,Net-(U1-PH3)*%
X120027050Y-108188530D03*
%TD*%
D21*
%TO.P,C17,1*%
%TO.N,GND*%
X97300000Y-92562500D03*
%TO.P,C17,2*%
%TO.N,VOUT*%
X97300000Y-90837500D03*
%TD*%
D22*
%TO.P,Y1,1,1*%
%TO.N,OSC32_1*%
X84562499Y-110632531D03*
%TO.P,Y1,2,2*%
%TO.N,OSC32_2*%
X83312499Y-108467467D03*
%TD*%
D10*
%TO.P,D11,1,DO*%
%TO.N,Net-(D11-DO)*%
X100914999Y-85049999D03*
%TO.P,D11,2,GND*%
%TO.N,GND*%
X100914999Y-83949999D03*
%TO.P,D11,3,DI*%
%TO.N,Net-(D10-DO)*%
X99084999Y-83949999D03*
%TO.P,D11,4,VDD*%
%TO.N,VOUT*%
X99084999Y-85049999D03*
%TD*%
D19*
%TO.P,C5,1*%
%TO.N,GND*%
X115881688Y-115285469D03*
%TO.P,C5,2*%
%TO.N,+3V0*%
X115435226Y-113619247D03*
%TD*%
D10*
%TO.P,D12,1,DO*%
%TO.N,unconnected-(D12-DO-Pad1)*%
X100914999Y-87849999D03*
%TO.P,D12,2,GND*%
%TO.N,GND*%
X100914999Y-86749999D03*
%TO.P,D12,3,DI*%
%TO.N,Net-(D11-DO)*%
X99084999Y-86749999D03*
%TO.P,D12,4,VDD*%
%TO.N,VOUT*%
X99084999Y-87849999D03*
%TD*%
D23*
%TO.P,U2,1,CLK*%
%TO.N,SPI_CLK*%
X87030624Y-109529838D03*
%TO.P,U2,2,MISO*%
%TO.N,SPI_MISO*%
X87593541Y-109204838D03*
%TO.P,U2,3,MOSI*%
%TO.N,SPI_MOSI*%
X88156457Y-108879838D03*
%TO.P,U2,4,GND*%
%TO.N,GND*%
X88719374Y-108554838D03*
%TO.P,U2,5,~{CS}*%
%TO.N,RTC_nCS*%
X87169374Y-105870160D03*
%TO.P,U2,6,VCC*%
%TO.N,+3V0*%
X86606457Y-106195160D03*
%TO.P,U2,7,X2*%
%TO.N,OSC32_2*%
X86043541Y-106520160D03*
%TO.P,U2,8,X1*%
%TO.N,OSC32_1*%
X85480624Y-106845160D03*
D24*
%TO.P,U2,9,EP*%
%TO.N,GND*%
X87099999Y-107699999D03*
%TD*%
D25*
%TO.P,R9,1*%
%TO.N,Net-(U3-OC)*%
X89366210Y-102836089D03*
%TO.P,R9,2*%
%TO.N,+3V0*%
X90946706Y-101923589D03*
%TD*%
D14*
%TO.P,C13,1*%
%TO.N,GND*%
X89868750Y-107046947D03*
%TO.P,C13,2*%
%TO.N,+3V0*%
X89006250Y-105553053D03*
%TD*%
D10*
%TO.P,D8,1,DO*%
%TO.N,Net-(D8-DO)*%
X100914999Y-76649999D03*
%TO.P,D8,2,GND*%
%TO.N,GND*%
X100914999Y-75549999D03*
%TO.P,D8,3,DI*%
%TO.N,Net-(D7-DO)*%
X99084999Y-75549999D03*
%TO.P,D8,4,VDD*%
%TO.N,VOUT*%
X99084999Y-76649999D03*
%TD*%
D18*
%TO.P,R5,1*%
%TO.N,Net-(U1-PA4)*%
X107881407Y-106463828D03*
%TO.P,R5,2*%
%TO.N,RTC_nCS*%
X106118593Y-106936172D03*
%TD*%
D16*
%TO.P,C11,1*%
%TO.N,GND*%
X97300000Y-64037500D03*
%TO.P,C11,2*%
%TO.N,VOUT*%
X97300000Y-65762500D03*
%TD*%
D10*
%TO.P,D4,1,DO*%
%TO.N,Net-(D4-DO)*%
X100914999Y-65449999D03*
%TO.P,D4,2,GND*%
%TO.N,GND*%
X100914999Y-64349999D03*
%TO.P,D4,3,DI*%
%TO.N,Net-(D3-DO)*%
X99084999Y-64349999D03*
%TO.P,D4,4,VDD*%
%TO.N,VOUT*%
X99084999Y-65449999D03*
%TD*%
%TO.P,D2,1,DO*%
%TO.N,Net-(D2-DO)*%
X100914999Y-59849999D03*
%TO.P,D2,2,GND*%
%TO.N,GND*%
X100914999Y-58749999D03*
%TO.P,D2,3,DI*%
%TO.N,Net-(D1-DO)*%
X99084999Y-58749999D03*
%TO.P,D2,4,VDD*%
%TO.N,VOUT*%
X99084999Y-59849999D03*
%TD*%
D19*
%TO.P,C2,1*%
%TO.N,GND*%
X109155221Y-103785469D03*
%TO.P,C2,2*%
%TO.N,+3V0*%
X108708759Y-102119247D03*
%TD*%
D16*
%TO.P,C9,1*%
%TO.N,GND*%
X97300000Y-80837500D03*
%TO.P,C9,2*%
%TO.N,VOUT*%
X97300000Y-82562500D03*
%TD*%
D26*
%TO.P,U4,1,VCC*%
%TO.N,VOUT*%
X99062500Y-90750000D03*
%TO.P,U4,2,OUT*%
%TO.N,HALL_OUT*%
X99062500Y-92650000D03*
%TO.P,U4,3,GND*%
%TO.N,GND*%
X100937500Y-91700000D03*
%TD*%
D27*
%TO.P,U3,1,VOUT*%
%TO.N,VOUT*%
X91744374Y-103832114D03*
%TO.P,U3,2,GND*%
%TO.N,GND*%
X91181457Y-104157114D03*
%TO.P,U3,3,OC*%
%TO.N,Net-(U3-OC)*%
X90618540Y-104482114D03*
%TO.P,U3,4,ON*%
%TO.N,LED_EN*%
X91568540Y-106127562D03*
%TO.P,U3,5,VIN*%
%TO.N,+3V0*%
X92694374Y-105477562D03*
%TD*%
D28*
%TO.P,U1,1,VDD*%
%TO.N,+3V0*%
X115357141Y-105303437D03*
%TO.P,U1,2,PC14*%
%TO.N,unconnected-(U1-PC14-Pad2)*%
X114874178Y-105432847D03*
%TO.P,U1,3,PC15*%
%TO.N,unconnected-(U1-PC15-Pad3)*%
X114391215Y-105562257D03*
%TO.P,U1,4,NRST*%
%TO.N,NRST*%
X113908252Y-105691666D03*
%TO.P,U1,5,VDDA*%
%TO.N,Net-(#FLG02-pwr)*%
X113425289Y-105821076D03*
%TO.P,U1,6,PA0*%
%TO.N,unconnected-(U1-PA0-Pad6)*%
X112942326Y-105950485D03*
%TO.P,U1,7,PA1*%
%TO.N,HALL_OUT*%
X112459363Y-106079895D03*
%TO.P,U1,8,PA2*%
%TO.N,MOD_BTN*%
X111976400Y-106209304D03*
D29*
%TO.P,U1,9,PA3*%
%TO.N,LED_EN*%
X111490264Y-107051316D03*
%TO.P,U1,10,PA4*%
%TO.N,Net-(U1-PA4)*%
X111619674Y-107534279D03*
%TO.P,U1,11,PA5*%
%TO.N,Net-(U1-PA5)*%
X111749084Y-108017242D03*
%TO.P,U1,12,PA6*%
%TO.N,Net-(U1-PA6)*%
X111878493Y-108500205D03*
%TO.P,U1,13,PA7*%
%TO.N,Net-(U1-PA7)*%
X112007903Y-108983168D03*
%TO.P,U1,14,PB0*%
%TO.N,unconnected-(U1-PB0-Pad14)*%
X112137312Y-109466131D03*
%TO.P,U1,15,PB1*%
%TO.N,unconnected-(U1-PB1-Pad15)*%
X112266722Y-109949094D03*
%TO.P,U1,16,VSS*%
%TO.N,GND*%
X112396131Y-110432057D03*
D28*
%TO.P,U1,17,VDD*%
%TO.N,+3V0*%
X113238143Y-110918193D03*
%TO.P,U1,18,PA8*%
%TO.N,unconnected-(U1-PA8-Pad18)*%
X113721106Y-110788783D03*
%TO.P,U1,19,PA9*%
%TO.N,unconnected-(U1-PA9-Pad19)*%
X114204069Y-110659373D03*
%TO.P,U1,20,PA10*%
%TO.N,unconnected-(U1-PA10-Pad20)*%
X114687032Y-110529964D03*
%TO.P,U1,21,PA11*%
%TO.N,unconnected-(U1-PA11-Pad21)*%
X115169995Y-110400554D03*
%TO.P,U1,22,PA12*%
%TO.N,unconnected-(U1-PA12-Pad22)*%
X115652958Y-110271145D03*
%TO.P,U1,23,PA13*%
%TO.N,SWDIO*%
X116135921Y-110141735D03*
%TO.P,U1,24,PA14*%
%TO.N,SWCLK*%
X116618884Y-110012326D03*
D29*
%TO.P,U1,25,PA15*%
%TO.N,SET_BTN*%
X117105020Y-109170314D03*
%TO.P,U1,26,PB3*%
%TO.N,TRSWO*%
X116975610Y-108687351D03*
%TO.P,U1,27,PB4*%
%TO.N,unconnected-(U1-PB4-Pad27)*%
X116846200Y-108204388D03*
%TO.P,U1,28,PB5*%
%TO.N,unconnected-(U1-PB5-Pad28)*%
X116716791Y-107721425D03*
%TO.P,U1,29,PB6*%
%TO.N,LED_DIN*%
X116587381Y-107238462D03*
%TO.P,U1,30,PB7*%
%TO.N,unconnected-(U1-PB7-Pad30)*%
X116457972Y-106755499D03*
%TO.P,U1,31,PH3*%
%TO.N,Net-(U1-PH3)*%
X116328562Y-106272536D03*
%TO.P,U1,32,VSS*%
%TO.N,GND*%
X116199153Y-105789573D03*
D30*
%TO.P,U1,33,VSS*%
X114297641Y-108110814D03*
%TD*%
D18*
%TO.P,R8,1*%
%TO.N,Net-(U1-PA7)*%
X108281407Y-108163828D03*
%TO.P,R8,2*%
%TO.N,SPI_MOSI*%
X106518593Y-108636172D03*
%TD*%
D31*
%TO.P,C14,1*%
%TO.N,GND*%
X92409511Y-108011089D03*
%TO.P,C14,2*%
%TO.N,+3V0*%
X93903405Y-107148589D03*
%TD*%
D32*
%TO.P,C6,1*%
%TO.N,GND*%
X121241568Y-105979127D03*
%TO.P,C6,2*%
%TO.N,+3V0*%
X119575346Y-106425589D03*
%TD*%
D33*
%TO.P,SW1,1,1*%
%TO.N,Net-(C7-Pad1)*%
X72777979Y-117870447D03*
X67322019Y-121020447D03*
%TO.P,SW1,2,2*%
%TO.N,+3V0*%
X70877979Y-114579551D03*
X65422019Y-117729551D03*
%TD*%
D16*
%TO.P,C10,1*%
%TO.N,GND*%
X97300000Y-72437500D03*
%TO.P,C10,2*%
%TO.N,VOUT*%
X97300000Y-74162500D03*
%TD*%
D34*
%TO.P,C1,1*%
%TO.N,GND*%
X123168750Y-114346947D03*
%TO.P,C1,2*%
%TO.N,NRST*%
X124031250Y-112853053D03*
%TD*%
D35*
%TO.P,FB1,1*%
%TO.N,+3V0*%
X112205523Y-101107173D03*
%TO.P,FB1,2*%
%TO.N,Net-(#FLG02-pwr)*%
X112658457Y-102797543D03*
%TD*%
D10*
%TO.P,D10,1,DO*%
%TO.N,Net-(D10-DO)*%
X100914999Y-82249999D03*
%TO.P,D10,2,GND*%
%TO.N,GND*%
X100914999Y-81149999D03*
%TO.P,D10,3,DI*%
%TO.N,Net-(D10-DI)*%
X99084999Y-81149999D03*
%TO.P,D10,4,VDD*%
%TO.N,VOUT*%
X99084999Y-82249999D03*
%TD*%
D36*
%TO.P,R3,1*%
%TO.N,SET_BTN*%
X126143750Y-116190248D03*
%TO.P,R3,2*%
%TO.N,Net-(C8-Pad1)*%
X127056250Y-114609752D03*
%TD*%
D37*
%TO.P,C8,1*%
%TO.N,Net-(C8-Pad1)*%
X136781250Y-120203053D03*
%TO.P,C8,2*%
%TO.N,+3V0*%
X135918750Y-121696947D03*
%TD*%
D38*
%TO.P,BT3,1,+*%
%TO.N,+3V0*%
X135217499Y-110595075D03*
X126782499Y-125204923D03*
%TD*%
D39*
%TO.P,BT1,1,+*%
%TO.N,+3V0*%
X91564999Y-64299999D03*
X108434999Y-64299999D03*
%TD*%
D40*
%TO.P,BT2,1,+*%
%TO.N,+3V0*%
X73317499Y-125104923D03*
X64882499Y-110495075D03*
%TD*%
D41*
%TO.N,GND*%
X101900000Y-71900000D03*
X101900000Y-85900000D03*
X101900000Y-57900000D03*
X118000000Y-115900000D03*
X97300000Y-71100000D03*
X111197642Y-104210815D03*
X85256458Y-105255339D03*
X97300000Y-79500000D03*
X101900000Y-77500000D03*
X115797642Y-109010815D03*
X101900000Y-60700000D03*
X91000000Y-103200000D03*
X97300000Y-62600000D03*
X96000000Y-56200000D03*
X101900000Y-83100000D03*
X108197642Y-104010815D03*
X89400000Y-109300000D03*
X101900000Y-63500000D03*
X111200000Y-111200000D03*
X101900000Y-80300000D03*
X123000000Y-107400000D03*
X112797642Y-107210815D03*
X122000000Y-108400000D03*
X118600000Y-114500000D03*
X101900000Y-66300000D03*
X122800000Y-113100000D03*
X101900000Y-69100000D03*
X91000000Y-108900000D03*
X113397642Y-109610815D03*
X117300000Y-105200000D03*
X115197642Y-106610815D03*
X96300000Y-92562499D03*
X101900000Y-74700000D03*
X77150000Y-113200000D03*
%TO.N,NRST*%
X124600000Y-111900000D03*
X113900000Y-104400000D03*
%TO.N,+3V0*%
X112000000Y-113800000D03*
X118300000Y-103400000D03*
X119500000Y-104200000D03*
X113300000Y-114500000D03*
%TO.N,VOUT*%
X95100000Y-90800000D03*
X93100000Y-103000000D03*
X92100000Y-103600000D03*
X96300000Y-90800000D03*
%TO.N,LED_DIN*%
X117747642Y-106910815D03*
X99500000Y-55100000D03*
%TO.N,SWDIO*%
X118900000Y-113300000D03*
X120000000Y-111400000D03*
%TO.N,MOD_BTN*%
X96900000Y-108450000D03*
X77600000Y-119400000D03*
%TO.N,SET_BTN*%
X118600000Y-109900000D03*
X125000000Y-116600000D03*
%TO.N,Net-(U1-PA7)*%
X109300000Y-107900000D03*
X110759941Y-109610815D03*
%TO.N,HALL_OUT*%
X107500000Y-92651596D03*
X112397642Y-105010815D03*
%TO.N,LED_EN*%
X91200000Y-107100000D03*
X93700000Y-108800000D03*
%TD*%
D42*
%TO.N,GND*%
X85956458Y-108879839D02*
X86656458Y-110179839D01*
X84256458Y-112079839D02*
X86456458Y-110779839D01*
X112396131Y-110432057D02*
X111400000Y-110700000D01*
D43*
X89868750Y-107046947D02*
X91000000Y-108900000D01*
X121789864Y-107716186D02*
X122000000Y-108400000D01*
D42*
X86056458Y-108279839D02*
X85956458Y-108879839D01*
X110905221Y-103285469D02*
X111197642Y-104210815D01*
X83956458Y-105979839D02*
X83756458Y-106879839D01*
D43*
X117631688Y-114785469D02*
X118000000Y-115900000D01*
D42*
X97300000Y-71100000D02*
X97300000Y-72437500D01*
X117100000Y-105600000D02*
X117300000Y-105200000D01*
D43*
X115881688Y-115285469D02*
X117631688Y-114785469D01*
D42*
X96300000Y-92562499D02*
X97300000Y-92562500D01*
X91181458Y-104157115D02*
X90900000Y-103700000D01*
X97300000Y-55637500D02*
X96600000Y-55600000D01*
X109155221Y-103785469D02*
X108197642Y-104010815D01*
X111400000Y-110700000D02*
X111200000Y-111200000D01*
D43*
X92409511Y-108011089D02*
X91000000Y-108900000D01*
D42*
X86456458Y-110779839D02*
X86656458Y-110179839D01*
X87100000Y-107700000D02*
X86056458Y-108279839D01*
X98162500Y-91700000D02*
X97300000Y-92562500D01*
X81756458Y-108779839D02*
X83456458Y-111779839D01*
X89100000Y-109200000D02*
X89400000Y-109300000D01*
X85256458Y-105255339D02*
X83956458Y-105979839D01*
X100937500Y-91700000D02*
X98162500Y-91700000D01*
D43*
X121789864Y-107716186D02*
X123000000Y-107400000D01*
D42*
X83756458Y-106879839D02*
X81856458Y-107979839D01*
D43*
X117631688Y-114785469D02*
X118600000Y-114500000D01*
D42*
X122800000Y-113100000D02*
X123168750Y-114346947D01*
X81856458Y-107979839D02*
X81756458Y-108779839D01*
D43*
X121241568Y-105979127D02*
X121789864Y-107716186D01*
D42*
X96600000Y-55600000D02*
X96000000Y-56200000D01*
X83456458Y-111779839D02*
X84256458Y-112079839D01*
X90900000Y-103700000D02*
X91000000Y-103200000D01*
X88719375Y-108554839D02*
X89100000Y-109200000D01*
X122047532Y-112624852D02*
X122800000Y-113100000D01*
X97300000Y-64037500D02*
X97300000Y-62600000D01*
X97300000Y-80837500D02*
X97300000Y-79500000D01*
X116199153Y-105789573D02*
X117100000Y-105600000D01*
%TO.N,NRST*%
X123700000Y-112100000D02*
X124031250Y-112853053D01*
X124031250Y-112853053D02*
X124600000Y-111900000D01*
X122682532Y-111525000D02*
X123700000Y-112100000D01*
X113700000Y-104900000D02*
X113900000Y-104400000D01*
X113908252Y-105691666D02*
X113700000Y-104900000D01*
D43*
%TO.N,+3V0*%
X139600000Y-118500000D02*
X139600000Y-117200000D01*
D42*
X63600000Y-118700000D02*
X63318750Y-120053053D01*
D43*
X83221818Y-102621818D02*
X81700000Y-103800000D01*
X93300000Y-87100000D02*
X91900000Y-91300000D01*
X109800000Y-94400000D02*
X112000000Y-97600000D01*
X108000000Y-90800000D02*
X109800000Y-94400000D01*
D42*
X128000000Y-116700000D02*
X127322020Y-117970448D01*
D43*
X67600000Y-115100000D02*
X69103848Y-115603848D01*
X61100000Y-120900000D02*
X61800000Y-122400000D01*
X117000000Y-102500000D02*
X118300000Y-103400000D01*
X108435000Y-64300000D02*
X108500000Y-67400000D01*
X137300000Y-111900000D02*
X135217500Y-110595076D01*
X138300000Y-122500000D02*
X138900000Y-121200000D01*
D42*
X134400000Y-122000000D02*
X135918750Y-121696947D01*
D43*
X78800000Y-105400000D02*
X75300000Y-106900000D01*
X136500000Y-124500000D02*
X137400000Y-123600000D01*
X66200000Y-125900000D02*
X67700000Y-126300000D01*
X64900000Y-125300000D02*
X66200000Y-125900000D01*
X91900000Y-91300000D02*
X90100000Y-94900000D01*
D42*
X65422020Y-117729552D02*
X63600000Y-118700000D01*
D43*
X65422020Y-117729552D02*
X67392116Y-116592116D01*
X67600000Y-115100000D02*
X67392116Y-116592116D01*
X62700000Y-123500000D02*
X63700000Y-124500000D01*
X69200000Y-126400000D02*
X70800000Y-126300000D01*
X61800000Y-122400000D02*
X62700000Y-123500000D01*
X127322020Y-117970448D02*
X129165321Y-119034679D01*
X106100000Y-83300000D02*
X106800000Y-87100000D01*
X92900000Y-71700000D02*
X93700000Y-75200000D01*
X114600000Y-100500000D02*
X117000000Y-102500000D01*
X64882500Y-110495076D02*
X67600000Y-115100000D01*
X83221818Y-102621818D02*
X84900000Y-101100000D01*
X69103848Y-115603848D02*
X70877980Y-114579552D01*
X139300000Y-115600000D02*
X138700000Y-114100000D01*
X129400000Y-120400000D02*
X129165321Y-119034679D01*
D42*
X132777980Y-121120448D02*
X134400000Y-122000000D01*
D43*
X126782500Y-125204924D02*
X129400000Y-120400000D01*
X60600000Y-119300000D02*
X61100000Y-120900000D01*
X63100000Y-111600000D02*
X62100000Y-112800000D01*
X75300000Y-106900000D02*
X72000000Y-107800000D01*
X130900000Y-126500000D02*
X132400000Y-126400000D01*
X91500000Y-67500000D02*
X92900000Y-71700000D01*
X129400000Y-120400000D02*
X130686860Y-119913140D01*
D42*
X89006250Y-105553053D02*
X88200000Y-104300000D01*
X86200000Y-105500000D02*
X86300000Y-104800000D01*
D43*
X62100000Y-112800000D02*
X61300000Y-114200000D01*
X64882500Y-110495076D02*
X63100000Y-111600000D01*
X67700000Y-126300000D02*
X69200000Y-126400000D01*
X137400000Y-123600000D02*
X138300000Y-122500000D01*
X107300000Y-71100000D02*
X106500000Y-74700000D01*
X112000000Y-97600000D02*
X114600000Y-100500000D01*
X138700000Y-114100000D02*
X138000000Y-112800000D01*
X72000000Y-107800000D02*
X68000000Y-108500000D01*
X126782500Y-125204924D02*
X129100000Y-126400000D01*
X81700000Y-103800000D02*
X78800000Y-105400000D01*
X68000000Y-108500000D02*
X64882500Y-110495076D01*
X94100000Y-78500000D02*
X94000000Y-82000000D01*
X63700000Y-124500000D02*
X64900000Y-125300000D01*
X133900000Y-126000000D02*
X135300000Y-125400000D01*
X87900000Y-98000000D02*
X84900000Y-101100000D01*
X60500000Y-117500000D02*
X60600000Y-119300000D01*
X108500000Y-67400000D02*
X107300000Y-71100000D01*
X93700000Y-75200000D02*
X94100000Y-78500000D01*
X90100000Y-94900000D02*
X87900000Y-98000000D01*
X135300000Y-125400000D02*
X136500000Y-124500000D01*
D42*
X125400000Y-114600000D02*
X127800000Y-116100000D01*
D43*
X130686860Y-119913140D02*
X132777980Y-121120448D01*
X106800000Y-87100000D02*
X108000000Y-90800000D01*
X129100000Y-126400000D02*
X130900000Y-126500000D01*
D42*
X86606458Y-106195161D02*
X86200000Y-105500000D01*
D43*
X91565000Y-64300000D02*
X91500000Y-67500000D01*
X138900000Y-121200000D02*
X139400000Y-119900000D01*
X106000000Y-78800000D02*
X106100000Y-83300000D01*
D42*
X88200000Y-104300000D02*
X87500000Y-104100000D01*
D43*
X70800000Y-126300000D02*
X73317500Y-125104924D01*
D42*
X127800000Y-116100000D02*
X128000000Y-116700000D01*
X86300000Y-104800000D02*
X87500000Y-104100000D01*
D43*
X61300000Y-114200000D02*
X60700000Y-115800000D01*
X60700000Y-115800000D02*
X60500000Y-117500000D01*
D42*
X125556250Y-113709752D02*
X125300000Y-114100000D01*
D43*
X139600000Y-117200000D02*
X139300000Y-115600000D01*
X94000000Y-82000000D02*
X93300000Y-87100000D01*
X106500000Y-74700000D02*
X106000000Y-78800000D01*
X139400000Y-119900000D02*
X139600000Y-118500000D01*
D42*
X125300000Y-114100000D02*
X125400000Y-114600000D01*
D43*
X132400000Y-126400000D02*
X133900000Y-126000000D01*
X138000000Y-112800000D02*
X137300000Y-111900000D01*
D42*
%TO.N,Net-(C7-Pad1)*%
X67322020Y-121020448D02*
X72777980Y-117870448D01*
X72777980Y-117870448D02*
X74000000Y-117200000D01*
X74000000Y-117200000D02*
X74200000Y-116500000D01*
X67322020Y-121020448D02*
X65500000Y-122000000D01*
X65500000Y-122000000D02*
X64181250Y-121546947D01*
X74200000Y-116500000D02*
X73956250Y-115990248D01*
%TO.N,Net-(C8-Pad1)*%
X127300000Y-114200000D02*
X127056250Y-114609752D01*
X134677980Y-117829552D02*
X136400000Y-118800000D01*
X129222020Y-114679552D02*
X128200000Y-114100000D01*
X136400000Y-118800000D02*
X136781250Y-120203053D01*
X128200000Y-114100000D02*
X127300000Y-114200000D01*
X134677980Y-117829552D02*
X129222020Y-114679552D01*
D43*
%TO.N,VOUT*%
X95100000Y-90800000D02*
X96300000Y-90800000D01*
X92100000Y-103600000D02*
X93100000Y-103000000D01*
D42*
X99062500Y-90750000D02*
X97387500Y-90750000D01*
D43*
X96300000Y-90800000D02*
X96814084Y-90798690D01*
X91744375Y-103832115D02*
X92100000Y-103600000D01*
D42*
X97387500Y-90750000D02*
X97300000Y-90837500D01*
D43*
X96814084Y-90798690D02*
X97300000Y-90837500D01*
D42*
%TO.N,Net-(D1-DO)*%
X99750000Y-58750000D02*
X100000000Y-58500000D01*
X100000000Y-58500000D02*
X100000000Y-57500000D01*
X99085000Y-58750000D02*
X99750000Y-58750000D01*
X100000000Y-57500000D02*
X100450000Y-57050000D01*
X100450000Y-57050000D02*
X100915000Y-57050000D01*
%TO.N,LED_DIN*%
X99084712Y-55515287D02*
X99500000Y-55100000D01*
X99085000Y-55950000D02*
X99084712Y-55515287D01*
X116587381Y-107238462D02*
X117747642Y-106910815D01*
%TO.N,Net-(D2-DO)*%
X99450000Y-61550000D02*
X100000000Y-61000000D01*
X100000000Y-60500000D02*
X100650000Y-59850000D01*
X100650000Y-59850000D02*
X100915000Y-59850000D01*
X100000000Y-61000000D02*
X100000000Y-60500000D01*
X99085000Y-61550000D02*
X99450000Y-61550000D01*
%TO.N,Net-(D3-DO)*%
X100000000Y-63000000D02*
X100350000Y-62650000D01*
X99085000Y-64350000D02*
X99650000Y-64350000D01*
X99650000Y-64350000D02*
X100000000Y-64000000D01*
X100350000Y-62650000D02*
X100915000Y-62650000D01*
X100000000Y-64000000D02*
X100000000Y-63000000D01*
%TO.N,Net-(D4-DO)*%
X100000000Y-66000000D02*
X100000000Y-66500000D01*
X99350000Y-67150000D02*
X99085000Y-67150000D01*
X100000000Y-66500000D02*
X99350000Y-67150000D01*
X100550000Y-65450000D02*
X100000000Y-66000000D01*
X100915000Y-65450000D02*
X100550000Y-65450000D01*
%TO.N,Net-(D5-DO)*%
X100250000Y-68250000D02*
X100915000Y-68250000D01*
X99550000Y-69950000D02*
X100000000Y-69500000D01*
X100000000Y-69500000D02*
X100000000Y-68500000D01*
X100000000Y-68500000D02*
X100250000Y-68250000D01*
X99085000Y-69950000D02*
X99550000Y-69950000D01*
%TO.N,Net-(D6-DO)*%
X99750000Y-72750000D02*
X100000000Y-72500000D01*
X99085000Y-72750000D02*
X99750000Y-72750000D01*
X100000000Y-71500000D02*
X100450000Y-71050000D01*
X100450000Y-71050000D02*
X100915000Y-71050000D01*
X100000000Y-72500000D02*
X100000000Y-71500000D01*
%TO.N,Net-(D7-DO)*%
X100650000Y-73850000D02*
X100000000Y-74500000D01*
X100000000Y-74500000D02*
X100000000Y-75000000D01*
X100000000Y-75000000D02*
X99450000Y-75550000D01*
X99450000Y-75550000D02*
X99085000Y-75550000D01*
X100915000Y-73850000D02*
X100650000Y-73850000D01*
%TO.N,Net-(D8-DO)*%
X100350000Y-76650000D02*
X100915000Y-76650000D01*
X100000000Y-77000000D02*
X100350000Y-76650000D01*
X99085000Y-78350000D02*
X99650000Y-78350000D01*
X99650000Y-78350000D02*
X100000000Y-78000000D01*
X100000000Y-78000000D02*
X100000000Y-77000000D01*
%TO.N,Net-(D10-DI)*%
X99085000Y-81150000D02*
X99350000Y-81150000D01*
X100000000Y-80500000D02*
X100000000Y-80000000D01*
X99350000Y-81150000D02*
X100000000Y-80500000D01*
X100550000Y-79450000D02*
X100915000Y-79450000D01*
X100000000Y-80000000D02*
X100550000Y-79450000D01*
%TO.N,Net-(D10-DO)*%
X100000000Y-83500000D02*
X99550000Y-83950000D01*
X100915000Y-82250000D02*
X100250000Y-82250000D01*
X99550000Y-83950000D02*
X99085000Y-83950000D01*
X100000000Y-82500000D02*
X100000000Y-83500000D01*
X100250000Y-82250000D02*
X100000000Y-82500000D01*
%TO.N,Net-(D11-DO)*%
X100450000Y-85050000D02*
X100915000Y-85050000D01*
X100000000Y-86500000D02*
X100000000Y-85500000D01*
X99750000Y-86750000D02*
X100000000Y-86500000D01*
X100000000Y-85500000D02*
X100450000Y-85050000D01*
X99085000Y-86750000D02*
X99750000Y-86750000D01*
%TO.N,Net-(J1-Pin_1)*%
X123500000Y-116100000D02*
X121600000Y-114900000D01*
X124200000Y-116000000D02*
X123500000Y-116100000D01*
X124643750Y-115290248D02*
X124200000Y-116000000D01*
X121600000Y-114900000D02*
X121412532Y-113724705D01*
%TO.N,SWCLK*%
X116618884Y-110012326D02*
X116900000Y-111100000D01*
X116900000Y-111100000D02*
X120330000Y-113099705D01*
%TO.N,SWDIO*%
X116500000Y-111400000D02*
X118700000Y-112700000D01*
X118700000Y-112700000D02*
X118900000Y-113300000D01*
X116135921Y-110141735D02*
X116500000Y-111400000D01*
X120000000Y-111400000D02*
X120965000Y-111999852D01*
%TO.N,TRSWO*%
X117800000Y-108500000D02*
X121600000Y-110900000D01*
X116975610Y-108687351D02*
X117800000Y-108500000D01*
%TO.N,Net-(U1-PH3)*%
X119297642Y-108410815D02*
X118797642Y-108110815D01*
X116328562Y-106272536D02*
X117897642Y-105910815D01*
X118797642Y-108110815D02*
X118297642Y-106110815D01*
X120027050Y-108188530D02*
X119297642Y-108410815D01*
X118297642Y-106110815D02*
X117897642Y-105910815D01*
%TO.N,MOD_BTN*%
X74500000Y-114100000D02*
X77600000Y-119400000D01*
X96900000Y-108450000D02*
X97100000Y-108250000D01*
X73850000Y-113950000D02*
X74500000Y-114100000D01*
X103450000Y-108250000D02*
X104500000Y-105750000D01*
X104500000Y-105750000D02*
X108400000Y-104800000D01*
X73043750Y-114409752D02*
X73850000Y-113950000D01*
X97100000Y-108250000D02*
X103450000Y-108250000D01*
X108400000Y-104800000D02*
X111800000Y-105600000D01*
X111800000Y-105600000D02*
X111976400Y-106209304D01*
%TO.N,SET_BTN*%
X125400000Y-116700000D02*
X125000000Y-116600000D01*
X125900000Y-116600000D02*
X125400000Y-116700000D01*
X117105020Y-109170314D02*
X117400000Y-109100000D01*
X126143750Y-116190248D02*
X125900000Y-116600000D01*
X117400000Y-109100000D02*
X118600000Y-109900000D01*
%TO.N,Net-(U1-PA4)*%
X109000000Y-106200000D02*
X109700000Y-106400000D01*
X110700000Y-107800000D02*
X110100000Y-107600000D01*
X107881407Y-106463828D02*
X109000000Y-106200000D01*
X111619674Y-107534279D02*
X110700000Y-107800000D01*
X110100000Y-107600000D02*
X109700000Y-106400000D01*
%TO.N,RTC_nCS*%
X97800000Y-109300000D02*
X104200000Y-109300000D01*
X97400000Y-109700000D02*
X90500000Y-109700000D01*
X87169375Y-105870161D02*
X87456458Y-105679839D01*
X105100000Y-107200000D02*
X104200000Y-109300000D01*
X97800000Y-109300000D02*
X97400000Y-109700000D01*
X106118593Y-106936172D02*
X105100000Y-107200000D01*
X90500000Y-109700000D02*
X88200000Y-105800000D01*
X88200000Y-105800000D02*
X87456458Y-105679839D01*
%TO.N,Net-(U1-PA5)*%
X105400000Y-111700000D02*
X107800000Y-111000000D01*
X111749084Y-108017242D02*
X109797642Y-108581881D01*
X107800000Y-111000000D02*
X108000000Y-110400000D01*
X107800000Y-109700000D02*
X108000000Y-109100000D01*
X104800000Y-111200000D02*
X105400000Y-111700000D01*
X108000000Y-110400000D02*
X107800000Y-109700000D01*
X100912500Y-111200000D02*
X104800000Y-111200000D01*
X108000000Y-109100000D02*
X109797642Y-108581881D01*
%TO.N,SPI_CLK*%
X99087500Y-111200000D02*
X88000000Y-111200000D01*
X88000000Y-111200000D02*
X87030625Y-109529839D01*
%TO.N,Net-(U1-PA6)*%
X109100000Y-109300000D02*
X111878493Y-108500205D01*
X108781407Y-109863828D02*
X109100000Y-109300000D01*
%TO.N,SPI_MISO*%
X88500000Y-110700000D02*
X87593542Y-109204839D01*
X98200000Y-110300000D02*
X97800000Y-110700000D01*
X97800000Y-110700000D02*
X88500000Y-110700000D01*
X105000000Y-110300000D02*
X98200000Y-110300000D01*
X105600000Y-110700000D02*
X105000000Y-110300000D01*
X107018593Y-110336172D02*
X105600000Y-110700000D01*
%TO.N,Net-(U1-PA7)*%
X108281407Y-108163828D02*
X109300000Y-107900000D01*
X112007903Y-108983168D02*
X110997642Y-109310815D01*
X110997642Y-109310815D02*
X110759941Y-109610815D01*
%TO.N,SPI_MOSI*%
X104900000Y-109800000D02*
X105300000Y-108900000D01*
X97600000Y-110200000D02*
X98000000Y-109800000D01*
X89000000Y-110200000D02*
X97600000Y-110200000D01*
X88156458Y-108879839D02*
X89000000Y-110200000D01*
X105300000Y-108900000D02*
X106518593Y-108636172D01*
X98000000Y-109800000D02*
X104900000Y-109800000D01*
%TO.N,Net-(U3-OC)*%
X90618541Y-104482115D02*
X89856458Y-103179839D01*
X89856458Y-103179839D02*
X89366210Y-102836089D01*
%TO.N,Net-(#FLG02-pwr)*%
X113425289Y-105821076D02*
X112658457Y-102797543D01*
%TO.N,HALL_OUT*%
X102731204Y-92651596D02*
X107500000Y-92651596D01*
X112297642Y-105510815D02*
X112397642Y-105010815D01*
X112459363Y-106079895D02*
X112297642Y-105510815D01*
X99062500Y-92650000D02*
X102731204Y-92651596D01*
%TO.N,LED_EN*%
X97600000Y-108800000D02*
X103800000Y-108800000D01*
X97200000Y-109200000D02*
X97600000Y-108800000D01*
X91568541Y-106127563D02*
X91300000Y-106300000D01*
X110500000Y-107100000D02*
X110900000Y-107200000D01*
X91300000Y-106300000D02*
X91200000Y-107100000D01*
X110900000Y-107200000D02*
X111490264Y-107051316D01*
X93700000Y-108800000D02*
X94100000Y-109200000D01*
X110100000Y-105900000D02*
X110500000Y-107100000D01*
X103800000Y-108800000D02*
X104900000Y-106200000D01*
X108200000Y-105400000D02*
X110100000Y-105900000D01*
X104900000Y-106200000D02*
X108200000Y-105400000D01*
X94100000Y-109200000D02*
X97200000Y-109200000D01*
%TO.N,OSC32_2*%
X84556458Y-106379839D02*
X84256458Y-107879839D01*
X86043542Y-106520161D02*
X85856458Y-106179839D01*
X85256458Y-105979839D02*
X84556458Y-106379839D01*
X84256458Y-107879839D02*
X83312500Y-108467468D01*
X85856458Y-106179839D02*
X85256458Y-105979839D01*
%TO.N,OSC32_1*%
X85480625Y-106845161D02*
X85056458Y-107079839D01*
X85056458Y-107079839D02*
X84856458Y-108079839D01*
X84562500Y-110632532D02*
X85456458Y-110079839D01*
X85456458Y-110079839D02*
X85656458Y-109479839D01*
X85656458Y-109479839D02*
X84856458Y-108079839D01*
%TD*%
%TA.AperFunction,Conductor*%
%TO.N,+3V0*%
G36*
X113394957Y-98818307D02*
G01*
X113450118Y-98850576D01*
X114361306Y-99770078D01*
X115483155Y-100902164D01*
X115514887Y-100957489D01*
X115514921Y-101021270D01*
X115483249Y-101076631D01*
X115428248Y-101108925D01*
X113072859Y-101762886D01*
X113014780Y-101764879D01*
X112962172Y-101740192D01*
X112926588Y-101694248D01*
X112915845Y-101637137D01*
X112932301Y-101581403D01*
X112942665Y-101563453D01*
X112988601Y-101448707D01*
X112992740Y-101431645D01*
X113004594Y-101307499D01*
X113004136Y-101292115D01*
X112996874Y-101245543D01*
X112992295Y-101236746D01*
X112980687Y-101234173D01*
X111499103Y-101234173D01*
X111488160Y-101236724D01*
X111488528Y-101247953D01*
X111587080Y-101615755D01*
X111589137Y-101622059D01*
X111606373Y-101666643D01*
X111613670Y-101680198D01*
X111686009Y-101781785D01*
X111698122Y-101794488D01*
X111795278Y-101870893D01*
X111810485Y-101879673D01*
X111814457Y-101881263D01*
X111863846Y-101917258D01*
X111890044Y-101972474D01*
X111886685Y-102033497D01*
X111854585Y-102085503D01*
X111801543Y-102115860D01*
X111352482Y-102240539D01*
X111284471Y-102240065D01*
X111226941Y-102203789D01*
X111197199Y-102142625D01*
X111204191Y-102074973D01*
X111245072Y-101972855D01*
X111249211Y-101955793D01*
X111261065Y-101831647D01*
X111260607Y-101816263D01*
X111253243Y-101769036D01*
X111251870Y-101762541D01*
X111251019Y-101759364D01*
X111245531Y-101748820D01*
X111233923Y-101746247D01*
X109752339Y-101746247D01*
X109741396Y-101748798D01*
X109741764Y-101760027D01*
X109843551Y-102139902D01*
X109845609Y-102146211D01*
X109862844Y-102190789D01*
X109870144Y-102204349D01*
X109942478Y-102305930D01*
X109954598Y-102318641D01*
X110053403Y-102396343D01*
X110093092Y-102450909D01*
X110098333Y-102518179D01*
X110067575Y-102578235D01*
X110009924Y-102613293D01*
X109608842Y-102724651D01*
X109540831Y-102724177D01*
X109483301Y-102687900D01*
X109453559Y-102626736D01*
X109460552Y-102559084D01*
X109495071Y-102472858D01*
X109499211Y-102455793D01*
X109511065Y-102331647D01*
X109510607Y-102316263D01*
X109503243Y-102269036D01*
X109501870Y-102262541D01*
X109501019Y-102259364D01*
X109495531Y-102248820D01*
X109483923Y-102246247D01*
X108002339Y-102246247D01*
X107991396Y-102248798D01*
X107991764Y-102260027D01*
X108093551Y-102639902D01*
X108095609Y-102646211D01*
X108112844Y-102690789D01*
X108120144Y-102704349D01*
X108192478Y-102805930D01*
X108204594Y-102818637D01*
X108290132Y-102885905D01*
X108329821Y-102940472D01*
X108335062Y-103007742D01*
X108304304Y-103067798D01*
X108246653Y-103102856D01*
X107613728Y-103278584D01*
X107550698Y-103279456D01*
X107495384Y-103249225D01*
X107462080Y-103195705D01*
X107433395Y-103102856D01*
X107063902Y-101906846D01*
X107906452Y-101906846D01*
X107906910Y-101922230D01*
X107914274Y-101969457D01*
X107915647Y-101975952D01*
X107916498Y-101979129D01*
X107921986Y-101989673D01*
X107933595Y-101992247D01*
X108565433Y-101992247D01*
X108578308Y-101988796D01*
X108581759Y-101975921D01*
X108835759Y-101975921D01*
X108839209Y-101988796D01*
X108852085Y-101992247D01*
X109415179Y-101992247D01*
X109426121Y-101989695D01*
X109425753Y-101978466D01*
X109323966Y-101598591D01*
X109321908Y-101592282D01*
X109304673Y-101547704D01*
X109297373Y-101534144D01*
X109225039Y-101432563D01*
X109212923Y-101419856D01*
X109196380Y-101406846D01*
X109656452Y-101406846D01*
X109656910Y-101422230D01*
X109664274Y-101469457D01*
X109665647Y-101475952D01*
X109666498Y-101479129D01*
X109671986Y-101489673D01*
X109683595Y-101492247D01*
X110315433Y-101492247D01*
X110328308Y-101488796D01*
X110331759Y-101475921D01*
X110585759Y-101475921D01*
X110589209Y-101488796D01*
X110602085Y-101492247D01*
X111165179Y-101492247D01*
X111176121Y-101489695D01*
X111175753Y-101478466D01*
X111073966Y-101098591D01*
X111071908Y-101092282D01*
X111054673Y-101047704D01*
X111047373Y-101034144D01*
X110975039Y-100932563D01*
X110962923Y-100919856D01*
X110946380Y-100906846D01*
X111406451Y-100906846D01*
X111406909Y-100922230D01*
X111414171Y-100968802D01*
X111418750Y-100977599D01*
X111430359Y-100980173D01*
X112062197Y-100980173D01*
X112075072Y-100976722D01*
X112078523Y-100963847D01*
X112332523Y-100963847D01*
X112335973Y-100976722D01*
X112348849Y-100980173D01*
X112911943Y-100980173D01*
X112922885Y-100977621D01*
X112922517Y-100966392D01*
X112823965Y-100598590D01*
X112821908Y-100592286D01*
X112804672Y-100547702D01*
X112797375Y-100534147D01*
X112725036Y-100432560D01*
X112712923Y-100419857D01*
X112615767Y-100343452D01*
X112600564Y-100334675D01*
X112485817Y-100288737D01*
X112468759Y-100284600D01*
X112344621Y-100272745D01*
X112341160Y-100272849D01*
X112335454Y-100275199D01*
X112332523Y-100287391D01*
X112332523Y-100963847D01*
X112078523Y-100963847D01*
X112078523Y-100348990D01*
X112075971Y-100338047D01*
X112064742Y-100338415D01*
X111732305Y-100427491D01*
X111725983Y-100429553D01*
X111681406Y-100446786D01*
X111667850Y-100454084D01*
X111566266Y-100526422D01*
X111553562Y-100538535D01*
X111477158Y-100635689D01*
X111468380Y-100650894D01*
X111422444Y-100765638D01*
X111418305Y-100782700D01*
X111406451Y-100906846D01*
X110946380Y-100906846D01*
X110865768Y-100843452D01*
X110850565Y-100834675D01*
X110735818Y-100788737D01*
X110718760Y-100784600D01*
X110594617Y-100772745D01*
X110593330Y-100772783D01*
X110588690Y-100774694D01*
X110585759Y-100786886D01*
X110585759Y-101475921D01*
X110331759Y-101475921D01*
X110331759Y-100848123D01*
X110329207Y-100837180D01*
X110317978Y-100837548D01*
X109982306Y-100927491D01*
X109975984Y-100929553D01*
X109931408Y-100946786D01*
X109917853Y-100954083D01*
X109816266Y-101026422D01*
X109803563Y-101038535D01*
X109727158Y-101135691D01*
X109718381Y-101150894D01*
X109672445Y-101265638D01*
X109668306Y-101282700D01*
X109656452Y-101406846D01*
X109196380Y-101406846D01*
X109115768Y-101343452D01*
X109100565Y-101334675D01*
X108985818Y-101288737D01*
X108968760Y-101284600D01*
X108844617Y-101272745D01*
X108843330Y-101272783D01*
X108838690Y-101274694D01*
X108835759Y-101286886D01*
X108835759Y-101975921D01*
X108581759Y-101975921D01*
X108581759Y-101348123D01*
X108579207Y-101337180D01*
X108567978Y-101337548D01*
X108232306Y-101427491D01*
X108225984Y-101429553D01*
X108181408Y-101446786D01*
X108167853Y-101454083D01*
X108066266Y-101526422D01*
X108053563Y-101538535D01*
X107977158Y-101635691D01*
X107968381Y-101650894D01*
X107922445Y-101765638D01*
X107918306Y-101782700D01*
X107906452Y-101906846D01*
X107063902Y-101906846D01*
X107008420Y-101727257D01*
X107004338Y-101671802D01*
X107031962Y-101492247D01*
X107187571Y-100480784D01*
X107203848Y-100435763D01*
X107235969Y-100400262D01*
X107279140Y-100379576D01*
X113331055Y-98817792D01*
X113394957Y-98818307D01*
G37*
%TD.AperFunction*%
%TD*%
%TA.AperFunction,Conductor*%
%TO.N,GND*%
G36*
X103538000Y-55216613D02*
G01*
X103583387Y-55262000D01*
X103600000Y-55324000D01*
X103600000Y-91676000D01*
X103583387Y-91738000D01*
X103538000Y-91783387D01*
X103476000Y-91800000D01*
X101995386Y-91800000D01*
X101976965Y-91795577D01*
X101970346Y-91800000D01*
X100862113Y-91800000D01*
X100827113Y-91765000D01*
X100810500Y-91703000D01*
X100810500Y-91556674D01*
X101064500Y-91556674D01*
X101067950Y-91569549D01*
X101080826Y-91573000D01*
X101902613Y-91573000D01*
X101919072Y-91576951D01*
X101925210Y-91570813D01*
X101928999Y-91556674D01*
X101928999Y-91523075D01*
X101928237Y-91513399D01*
X101915542Y-91433237D01*
X101909586Y-91414907D01*
X101860347Y-91318270D01*
X101849015Y-91302673D01*
X101772326Y-91225984D01*
X101756729Y-91214652D01*
X101660095Y-91165415D01*
X101641757Y-91159456D01*
X101561615Y-91146763D01*
X101551917Y-91146000D01*
X101080826Y-91146000D01*
X101067950Y-91149450D01*
X101064500Y-91162326D01*
X101064500Y-91556674D01*
X100810500Y-91556674D01*
X100810500Y-91162327D01*
X100807049Y-91149451D01*
X100794174Y-91146001D01*
X100324000Y-91146001D01*
X100262000Y-91129388D01*
X100216613Y-91084001D01*
X100200000Y-91022001D01*
X100200000Y-88494187D01*
X100217642Y-88430438D01*
X100265547Y-88384829D01*
X100330085Y-88370336D01*
X100392891Y-88391085D01*
X100431727Y-88417034D01*
X100465699Y-88439734D01*
X100539933Y-88454500D01*
X101290066Y-88454499D01*
X101364301Y-88439734D01*
X101448484Y-88383484D01*
X101504734Y-88299301D01*
X101519500Y-88225067D01*
X101519499Y-87474934D01*
X101504734Y-87400699D01*
X101483178Y-87368439D01*
X101464664Y-87323742D01*
X101464664Y-87275358D01*
X101483180Y-87230657D01*
X101497479Y-87209257D01*
X101506645Y-87187127D01*
X101517810Y-87130997D01*
X101519000Y-87118921D01*
X101519000Y-86893326D01*
X101515549Y-86880450D01*
X101502674Y-86877000D01*
X100912000Y-86877000D01*
X100850000Y-86860387D01*
X100804613Y-86815000D01*
X100788000Y-86753000D01*
X100788000Y-86606674D01*
X101042000Y-86606674D01*
X101045450Y-86619549D01*
X101058326Y-86623000D01*
X101502673Y-86623000D01*
X101515548Y-86619549D01*
X101518999Y-86606674D01*
X101518999Y-86381074D01*
X101517811Y-86369012D01*
X101506645Y-86312870D01*
X101497478Y-86290740D01*
X101454908Y-86227029D01*
X101437970Y-86210091D01*
X101374260Y-86167521D01*
X101352127Y-86158354D01*
X101295997Y-86147189D01*
X101283921Y-86146000D01*
X101058326Y-86146000D01*
X101045450Y-86149450D01*
X101042000Y-86162326D01*
X101042000Y-86606674D01*
X100788000Y-86606674D01*
X100788000Y-86162327D01*
X100784549Y-86149451D01*
X100771674Y-86146001D01*
X100546074Y-86146001D01*
X100534012Y-86147188D01*
X100527685Y-86148447D01*
X100473366Y-86147111D01*
X100424833Y-86122679D01*
X100391405Y-86079843D01*
X100379500Y-86026828D01*
X100379500Y-85773682D01*
X100391405Y-85720665D01*
X100424835Y-85677829D01*
X100473370Y-85653398D01*
X100527686Y-85652064D01*
X100539933Y-85654500D01*
X101290066Y-85654499D01*
X101364301Y-85639734D01*
X101448484Y-85583484D01*
X101504734Y-85499301D01*
X101519500Y-85425067D01*
X101519499Y-84674934D01*
X101504734Y-84600699D01*
X101483178Y-84568439D01*
X101464664Y-84523742D01*
X101464664Y-84475358D01*
X101483180Y-84430657D01*
X101497479Y-84409257D01*
X101506645Y-84387127D01*
X101517810Y-84330997D01*
X101519000Y-84318921D01*
X101519000Y-84093326D01*
X101515549Y-84080450D01*
X101502674Y-84077000D01*
X100912000Y-84077000D01*
X100850000Y-84060387D01*
X100804613Y-84015000D01*
X100788000Y-83953000D01*
X100788000Y-83806674D01*
X101042000Y-83806674D01*
X101045450Y-83819549D01*
X101058326Y-83823000D01*
X101502673Y-83823000D01*
X101515548Y-83819549D01*
X101518999Y-83806674D01*
X101518999Y-83581074D01*
X101517811Y-83569012D01*
X101506645Y-83512870D01*
X101497478Y-83490740D01*
X101454908Y-83427029D01*
X101437970Y-83410091D01*
X101374260Y-83367521D01*
X101352127Y-83358354D01*
X101295997Y-83347189D01*
X101283921Y-83346000D01*
X101058326Y-83346000D01*
X101045450Y-83349450D01*
X101042000Y-83362326D01*
X101042000Y-83806674D01*
X100788000Y-83806674D01*
X100788000Y-83362327D01*
X100784549Y-83349451D01*
X100771674Y-83346001D01*
X100546074Y-83346001D01*
X100534012Y-83347188D01*
X100527685Y-83348447D01*
X100473366Y-83347111D01*
X100424833Y-83322679D01*
X100391405Y-83279843D01*
X100379500Y-83226828D01*
X100379500Y-82973682D01*
X100391405Y-82920665D01*
X100424835Y-82877829D01*
X100473370Y-82853398D01*
X100527686Y-82852064D01*
X100539933Y-82854500D01*
X101290066Y-82854499D01*
X101364301Y-82839734D01*
X101448484Y-82783484D01*
X101504734Y-82699301D01*
X101519500Y-82625067D01*
X101519499Y-81874934D01*
X101504734Y-81800699D01*
X101483178Y-81768439D01*
X101464664Y-81723742D01*
X101464664Y-81675358D01*
X101483180Y-81630657D01*
X101497479Y-81609257D01*
X101506645Y-81587127D01*
X101517810Y-81530997D01*
X101519000Y-81518921D01*
X101519000Y-81293326D01*
X101515549Y-81280450D01*
X101502674Y-81277000D01*
X100912000Y-81277000D01*
X100850000Y-81260387D01*
X100804613Y-81215000D01*
X100788000Y-81153000D01*
X100788000Y-81006674D01*
X101042000Y-81006674D01*
X101045450Y-81019549D01*
X101058326Y-81023000D01*
X101502673Y-81023000D01*
X101515548Y-81019549D01*
X101518999Y-81006674D01*
X101518999Y-80781074D01*
X101517811Y-80769012D01*
X101506645Y-80712870D01*
X101497478Y-80690740D01*
X101454908Y-80627029D01*
X101437970Y-80610091D01*
X101374260Y-80567521D01*
X101352127Y-80558354D01*
X101295997Y-80547189D01*
X101283921Y-80546000D01*
X101058326Y-80546000D01*
X101045450Y-80549450D01*
X101042000Y-80562326D01*
X101042000Y-81006674D01*
X100788000Y-81006674D01*
X100788000Y-80562327D01*
X100784549Y-80549451D01*
X100771674Y-80546001D01*
X100546074Y-80546001D01*
X100534012Y-80547188D01*
X100527685Y-80548447D01*
X100473366Y-80547111D01*
X100424833Y-80522679D01*
X100391405Y-80479843D01*
X100379500Y-80426828D01*
X100379500Y-80208557D01*
X100388939Y-80161105D01*
X100415817Y-80120877D01*
X100446445Y-80090248D01*
X100492355Y-80061176D01*
X100539933Y-80055310D01*
X100539933Y-80054500D01*
X101290066Y-80054499D01*
X101364301Y-80039734D01*
X101448484Y-79983484D01*
X101504734Y-79899301D01*
X101519500Y-79825067D01*
X101519499Y-79074934D01*
X101504734Y-79000699D01*
X101483178Y-78968439D01*
X101464664Y-78923742D01*
X101464664Y-78875358D01*
X101483180Y-78830657D01*
X101497479Y-78809257D01*
X101506645Y-78787127D01*
X101517810Y-78730997D01*
X101519000Y-78718921D01*
X101519000Y-78493326D01*
X101515549Y-78480450D01*
X101502674Y-78477000D01*
X100912000Y-78477000D01*
X100850000Y-78460387D01*
X100804613Y-78415000D01*
X100788000Y-78353000D01*
X100788000Y-78206674D01*
X101042000Y-78206674D01*
X101045450Y-78219549D01*
X101058326Y-78223000D01*
X101502673Y-78223000D01*
X101515548Y-78219549D01*
X101518999Y-78206674D01*
X101518999Y-77981074D01*
X101517811Y-77969012D01*
X101506645Y-77912870D01*
X101497478Y-77890740D01*
X101454908Y-77827029D01*
X101437970Y-77810091D01*
X101374260Y-77767521D01*
X101352127Y-77758354D01*
X101295997Y-77747189D01*
X101283921Y-77746000D01*
X101058326Y-77746000D01*
X101045450Y-77749450D01*
X101042000Y-77762326D01*
X101042000Y-78206674D01*
X100788000Y-78206674D01*
X100788000Y-77762327D01*
X100784549Y-77749451D01*
X100771674Y-77746001D01*
X100546074Y-77746001D01*
X100534012Y-77747188D01*
X100527685Y-77748447D01*
X100473366Y-77747111D01*
X100424833Y-77722679D01*
X100391405Y-77679843D01*
X100379500Y-77626828D01*
X100379500Y-77373682D01*
X100391405Y-77320665D01*
X100424835Y-77277829D01*
X100473370Y-77253398D01*
X100527686Y-77252064D01*
X100539933Y-77254500D01*
X101290066Y-77254499D01*
X101364301Y-77239734D01*
X101448484Y-77183484D01*
X101504734Y-77099301D01*
X101519500Y-77025067D01*
X101519499Y-76274934D01*
X101504734Y-76200699D01*
X101483178Y-76168439D01*
X101464664Y-76123742D01*
X101464664Y-76075358D01*
X101483180Y-76030657D01*
X101497479Y-76009257D01*
X101506645Y-75987127D01*
X101517810Y-75930997D01*
X101519000Y-75918921D01*
X101519000Y-75693326D01*
X101515549Y-75680450D01*
X101502674Y-75677000D01*
X100912000Y-75677000D01*
X100850000Y-75660387D01*
X100804613Y-75615000D01*
X100788000Y-75553000D01*
X100788000Y-75406674D01*
X101042000Y-75406674D01*
X101045450Y-75419549D01*
X101058326Y-75423000D01*
X101502673Y-75423000D01*
X101515548Y-75419549D01*
X101518999Y-75406674D01*
X101518999Y-75181074D01*
X101517811Y-75169012D01*
X101506645Y-75112870D01*
X101497478Y-75090740D01*
X101454908Y-75027029D01*
X101437970Y-75010091D01*
X101374260Y-74967521D01*
X101352127Y-74958354D01*
X101295997Y-74947189D01*
X101283921Y-74946000D01*
X101058326Y-74946000D01*
X101045450Y-74949450D01*
X101042000Y-74962326D01*
X101042000Y-75406674D01*
X100788000Y-75406674D01*
X100788000Y-74962327D01*
X100784549Y-74949451D01*
X100771674Y-74946001D01*
X100546074Y-74946001D01*
X100534012Y-74947188D01*
X100527685Y-74948447D01*
X100473366Y-74947111D01*
X100424833Y-74922679D01*
X100391405Y-74879843D01*
X100379500Y-74826828D01*
X100379500Y-74708556D01*
X100388939Y-74661103D01*
X100415816Y-74620877D01*
X100545877Y-74490815D01*
X100586103Y-74463938D01*
X100633556Y-74454499D01*
X101283976Y-74454499D01*
X101290066Y-74454499D01*
X101364301Y-74439734D01*
X101448484Y-74383484D01*
X101504734Y-74299301D01*
X101519500Y-74225067D01*
X101519499Y-73474934D01*
X101504734Y-73400699D01*
X101483178Y-73368439D01*
X101464664Y-73323742D01*
X101464664Y-73275358D01*
X101483180Y-73230657D01*
X101497479Y-73209257D01*
X101506645Y-73187127D01*
X101517810Y-73130997D01*
X101519000Y-73118921D01*
X101519000Y-72893326D01*
X101515549Y-72880450D01*
X101502674Y-72877000D01*
X100912000Y-72877000D01*
X100850000Y-72860387D01*
X100804613Y-72815000D01*
X100788000Y-72753000D01*
X100788000Y-72606674D01*
X101042000Y-72606674D01*
X101045450Y-72619549D01*
X101058326Y-72623000D01*
X101502673Y-72623000D01*
X101515548Y-72619549D01*
X101518999Y-72606674D01*
X101518999Y-72381074D01*
X101517811Y-72369012D01*
X101506645Y-72312870D01*
X101497478Y-72290740D01*
X101454908Y-72227029D01*
X101437970Y-72210091D01*
X101374260Y-72167521D01*
X101352127Y-72158354D01*
X101295997Y-72147189D01*
X101283921Y-72146000D01*
X101058326Y-72146000D01*
X101045450Y-72149450D01*
X101042000Y-72162326D01*
X101042000Y-72606674D01*
X100788000Y-72606674D01*
X100788000Y-72162327D01*
X100784549Y-72149451D01*
X100771674Y-72146001D01*
X100546074Y-72146001D01*
X100534012Y-72147188D01*
X100527685Y-72148447D01*
X100473366Y-72147111D01*
X100424833Y-72122679D01*
X100391405Y-72079843D01*
X100379500Y-72026828D01*
X100379500Y-71773682D01*
X100391405Y-71720665D01*
X100424835Y-71677829D01*
X100473370Y-71653398D01*
X100527686Y-71652064D01*
X100539933Y-71654500D01*
X101290066Y-71654499D01*
X101364301Y-71639734D01*
X101448484Y-71583484D01*
X101504734Y-71499301D01*
X101519500Y-71425067D01*
X101519499Y-70674934D01*
X101504734Y-70600699D01*
X101483178Y-70568439D01*
X101464664Y-70523742D01*
X101464664Y-70475358D01*
X101483180Y-70430657D01*
X101497479Y-70409257D01*
X101506645Y-70387127D01*
X101517810Y-70330997D01*
X101519000Y-70318921D01*
X101519000Y-70093326D01*
X101515549Y-70080450D01*
X101502674Y-70077000D01*
X100912000Y-70077000D01*
X100850000Y-70060387D01*
X100804613Y-70015000D01*
X100788000Y-69953000D01*
X100788000Y-69806674D01*
X101042000Y-69806674D01*
X101045450Y-69819549D01*
X101058326Y-69823000D01*
X101502673Y-69823000D01*
X101515548Y-69819549D01*
X101518999Y-69806674D01*
X101518999Y-69581074D01*
X101517811Y-69569012D01*
X101506645Y-69512870D01*
X101497478Y-69490740D01*
X101454908Y-69427029D01*
X101437970Y-69410091D01*
X101374260Y-69367521D01*
X101352127Y-69358354D01*
X101295997Y-69347189D01*
X101283921Y-69346000D01*
X101058326Y-69346000D01*
X101045450Y-69349450D01*
X101042000Y-69362326D01*
X101042000Y-69806674D01*
X100788000Y-69806674D01*
X100788000Y-69362327D01*
X100784549Y-69349451D01*
X100771674Y-69346001D01*
X100546074Y-69346001D01*
X100534012Y-69347188D01*
X100527685Y-69348447D01*
X100473366Y-69347111D01*
X100424833Y-69322679D01*
X100391405Y-69279843D01*
X100379500Y-69226828D01*
X100379500Y-68973682D01*
X100391405Y-68920665D01*
X100424835Y-68877829D01*
X100473370Y-68853398D01*
X100527686Y-68852064D01*
X100539933Y-68854500D01*
X101290066Y-68854499D01*
X101364301Y-68839734D01*
X101448484Y-68783484D01*
X101504734Y-68699301D01*
X101519500Y-68625067D01*
X101519499Y-67874934D01*
X101504734Y-67800699D01*
X101483178Y-67768439D01*
X101464664Y-67723742D01*
X101464664Y-67675358D01*
X101483180Y-67630657D01*
X101497479Y-67609257D01*
X101506645Y-67587127D01*
X101517810Y-67530997D01*
X101519000Y-67518921D01*
X101519000Y-67293326D01*
X101515549Y-67280450D01*
X101502674Y-67277000D01*
X100912000Y-67277000D01*
X100850000Y-67260387D01*
X100804613Y-67215000D01*
X100788000Y-67153000D01*
X100788000Y-67006674D01*
X101042000Y-67006674D01*
X101045450Y-67019549D01*
X101058326Y-67023000D01*
X101502673Y-67023000D01*
X101515548Y-67019549D01*
X101518999Y-67006674D01*
X101518999Y-66781074D01*
X101517811Y-66769012D01*
X101506645Y-66712870D01*
X101497478Y-66690740D01*
X101454908Y-66627029D01*
X101437970Y-66610091D01*
X101374260Y-66567521D01*
X101352127Y-66558354D01*
X101295997Y-66547189D01*
X101283921Y-66546000D01*
X101058326Y-66546000D01*
X101045450Y-66549450D01*
X101042000Y-66562326D01*
X101042000Y-67006674D01*
X100788000Y-67006674D01*
X100788000Y-66562327D01*
X100784549Y-66549451D01*
X100771674Y-66546001D01*
X100546074Y-66546001D01*
X100534012Y-66547188D01*
X100527685Y-66548447D01*
X100473366Y-66547111D01*
X100424833Y-66522679D01*
X100391405Y-66479843D01*
X100379500Y-66426828D01*
X100379500Y-66208557D01*
X100388939Y-66161105D01*
X100415817Y-66120877D01*
X100446445Y-66090248D01*
X100492355Y-66061176D01*
X100539933Y-66055310D01*
X100539933Y-66054500D01*
X101290066Y-66054499D01*
X101364301Y-66039734D01*
X101448484Y-65983484D01*
X101504734Y-65899301D01*
X101519500Y-65825067D01*
X101519499Y-65074934D01*
X101504734Y-65000699D01*
X101483178Y-64968439D01*
X101464664Y-64923742D01*
X101464664Y-64875358D01*
X101483180Y-64830657D01*
X101497479Y-64809257D01*
X101506645Y-64787127D01*
X101517810Y-64730997D01*
X101519000Y-64718921D01*
X101519000Y-64493326D01*
X101515549Y-64480450D01*
X101502674Y-64477000D01*
X100912000Y-64477000D01*
X100850000Y-64460387D01*
X100804613Y-64415000D01*
X100788000Y-64353000D01*
X100788000Y-64206674D01*
X101042000Y-64206674D01*
X101045450Y-64219549D01*
X101058326Y-64223000D01*
X101502673Y-64223000D01*
X101515548Y-64219549D01*
X101518999Y-64206674D01*
X101518999Y-63981074D01*
X101517811Y-63969012D01*
X101506645Y-63912870D01*
X101497478Y-63890740D01*
X101454908Y-63827029D01*
X101437970Y-63810091D01*
X101374260Y-63767521D01*
X101352127Y-63758354D01*
X101295997Y-63747189D01*
X101283921Y-63746000D01*
X101058326Y-63746000D01*
X101045450Y-63749450D01*
X101042000Y-63762326D01*
X101042000Y-64206674D01*
X100788000Y-64206674D01*
X100788000Y-63762327D01*
X100784549Y-63749451D01*
X100771674Y-63746001D01*
X100546074Y-63746001D01*
X100534012Y-63747188D01*
X100527685Y-63748447D01*
X100473366Y-63747111D01*
X100424833Y-63722679D01*
X100391405Y-63679843D01*
X100379500Y-63626828D01*
X100379500Y-63373682D01*
X100391405Y-63320665D01*
X100424835Y-63277829D01*
X100473370Y-63253398D01*
X100527686Y-63252064D01*
X100539933Y-63254500D01*
X101290066Y-63254499D01*
X101364301Y-63239734D01*
X101448484Y-63183484D01*
X101504734Y-63099301D01*
X101519500Y-63025067D01*
X101519499Y-62274934D01*
X101504734Y-62200699D01*
X101483178Y-62168439D01*
X101464664Y-62123742D01*
X101464664Y-62075358D01*
X101483180Y-62030657D01*
X101497479Y-62009257D01*
X101506645Y-61987127D01*
X101517810Y-61930997D01*
X101519000Y-61918921D01*
X101519000Y-61693326D01*
X101515549Y-61680450D01*
X101502674Y-61677000D01*
X100912000Y-61677000D01*
X100850000Y-61660387D01*
X100804613Y-61615000D01*
X100788000Y-61553000D01*
X100788000Y-61406674D01*
X101042000Y-61406674D01*
X101045450Y-61419549D01*
X101058326Y-61423000D01*
X101502673Y-61423000D01*
X101515548Y-61419549D01*
X101518999Y-61406674D01*
X101518999Y-61181074D01*
X101517811Y-61169012D01*
X101506645Y-61112870D01*
X101497478Y-61090740D01*
X101454908Y-61027029D01*
X101437970Y-61010091D01*
X101374260Y-60967521D01*
X101352127Y-60958354D01*
X101295997Y-60947189D01*
X101283921Y-60946000D01*
X101058326Y-60946000D01*
X101045450Y-60949450D01*
X101042000Y-60962326D01*
X101042000Y-61406674D01*
X100788000Y-61406674D01*
X100788000Y-60962327D01*
X100784549Y-60949451D01*
X100771674Y-60946001D01*
X100546074Y-60946001D01*
X100534012Y-60947188D01*
X100527685Y-60948447D01*
X100473366Y-60947111D01*
X100424833Y-60922679D01*
X100391405Y-60879843D01*
X100379500Y-60826828D01*
X100379500Y-60708556D01*
X100388939Y-60661103D01*
X100415816Y-60620877D01*
X100545877Y-60490815D01*
X100586103Y-60463938D01*
X100633556Y-60454499D01*
X101283976Y-60454499D01*
X101290066Y-60454499D01*
X101364301Y-60439734D01*
X101448484Y-60383484D01*
X101504734Y-60299301D01*
X101519500Y-60225067D01*
X101519499Y-59474934D01*
X101504734Y-59400699D01*
X101483178Y-59368439D01*
X101464664Y-59323742D01*
X101464664Y-59275358D01*
X101483180Y-59230657D01*
X101497479Y-59209257D01*
X101506645Y-59187127D01*
X101517810Y-59130997D01*
X101519000Y-59118921D01*
X101519000Y-58893326D01*
X101515549Y-58880450D01*
X101502674Y-58877000D01*
X100912000Y-58877000D01*
X100850000Y-58860387D01*
X100804613Y-58815000D01*
X100788000Y-58753000D01*
X100788000Y-58606674D01*
X101042000Y-58606674D01*
X101045450Y-58619549D01*
X101058326Y-58623000D01*
X101502673Y-58623000D01*
X101515548Y-58619549D01*
X101518999Y-58606674D01*
X101518999Y-58381074D01*
X101517811Y-58369012D01*
X101506645Y-58312870D01*
X101497478Y-58290740D01*
X101454908Y-58227029D01*
X101437970Y-58210091D01*
X101374260Y-58167521D01*
X101352127Y-58158354D01*
X101295997Y-58147189D01*
X101283921Y-58146000D01*
X101058326Y-58146000D01*
X101045450Y-58149450D01*
X101042000Y-58162326D01*
X101042000Y-58606674D01*
X100788000Y-58606674D01*
X100788000Y-58162327D01*
X100784549Y-58149451D01*
X100771674Y-58146001D01*
X100546074Y-58146001D01*
X100534012Y-58147188D01*
X100527685Y-58148447D01*
X100473366Y-58147111D01*
X100424833Y-58122679D01*
X100391405Y-58079843D01*
X100379500Y-58026828D01*
X100379500Y-57773682D01*
X100391405Y-57720665D01*
X100424835Y-57677829D01*
X100473370Y-57653398D01*
X100527686Y-57652064D01*
X100539933Y-57654500D01*
X101290066Y-57654499D01*
X101364301Y-57639734D01*
X101448484Y-57583484D01*
X101504734Y-57499301D01*
X101519500Y-57425067D01*
X101519499Y-56674934D01*
X101504734Y-56600699D01*
X101483178Y-56568439D01*
X101464664Y-56523742D01*
X101464664Y-56475358D01*
X101483180Y-56430657D01*
X101497479Y-56409257D01*
X101506645Y-56387127D01*
X101517810Y-56330997D01*
X101519000Y-56318921D01*
X101519000Y-56093326D01*
X101515549Y-56080450D01*
X101502674Y-56077000D01*
X100912000Y-56077000D01*
X100850000Y-56060387D01*
X100804613Y-56015000D01*
X100788000Y-55953000D01*
X100788000Y-55947000D01*
X100804613Y-55885000D01*
X100850000Y-55839613D01*
X100912000Y-55823000D01*
X101502673Y-55823000D01*
X101515548Y-55819549D01*
X101518999Y-55806674D01*
X101518999Y-55581074D01*
X101517811Y-55569012D01*
X101506645Y-55512870D01*
X101497478Y-55490740D01*
X101454908Y-55427029D01*
X101439560Y-55411681D01*
X101409310Y-55362318D01*
X101404768Y-55304602D01*
X101426923Y-55251115D01*
X101470946Y-55213515D01*
X101527241Y-55200000D01*
X103476000Y-55200000D01*
X103538000Y-55216613D01*
G37*
%TD.AperFunction*%
%TD*%
%TA.AperFunction,Conductor*%
%TO.N,+3V0*%
G36*
X118445409Y-102930273D02*
G01*
X119152716Y-103401810D01*
X119766222Y-103810815D01*
X119860024Y-103873349D01*
X119892654Y-103905168D01*
X119911583Y-103946627D01*
X120328142Y-105623437D01*
X120327864Y-105684329D01*
X120298632Y-105737746D01*
X120247497Y-105770807D01*
X120186789Y-105775540D01*
X120131148Y-105750804D01*
X120058901Y-105693988D01*
X120043698Y-105685211D01*
X119928954Y-105639275D01*
X119911892Y-105635136D01*
X119787746Y-105623282D01*
X119772362Y-105623740D01*
X119725135Y-105631104D01*
X119718640Y-105632477D01*
X119715463Y-105633328D01*
X119704919Y-105638816D01*
X119702346Y-105650425D01*
X119702346Y-106428589D01*
X119685733Y-106490589D01*
X119640346Y-106535976D01*
X119578346Y-106552589D01*
X119572346Y-106552589D01*
X119510346Y-106535976D01*
X119464959Y-106490589D01*
X119448346Y-106428589D01*
X119448346Y-105719169D01*
X119445794Y-105708226D01*
X119434565Y-105708594D01*
X119054690Y-105810381D01*
X119048381Y-105812439D01*
X119003803Y-105829674D01*
X118990243Y-105836974D01*
X118888662Y-105909308D01*
X118875953Y-105921425D01*
X118845373Y-105960312D01*
X118794837Y-105998434D01*
X118732069Y-106006644D01*
X118673428Y-105982803D01*
X118634196Y-105933124D01*
X118624475Y-105910778D01*
X118620378Y-105901359D01*
X118615726Y-105896274D01*
X118612755Y-105890057D01*
X118574608Y-105851221D01*
X118571614Y-105848063D01*
X118541815Y-105815494D01*
X118541813Y-105815492D01*
X118534881Y-105807916D01*
X118528830Y-105804617D01*
X118524001Y-105799701D01*
X118514815Y-105795108D01*
X118514814Y-105795107D01*
X118475316Y-105775357D01*
X118471425Y-105773325D01*
X118432693Y-105752212D01*
X118432692Y-105752211D01*
X118423676Y-105747297D01*
X118417939Y-105746321D01*
X118413515Y-105744458D01*
X118341787Y-105708594D01*
X118121513Y-105598456D01*
X118118379Y-105596611D01*
X118114938Y-105593305D01*
X118105622Y-105588978D01*
X118105619Y-105588976D01*
X118064092Y-105569688D01*
X118060875Y-105568137D01*
X118043822Y-105559611D01*
X118043821Y-105559610D01*
X118039236Y-105557318D01*
X118034895Y-105555983D01*
X118030420Y-105554049D01*
X118000069Y-105539952D01*
X118001096Y-105537740D01*
X117955883Y-105510215D01*
X117925176Y-105449667D01*
X117930955Y-105382024D01*
X117940149Y-105357782D01*
X117959307Y-105200000D01*
X117940149Y-105042218D01*
X117883787Y-104893605D01*
X117793498Y-104762799D01*
X117682118Y-104664124D01*
X117680144Y-104662375D01*
X117680141Y-104662373D01*
X117674529Y-104657401D01*
X117611577Y-104624361D01*
X117540432Y-104587021D01*
X117540429Y-104587019D01*
X117533793Y-104583537D01*
X117506698Y-104576858D01*
X117386752Y-104547294D01*
X117386747Y-104547293D01*
X117379471Y-104545500D01*
X117220529Y-104545500D01*
X117213253Y-104547293D01*
X117213247Y-104547294D01*
X117073489Y-104581742D01*
X117073487Y-104581742D01*
X117066207Y-104583537D01*
X117059573Y-104587018D01*
X117059567Y-104587021D01*
X116932110Y-104653916D01*
X116932106Y-104653918D01*
X116925471Y-104657401D01*
X116919862Y-104662370D01*
X116919855Y-104662375D01*
X116812115Y-104757826D01*
X116806502Y-104762799D01*
X116802247Y-104768963D01*
X116802242Y-104768969D01*
X116720476Y-104887428D01*
X116720473Y-104887432D01*
X116716213Y-104893605D01*
X116713553Y-104900616D01*
X116713551Y-104900622D01*
X116662511Y-105035203D01*
X116659851Y-105042218D01*
X116658947Y-105049658D01*
X116658946Y-105049665D01*
X116640693Y-105200000D01*
X116638913Y-105199783D01*
X116627586Y-105246076D01*
X116588721Y-105290394D01*
X116533783Y-105311758D01*
X116503059Y-105315802D01*
X116503046Y-105315804D01*
X116499032Y-105316333D01*
X116495114Y-105317382D01*
X116495108Y-105317384D01*
X116114142Y-105419463D01*
X116107597Y-105421027D01*
X116102037Y-105422197D01*
X116095255Y-105423625D01*
X116095252Y-105423625D01*
X116090234Y-105424682D01*
X116085454Y-105426550D01*
X116082231Y-105427513D01*
X116073934Y-105430237D01*
X115912662Y-105473450D01*
X115857261Y-105475465D01*
X115806519Y-105453137D01*
X115799265Y-105444618D01*
X115781733Y-105431166D01*
X115769423Y-105428437D01*
X115361033Y-105428437D01*
X115308629Y-105416820D01*
X115266045Y-105384145D01*
X115241259Y-105336534D01*
X115236367Y-105318279D01*
X115232141Y-105286182D01*
X115232141Y-105162111D01*
X115482141Y-105162111D01*
X115485591Y-105174986D01*
X115498467Y-105178437D01*
X115701750Y-105178437D01*
X115712692Y-105175885D01*
X115712324Y-105164656D01*
X115617621Y-104811220D01*
X115615014Y-104803540D01*
X115602410Y-104773111D01*
X115592682Y-104757079D01*
X115534009Y-104687155D01*
X115517641Y-104673420D01*
X115496280Y-104661088D01*
X115485128Y-104658100D01*
X115482141Y-104669251D01*
X115482141Y-105162111D01*
X115232141Y-105162111D01*
X115232141Y-104635304D01*
X115229589Y-104624361D01*
X115218360Y-104624729D01*
X115085895Y-104660223D01*
X115078213Y-104662831D01*
X115075092Y-104664124D01*
X115006290Y-104671707D01*
X114944143Y-104641229D01*
X114908016Y-104582188D01*
X114731094Y-103933475D01*
X114731077Y-103868293D01*
X114764124Y-103812104D01*
X114821103Y-103780442D01*
X118347006Y-102913036D01*
X118398019Y-102911306D01*
X118445409Y-102930273D01*
G37*
%TD.AperFunction*%
%TD*%
%TA.AperFunction,Conductor*%
%TO.N,+3V0*%
G36*
X112788759Y-110768487D02*
G01*
X112796017Y-110777009D01*
X112813551Y-110790463D01*
X112825861Y-110793193D01*
X113234251Y-110793193D01*
X113286655Y-110804810D01*
X113329239Y-110837485D01*
X113354025Y-110885096D01*
X113358917Y-110903351D01*
X113363143Y-110935448D01*
X113363143Y-111586326D01*
X113365694Y-111597268D01*
X113376923Y-111596900D01*
X113509388Y-111561406D01*
X113517068Y-111558799D01*
X113547497Y-111546195D01*
X113563529Y-111536467D01*
X113599644Y-111506163D01*
X113647256Y-111481377D01*
X113700880Y-111479036D01*
X113719684Y-111482351D01*
X113779146Y-111510575D01*
X113815788Y-111565255D01*
X114092714Y-112396033D01*
X114092715Y-112396035D01*
X114097642Y-112410815D01*
X116396038Y-111821482D01*
X116444299Y-111818834D01*
X116489910Y-111834841D01*
X116994145Y-112132798D01*
X117035601Y-112172861D01*
X117054460Y-112227340D01*
X117046646Y-112284458D01*
X117013849Y-112331870D01*
X116963157Y-112359328D01*
X116708763Y-112427493D01*
X116702459Y-112429550D01*
X116657875Y-112446786D01*
X116644320Y-112454083D01*
X116542733Y-112526422D01*
X116530030Y-112538535D01*
X116453625Y-112635691D01*
X116444848Y-112650894D01*
X116398912Y-112765638D01*
X116394773Y-112782700D01*
X116382919Y-112906846D01*
X116383377Y-112922230D01*
X116390741Y-112969457D01*
X116392114Y-112975952D01*
X116392965Y-112979129D01*
X116398453Y-112989673D01*
X116410062Y-112992247D01*
X117891646Y-112992247D01*
X117902588Y-112989695D01*
X117902220Y-112978467D01*
X117882425Y-112904591D01*
X117880962Y-112846471D01*
X117906150Y-112794073D01*
X117952452Y-112758914D01*
X118009691Y-112748723D01*
X118065280Y-112765741D01*
X118250990Y-112875479D01*
X118292265Y-112915260D01*
X118311237Y-112969356D01*
X118303849Y-113026204D01*
X118262511Y-113135203D01*
X118259851Y-113142218D01*
X118258947Y-113149658D01*
X118258946Y-113149665D01*
X118245381Y-113261390D01*
X118240693Y-113300000D01*
X118241597Y-113307445D01*
X118258946Y-113450334D01*
X118258947Y-113450339D01*
X118259851Y-113457782D01*
X118262510Y-113464795D01*
X118262511Y-113464796D01*
X118297504Y-113557065D01*
X118303356Y-113624324D01*
X118273103Y-113684679D01*
X118215715Y-113720240D01*
X118071291Y-113761619D01*
X118012993Y-113764042D01*
X117960041Y-113739534D01*
X117924160Y-113693522D01*
X117913294Y-113636194D01*
X117924927Y-113596880D01*
X117922308Y-113595832D01*
X117971539Y-113472855D01*
X117975678Y-113455793D01*
X117987532Y-113331647D01*
X117987074Y-113316263D01*
X117979710Y-113269036D01*
X117978337Y-113262541D01*
X117977486Y-113259364D01*
X117971998Y-113248820D01*
X117960390Y-113246247D01*
X116478806Y-113246247D01*
X116467863Y-113248798D01*
X116468231Y-113260027D01*
X116570018Y-113639902D01*
X116572076Y-113646211D01*
X116589311Y-113690789D01*
X116596611Y-113704349D01*
X116668945Y-113805930D01*
X116681061Y-113818637D01*
X116778216Y-113895041D01*
X116799569Y-113907369D01*
X116841331Y-113946863D01*
X116860798Y-114000945D01*
X116853788Y-114057994D01*
X116821805Y-114105754D01*
X116771723Y-114133961D01*
X116320326Y-114263292D01*
X116262066Y-114265722D01*
X116209136Y-114241254D01*
X116173242Y-114195300D01*
X116162322Y-114138020D01*
X116174484Y-114096703D01*
X116172308Y-114095832D01*
X116221539Y-113972855D01*
X116225678Y-113955793D01*
X116237532Y-113831647D01*
X116237074Y-113816263D01*
X116229710Y-113769036D01*
X116228337Y-113762541D01*
X116227486Y-113759364D01*
X116221998Y-113748820D01*
X116210390Y-113746247D01*
X114728806Y-113746247D01*
X114717863Y-113748798D01*
X114718231Y-113760027D01*
X114820018Y-114139902D01*
X114822076Y-114146211D01*
X114839311Y-114190789D01*
X114846611Y-114204349D01*
X114918945Y-114305930D01*
X114931061Y-114318637D01*
X115028216Y-114395041D01*
X115051100Y-114408253D01*
X115049501Y-114411021D01*
X115084124Y-114435890D01*
X115110703Y-114490884D01*
X115107803Y-114551895D01*
X115076127Y-114604120D01*
X115023361Y-114634887D01*
X113445962Y-115086831D01*
X113400790Y-115091136D01*
X113357093Y-115078902D01*
X111619278Y-114224390D01*
X111578713Y-114192472D01*
X111554658Y-114146802D01*
X111345779Y-113406846D01*
X114632919Y-113406846D01*
X114633377Y-113422230D01*
X114640741Y-113469457D01*
X114642114Y-113475952D01*
X114642965Y-113479129D01*
X114648453Y-113489673D01*
X114660062Y-113492247D01*
X115291900Y-113492247D01*
X115304775Y-113488796D01*
X115308226Y-113475921D01*
X115562226Y-113475921D01*
X115565676Y-113488796D01*
X115578552Y-113492247D01*
X116141646Y-113492247D01*
X116152588Y-113489695D01*
X116152220Y-113478466D01*
X116050433Y-113098591D01*
X116048375Y-113092282D01*
X116031140Y-113047704D01*
X116023840Y-113034144D01*
X115951506Y-112932563D01*
X115939390Y-112919856D01*
X115842235Y-112843452D01*
X115827032Y-112834675D01*
X115712285Y-112788737D01*
X115695227Y-112784600D01*
X115571084Y-112772745D01*
X115569797Y-112772783D01*
X115565157Y-112774694D01*
X115562226Y-112786886D01*
X115562226Y-113475921D01*
X115308226Y-113475921D01*
X115308226Y-112848123D01*
X115305674Y-112837180D01*
X115294445Y-112837548D01*
X114958773Y-112927491D01*
X114952451Y-112929553D01*
X114907875Y-112946786D01*
X114894320Y-112954083D01*
X114792733Y-113026422D01*
X114780030Y-113038535D01*
X114703625Y-113135691D01*
X114694848Y-113150894D01*
X114648912Y-113265638D01*
X114644773Y-113282700D01*
X114632919Y-113406846D01*
X111345779Y-113406846D01*
X110949540Y-112003166D01*
X110948633Y-111939188D01*
X110979742Y-111883275D01*
X111034583Y-111850315D01*
X111098551Y-111849083D01*
X111120529Y-111854500D01*
X111271971Y-111854500D01*
X111279471Y-111854500D01*
X111433793Y-111816463D01*
X111574529Y-111742599D01*
X111693498Y-111637201D01*
X111783787Y-111506395D01*
X111840149Y-111357782D01*
X111859307Y-111200000D01*
X111845160Y-111083489D01*
X111849609Y-111045744D01*
X112882591Y-111045744D01*
X112882959Y-111056973D01*
X112977662Y-111410409D01*
X112980269Y-111418089D01*
X112992873Y-111448518D01*
X113002601Y-111464550D01*
X113061274Y-111534474D01*
X113077642Y-111548209D01*
X113099003Y-111560541D01*
X113110155Y-111563529D01*
X113113143Y-111552379D01*
X113113143Y-111059519D01*
X113109692Y-111046643D01*
X113096817Y-111043193D01*
X112893534Y-111043193D01*
X112882591Y-111045744D01*
X111849609Y-111045744D01*
X111852008Y-111025390D01*
X111884731Y-110976895D01*
X111936045Y-110948800D01*
X112494827Y-110798498D01*
X112682625Y-110748177D01*
X112738018Y-110746163D01*
X112788759Y-110768487D01*
G37*
%TD.AperFunction*%
%TD*%
%TA.AperFunction,Conductor*%
%TO.N,+3V0*%
G36*
X89354474Y-95525259D02*
G01*
X89397600Y-95569365D01*
X93195355Y-102159587D01*
X93211918Y-102221575D01*
X93195280Y-102283543D01*
X93149896Y-102328900D01*
X93087918Y-102345500D01*
X93020529Y-102345500D01*
X93013253Y-102347293D01*
X93013247Y-102347294D01*
X92873489Y-102381742D01*
X92873487Y-102381742D01*
X92866207Y-102383537D01*
X92859573Y-102387018D01*
X92859567Y-102387021D01*
X92732110Y-102453916D01*
X92732106Y-102453918D01*
X92725471Y-102457401D01*
X92719862Y-102462370D01*
X92719855Y-102462375D01*
X92626028Y-102545500D01*
X92606502Y-102562799D01*
X92602247Y-102568963D01*
X92602242Y-102568969D01*
X92520472Y-102687434D01*
X92520470Y-102687437D01*
X92516213Y-102693605D01*
X92513556Y-102700608D01*
X92513554Y-102700614D01*
X92497922Y-102741832D01*
X92477105Y-102777403D01*
X92445779Y-102804187D01*
X92239711Y-102927829D01*
X92175913Y-102945500D01*
X92020529Y-102945500D01*
X92013253Y-102947293D01*
X92013247Y-102947294D01*
X91873489Y-102981742D01*
X91873487Y-102981742D01*
X91866207Y-102983537D01*
X91859570Y-102987020D01*
X91859563Y-102987023D01*
X91783048Y-103027181D01*
X91715445Y-103040982D01*
X91650931Y-103016515D01*
X91609481Y-102961355D01*
X91605979Y-102952122D01*
X91583787Y-102893605D01*
X91522066Y-102804187D01*
X91497757Y-102768969D01*
X91497756Y-102768968D01*
X91493498Y-102762799D01*
X91408344Y-102687359D01*
X91375080Y-102639682D01*
X91367201Y-102582081D01*
X91386442Y-102527220D01*
X91428573Y-102487159D01*
X91565544Y-102408079D01*
X91571106Y-102404457D01*
X91609707Y-102376271D01*
X91620912Y-102365715D01*
X91700315Y-102269547D01*
X91709452Y-102254557D01*
X91758104Y-102140943D01*
X91762650Y-102123979D01*
X91769338Y-102068042D01*
X91767103Y-102054424D01*
X91753846Y-102050589D01*
X90180145Y-102050589D01*
X90168994Y-102053576D01*
X90171982Y-102064728D01*
X90445140Y-102537851D01*
X90448762Y-102543414D01*
X90476948Y-102582015D01*
X90492826Y-102598868D01*
X90491870Y-102599768D01*
X90524659Y-102646376D01*
X90529762Y-102711750D01*
X90505113Y-102761840D01*
X90506502Y-102762799D01*
X90416213Y-102893605D01*
X90415145Y-102892868D01*
X90380191Y-102931730D01*
X90322535Y-102952122D01*
X90262145Y-102942477D01*
X90213710Y-102905141D01*
X90189010Y-102849196D01*
X90187837Y-102842218D01*
X90174923Y-102765422D01*
X90151079Y-102711523D01*
X89866522Y-102218657D01*
X89831766Y-102171056D01*
X89817875Y-102159587D01*
X89729507Y-102086625D01*
X89722669Y-102080979D01*
X89667741Y-102057457D01*
X89600770Y-102028778D01*
X89600768Y-102028777D01*
X89592615Y-102025286D01*
X89583811Y-102024233D01*
X89583806Y-102024232D01*
X89460945Y-102009543D01*
X89452138Y-102008490D01*
X89443397Y-102009959D01*
X89443390Y-102009960D01*
X89320269Y-102030664D01*
X89320265Y-102030665D01*
X89312618Y-102031951D01*
X89305523Y-102035089D01*
X89305522Y-102035090D01*
X89261760Y-102054449D01*
X89261749Y-102054454D01*
X89258719Y-102055795D01*
X89255850Y-102057451D01*
X89255839Y-102057457D01*
X88747088Y-102351185D01*
X88747077Y-102351191D01*
X88744202Y-102352852D01*
X88741530Y-102354802D01*
X88741510Y-102354816D01*
X88702867Y-102383033D01*
X88702864Y-102383035D01*
X88696602Y-102387608D01*
X88691669Y-102393581D01*
X88691663Y-102393588D01*
X88612169Y-102489867D01*
X88612166Y-102489871D01*
X88606524Y-102496705D01*
X88603035Y-102504850D01*
X88603032Y-102504857D01*
X88554322Y-102618605D01*
X88554320Y-102618612D01*
X88550831Y-102626760D01*
X88549778Y-102635559D01*
X88549777Y-102635567D01*
X88540333Y-102714564D01*
X88534036Y-102767237D01*
X88535505Y-102775978D01*
X88535506Y-102775984D01*
X88556210Y-102899104D01*
X88557497Y-102906756D01*
X88581341Y-102960655D01*
X88583001Y-102963531D01*
X88583003Y-102963534D01*
X88856475Y-103437201D01*
X88865898Y-103453521D01*
X88900654Y-103501122D01*
X89009751Y-103591199D01*
X89139805Y-103646892D01*
X89280282Y-103663688D01*
X89419802Y-103640227D01*
X89473701Y-103616383D01*
X89515323Y-103592352D01*
X89577078Y-103575738D01*
X89638902Y-103592109D01*
X89684345Y-103637110D01*
X90013110Y-104198917D01*
X90026766Y-104233034D01*
X90029822Y-104269655D01*
X90026368Y-104322338D01*
X90026368Y-104322342D01*
X90025570Y-104334527D01*
X90049899Y-104406198D01*
X90052945Y-104411473D01*
X90052946Y-104411476D01*
X90260812Y-104771510D01*
X90399966Y-105012531D01*
X90403982Y-105017110D01*
X90441818Y-105060255D01*
X90441819Y-105060256D01*
X90449871Y-105069437D01*
X90540676Y-105114217D01*
X90641706Y-105120839D01*
X90713377Y-105096510D01*
X91103203Y-104871443D01*
X91160110Y-104821538D01*
X91161471Y-104823090D01*
X91180855Y-104806088D01*
X91205286Y-104797794D01*
X91204623Y-104795839D01*
X91276294Y-104771510D01*
X91666120Y-104546443D01*
X91723027Y-104496538D01*
X91724388Y-104498090D01*
X91743772Y-104481088D01*
X91768203Y-104472794D01*
X91767540Y-104470839D01*
X91839211Y-104446510D01*
X92150814Y-104266604D01*
X92183134Y-104253597D01*
X92333793Y-104216463D01*
X92474529Y-104142599D01*
X92593498Y-104037201D01*
X92683787Y-103906395D01*
X92702078Y-103858163D01*
X92722894Y-103822593D01*
X92754217Y-103795811D01*
X92960285Y-103672171D01*
X93024083Y-103654500D01*
X93171971Y-103654500D01*
X93179471Y-103654500D01*
X93333793Y-103616463D01*
X93474529Y-103542599D01*
X93593498Y-103437201D01*
X93666277Y-103331762D01*
X93712943Y-103291259D01*
X93773367Y-103278308D01*
X93832538Y-103296127D01*
X93875761Y-103340292D01*
X96036432Y-107089691D01*
X96052989Y-107152794D01*
X96035224Y-107215568D01*
X95988054Y-107260636D01*
X94169918Y-108245459D01*
X94111671Y-108260424D01*
X94053233Y-108246224D01*
X93940432Y-108187021D01*
X93940429Y-108187019D01*
X93933793Y-108183537D01*
X93926514Y-108181743D01*
X93926512Y-108181742D01*
X93860080Y-108165368D01*
X93804085Y-108134617D01*
X93770828Y-108080074D01*
X93769137Y-108016213D01*
X93776405Y-107985729D01*
X93776405Y-107900717D01*
X94030405Y-107900717D01*
X94033392Y-107911867D01*
X94044544Y-107908879D01*
X94565544Y-107608079D01*
X94571107Y-107604457D01*
X94609708Y-107576271D01*
X94620915Y-107565712D01*
X94700314Y-107469548D01*
X94709451Y-107454558D01*
X94758104Y-107340943D01*
X94762650Y-107323979D01*
X94766349Y-107293042D01*
X94764114Y-107279424D01*
X94750857Y-107275589D01*
X94046731Y-107275589D01*
X94033855Y-107279039D01*
X94030405Y-107291915D01*
X94030405Y-107900717D01*
X93776405Y-107900717D01*
X93776405Y-107005263D01*
X94030405Y-107005263D01*
X94033855Y-107018138D01*
X94046731Y-107021589D01*
X94725528Y-107021589D01*
X94736668Y-107018763D01*
X94734745Y-107007431D01*
X94732460Y-107002265D01*
X94729456Y-106996351D01*
X94448271Y-106509326D01*
X94444649Y-106503763D01*
X94416463Y-106465162D01*
X94405907Y-106453957D01*
X94309740Y-106374555D01*
X94294749Y-106365418D01*
X94181134Y-106316764D01*
X94164171Y-106312219D01*
X94041455Y-106297548D01*
X94037236Y-106297648D01*
X94033296Y-106299317D01*
X94030405Y-106311449D01*
X94030405Y-107005263D01*
X93776405Y-107005263D01*
X93776405Y-106396461D01*
X93773417Y-106385310D01*
X93762265Y-106388298D01*
X93241265Y-106689098D01*
X93235702Y-106692720D01*
X93197101Y-106720906D01*
X93185894Y-106731465D01*
X93106495Y-106827629D01*
X93097359Y-106842617D01*
X93047170Y-106959818D01*
X93004414Y-107012503D01*
X92940329Y-107034798D01*
X92874105Y-107020027D01*
X92825570Y-106972612D01*
X92818245Y-106959818D01*
X92417812Y-106260371D01*
X92401655Y-106206311D01*
X92411125Y-106150686D01*
X92444261Y-106105017D01*
X92494204Y-106078759D01*
X92550610Y-106077349D01*
X92564482Y-106080226D01*
X92567375Y-106069068D01*
X92567375Y-106056485D01*
X92821375Y-106056485D01*
X92824362Y-106067635D01*
X92835514Y-106064647D01*
X93173465Y-105869530D01*
X93183325Y-105862465D01*
X93226358Y-105824727D01*
X93240941Y-105805723D01*
X93274829Y-105737003D01*
X93281030Y-105713859D01*
X93286041Y-105637408D01*
X93283139Y-105615365D01*
X93278139Y-105606919D01*
X93266935Y-105604563D01*
X92837701Y-105604563D01*
X92824825Y-105608013D01*
X92821375Y-105620889D01*
X92821375Y-106056485D01*
X92567375Y-106056485D01*
X92567375Y-105334237D01*
X92821375Y-105334237D01*
X92824825Y-105347112D01*
X92837701Y-105350563D01*
X93128959Y-105350563D01*
X93140109Y-105347575D01*
X93137121Y-105336423D01*
X92915589Y-104952719D01*
X92908524Y-104942859D01*
X92870786Y-104899826D01*
X92851783Y-104885244D01*
X92835554Y-104877241D01*
X92824267Y-104874900D01*
X92821375Y-104886058D01*
X92821375Y-105334237D01*
X92567375Y-105334237D01*
X92567375Y-104898641D01*
X92564387Y-104887490D01*
X92553235Y-104890478D01*
X92215284Y-105085595D01*
X92205424Y-105092660D01*
X92162391Y-105130398D01*
X92147808Y-105149402D01*
X92113920Y-105218122D01*
X92107718Y-105241266D01*
X92106550Y-105259091D01*
X92086760Y-105318590D01*
X92040389Y-105360800D01*
X91979296Y-105374926D01*
X91919103Y-105357356D01*
X91875205Y-105312585D01*
X91856458Y-105279839D01*
X91842283Y-105288189D01*
X91842280Y-105288191D01*
X90258569Y-106221254D01*
X90203544Y-106238164D01*
X90146813Y-106228406D01*
X90061231Y-106191758D01*
X90053079Y-106188267D01*
X90044275Y-106187214D01*
X90044270Y-106187213D01*
X89921409Y-106172524D01*
X89912602Y-106171471D01*
X89903854Y-106172941D01*
X89903852Y-106172942D01*
X89883460Y-106176371D01*
X89824018Y-106171835D01*
X89773562Y-106140083D01*
X89743755Y-106088455D01*
X89741487Y-106028883D01*
X89767280Y-105975137D01*
X89780283Y-105959388D01*
X89789420Y-105944397D01*
X89838074Y-105830782D01*
X89842619Y-105813819D01*
X89857290Y-105691103D01*
X89857190Y-105686884D01*
X89855521Y-105682944D01*
X89843390Y-105680053D01*
X89003250Y-105680053D01*
X88941250Y-105663440D01*
X88895863Y-105618053D01*
X88879250Y-105556053D01*
X88879250Y-105409727D01*
X89133250Y-105409727D01*
X89136700Y-105422602D01*
X89149576Y-105426053D01*
X89758378Y-105426053D01*
X89769528Y-105423065D01*
X89766540Y-105411913D01*
X89465740Y-104890913D01*
X89462118Y-104885350D01*
X89433932Y-104846749D01*
X89423373Y-104835542D01*
X89327209Y-104756143D01*
X89312219Y-104747006D01*
X89198604Y-104698353D01*
X89181640Y-104693807D01*
X89150703Y-104690108D01*
X89137085Y-104692343D01*
X89133250Y-104705601D01*
X89133250Y-105409727D01*
X88879250Y-105409727D01*
X88879250Y-104730930D01*
X88876424Y-104719789D01*
X88865092Y-104721712D01*
X88859926Y-104723997D01*
X88854012Y-104727001D01*
X88366987Y-105008186D01*
X88361424Y-105011808D01*
X88322823Y-105039994D01*
X88311618Y-105050550D01*
X88232216Y-105146717D01*
X88223079Y-105161708D01*
X88174424Y-105275326D01*
X88168454Y-105297608D01*
X88139278Y-105350176D01*
X88088804Y-105382841D01*
X88028897Y-105387924D01*
X87578552Y-105315145D01*
X87567984Y-105312069D01*
X87567815Y-105312758D01*
X87557836Y-105310302D01*
X87548403Y-105306240D01*
X87538161Y-105305460D01*
X87538160Y-105305460D01*
X87506429Y-105303044D01*
X87496076Y-105301816D01*
X87491032Y-105301001D01*
X87491019Y-105300999D01*
X87485962Y-105300183D01*
X87480829Y-105300209D01*
X87480827Y-105300209D01*
X87474926Y-105300239D01*
X87464904Y-105299884D01*
X87422113Y-105296628D01*
X87412178Y-105299214D01*
X87406802Y-105299696D01*
X87401458Y-105300616D01*
X87391186Y-105300669D01*
X87383650Y-105303299D01*
X87347253Y-105303783D01*
X87310188Y-105292278D01*
X87225589Y-105250559D01*
X87213391Y-105249759D01*
X87136749Y-105244735D01*
X87136744Y-105244735D01*
X87124560Y-105243937D01*
X87112999Y-105247861D01*
X87112994Y-105247862D01*
X87068186Y-105263073D01*
X87052888Y-105268266D01*
X87047620Y-105271306D01*
X87047612Y-105271311D01*
X86711639Y-105465286D01*
X86711632Y-105465290D01*
X86706363Y-105468333D01*
X86701790Y-105472343D01*
X86701782Y-105472349D01*
X86658637Y-105510186D01*
X86658635Y-105510188D01*
X86649456Y-105518238D01*
X86644057Y-105529184D01*
X86644053Y-105529191D01*
X86637141Y-105543209D01*
X86601415Y-105586741D01*
X86550120Y-105609982D01*
X86493835Y-105608140D01*
X86479457Y-105604287D01*
X86465318Y-105608076D01*
X86149018Y-105790693D01*
X86139153Y-105797762D01*
X86131679Y-105804316D01*
X86069263Y-105833564D01*
X86008812Y-105825961D01*
X86008683Y-105826487D01*
X86004187Y-105825379D01*
X86004179Y-105825378D01*
X85998709Y-105824031D01*
X85998707Y-105824030D01*
X85966846Y-105816185D01*
X85957282Y-105813419D01*
X85877527Y-105786834D01*
X85829088Y-105756908D01*
X85799129Y-105708490D01*
X85793967Y-105651787D01*
X85814688Y-105598759D01*
X85840245Y-105561734D01*
X85896607Y-105413121D01*
X85915765Y-105255339D01*
X85896607Y-105097557D01*
X85840245Y-104948944D01*
X85749956Y-104818138D01*
X85669665Y-104747006D01*
X85636602Y-104717714D01*
X85636599Y-104717712D01*
X85630987Y-104712740D01*
X85592124Y-104692343D01*
X85496890Y-104642360D01*
X85496887Y-104642358D01*
X85490251Y-104638876D01*
X85442742Y-104627166D01*
X85343210Y-104602633D01*
X85343205Y-104602632D01*
X85335929Y-104600839D01*
X85176987Y-104600839D01*
X85169711Y-104602632D01*
X85169705Y-104602633D01*
X85029947Y-104637081D01*
X85029945Y-104637081D01*
X85022665Y-104638876D01*
X85016028Y-104642359D01*
X85016021Y-104642362D01*
X84955856Y-104673939D01*
X84895296Y-104688107D01*
X84835475Y-104671089D01*
X84791442Y-104627166D01*
X83764712Y-102887428D01*
X83351285Y-102186899D01*
X83334450Y-102133511D01*
X83342811Y-102078158D01*
X83374662Y-102032124D01*
X83652950Y-101779135D01*
X90124073Y-101779135D01*
X90126308Y-101792753D01*
X90139566Y-101796589D01*
X90803380Y-101796589D01*
X90816255Y-101793138D01*
X90819706Y-101780263D01*
X91073706Y-101780263D01*
X91077156Y-101793138D01*
X91090032Y-101796589D01*
X91713267Y-101796589D01*
X91724417Y-101793601D01*
X91721429Y-101782449D01*
X91448271Y-101309326D01*
X91444649Y-101303763D01*
X91416463Y-101265162D01*
X91405907Y-101253957D01*
X91309740Y-101174555D01*
X91294749Y-101165418D01*
X91181134Y-101116764D01*
X91164171Y-101112219D01*
X91091160Y-101103490D01*
X91077541Y-101105725D01*
X91073706Y-101118983D01*
X91073706Y-101780263D01*
X90819706Y-101780263D01*
X90819706Y-101171461D01*
X90816718Y-101160310D01*
X90805566Y-101163298D01*
X90327868Y-101439098D01*
X90322305Y-101442720D01*
X90283704Y-101470906D01*
X90272499Y-101481462D01*
X90193096Y-101577630D01*
X90183959Y-101592620D01*
X90135307Y-101706234D01*
X90130761Y-101723198D01*
X90124073Y-101779135D01*
X83652950Y-101779135D01*
X84400000Y-101100000D01*
X86100000Y-99400000D01*
X87700000Y-97700000D01*
X89188372Y-95560464D01*
X89235086Y-95520181D01*
X89295432Y-95507390D01*
X89354474Y-95525259D01*
G37*
%TD.AperFunction*%
%TA.AperFunction,Conductor*%
G36*
X86665457Y-105889575D02*
G01*
X86710844Y-105934962D01*
X86716844Y-105945354D01*
X86733458Y-106007355D01*
X86733458Y-106198161D01*
X86716845Y-106260161D01*
X86671458Y-106305548D01*
X86609458Y-106322161D01*
X86603458Y-106322161D01*
X86541458Y-106305548D01*
X86496071Y-106260161D01*
X86479458Y-106198161D01*
X86479458Y-105996963D01*
X86496071Y-105934963D01*
X86541457Y-105889576D01*
X86603457Y-105872963D01*
X86665457Y-105889575D01*
G37*
%TD.AperFunction*%
%TD*%
%TA.AperFunction,Conductor*%
%TO.N,VOUT*%
G36*
X98528334Y-55213515D02*
G01*
X98572357Y-55251115D01*
X98594512Y-55304602D01*
X98589970Y-55362318D01*
X98560391Y-55410585D01*
X98551516Y-55416516D01*
X98544733Y-55426666D01*
X98544731Y-55426669D01*
X98502050Y-55490545D01*
X98502048Y-55490548D01*
X98495266Y-55500699D01*
X98492883Y-55512674D01*
X98492883Y-55512677D01*
X98481689Y-55568952D01*
X98481688Y-55568958D01*
X98480500Y-55574933D01*
X98480500Y-55581027D01*
X98480500Y-55581028D01*
X98480500Y-56318976D01*
X98480500Y-56318986D01*
X98480501Y-56325066D01*
X98481687Y-56331030D01*
X98481688Y-56331037D01*
X98492883Y-56387324D01*
X98492884Y-56387327D01*
X98495266Y-56399301D01*
X98502048Y-56409451D01*
X98502050Y-56409455D01*
X98516819Y-56431557D01*
X98535335Y-56476256D01*
X98535336Y-56524638D01*
X98516821Y-56569338D01*
X98502522Y-56590737D01*
X98493354Y-56612872D01*
X98482189Y-56669002D01*
X98481000Y-56681079D01*
X98481000Y-56906674D01*
X98484450Y-56919549D01*
X98497326Y-56923000D01*
X99088000Y-56923000D01*
X99150000Y-56939613D01*
X99195387Y-56985000D01*
X99212000Y-57047000D01*
X99212000Y-57637673D01*
X99215450Y-57650548D01*
X99228326Y-57653999D01*
X99453926Y-57653999D01*
X99465987Y-57652811D01*
X99472315Y-57651553D01*
X99526634Y-57652889D01*
X99575167Y-57677321D01*
X99608595Y-57720157D01*
X99620500Y-57773172D01*
X99620500Y-58026318D01*
X99608595Y-58079335D01*
X99575165Y-58122171D01*
X99526630Y-58146602D01*
X99472313Y-58147935D01*
X99460067Y-58145500D01*
X99453971Y-58145500D01*
X98716023Y-58145500D01*
X98716012Y-58145500D01*
X98709934Y-58145501D01*
X98703970Y-58146687D01*
X98703962Y-58146688D01*
X98647675Y-58157883D01*
X98647670Y-58157884D01*
X98635699Y-58160266D01*
X98625548Y-58167048D01*
X98625545Y-58167050D01*
X98561669Y-58209731D01*
X98561666Y-58209733D01*
X98551516Y-58216516D01*
X98544733Y-58226666D01*
X98544731Y-58226669D01*
X98502050Y-58290545D01*
X98502048Y-58290548D01*
X98495266Y-58300699D01*
X98492883Y-58312674D01*
X98492883Y-58312677D01*
X98481689Y-58368952D01*
X98481688Y-58368958D01*
X98480500Y-58374933D01*
X98480500Y-58381027D01*
X98480500Y-58381028D01*
X98480500Y-59118976D01*
X98480500Y-59118986D01*
X98480501Y-59125066D01*
X98481687Y-59131030D01*
X98481688Y-59131037D01*
X98492883Y-59187324D01*
X98492884Y-59187327D01*
X98495266Y-59199301D01*
X98502048Y-59209451D01*
X98502050Y-59209455D01*
X98516819Y-59231557D01*
X98535335Y-59276256D01*
X98535336Y-59324638D01*
X98516821Y-59369338D01*
X98502522Y-59390737D01*
X98493354Y-59412872D01*
X98482189Y-59469002D01*
X98481000Y-59481079D01*
X98481000Y-59706674D01*
X98484450Y-59719549D01*
X98497326Y-59723000D01*
X99088000Y-59723000D01*
X99150000Y-59739613D01*
X99195387Y-59785000D01*
X99212000Y-59847000D01*
X99212000Y-60437673D01*
X99215450Y-60450548D01*
X99228326Y-60453999D01*
X99453926Y-60453999D01*
X99465987Y-60452811D01*
X99472315Y-60451553D01*
X99526634Y-60452889D01*
X99575167Y-60477321D01*
X99608595Y-60520157D01*
X99620500Y-60573172D01*
X99620500Y-60791443D01*
X99611060Y-60838898D01*
X99584178Y-60879127D01*
X99553548Y-60909755D01*
X99507648Y-60938821D01*
X99460067Y-60944693D01*
X99460067Y-60945500D01*
X98716023Y-60945500D01*
X98716012Y-60945500D01*
X98709934Y-60945501D01*
X98703970Y-60946687D01*
X98703962Y-60946688D01*
X98647675Y-60957883D01*
X98647670Y-60957884D01*
X98635699Y-60960266D01*
X98625548Y-60967048D01*
X98625545Y-60967050D01*
X98561669Y-61009731D01*
X98561666Y-61009733D01*
X98551516Y-61016516D01*
X98544733Y-61026666D01*
X98544731Y-61026669D01*
X98502050Y-61090545D01*
X98502048Y-61090548D01*
X98495266Y-61100699D01*
X98492883Y-61112674D01*
X98492883Y-61112677D01*
X98481689Y-61168952D01*
X98481688Y-61168958D01*
X98480500Y-61174933D01*
X98480500Y-61181027D01*
X98480500Y-61181028D01*
X98480500Y-61918976D01*
X98480500Y-61918986D01*
X98480501Y-61925066D01*
X98481687Y-61931030D01*
X98481688Y-61931037D01*
X98492883Y-61987324D01*
X98492884Y-61987327D01*
X98495266Y-61999301D01*
X98502048Y-62009451D01*
X98502050Y-62009455D01*
X98516819Y-62031557D01*
X98535335Y-62076256D01*
X98535336Y-62124638D01*
X98516821Y-62169338D01*
X98502522Y-62190737D01*
X98493354Y-62212872D01*
X98482189Y-62269002D01*
X98481000Y-62281079D01*
X98481000Y-62506674D01*
X98484450Y-62519549D01*
X98497326Y-62523000D01*
X99088000Y-62523000D01*
X99150000Y-62539613D01*
X99195387Y-62585000D01*
X99212000Y-62647000D01*
X99212000Y-63237673D01*
X99215450Y-63250548D01*
X99228326Y-63253999D01*
X99453926Y-63253999D01*
X99465987Y-63252811D01*
X99472315Y-63251553D01*
X99526634Y-63252889D01*
X99575167Y-63277321D01*
X99608595Y-63320157D01*
X99620500Y-63373172D01*
X99620500Y-63626318D01*
X99608595Y-63679335D01*
X99575165Y-63722171D01*
X99526630Y-63746602D01*
X99472313Y-63747935D01*
X99460067Y-63745500D01*
X99453971Y-63745500D01*
X98716023Y-63745500D01*
X98716012Y-63745500D01*
X98709934Y-63745501D01*
X98703970Y-63746687D01*
X98703962Y-63746688D01*
X98647675Y-63757883D01*
X98647670Y-63757884D01*
X98635699Y-63760266D01*
X98625548Y-63767048D01*
X98625545Y-63767050D01*
X98561669Y-63809731D01*
X98561666Y-63809733D01*
X98551516Y-63816516D01*
X98544733Y-63826666D01*
X98544731Y-63826669D01*
X98502050Y-63890545D01*
X98502048Y-63890548D01*
X98495266Y-63900699D01*
X98492883Y-63912674D01*
X98492883Y-63912677D01*
X98481689Y-63968952D01*
X98481688Y-63968958D01*
X98480500Y-63974933D01*
X98480500Y-63981027D01*
X98480500Y-63981028D01*
X98480500Y-64718976D01*
X98480500Y-64718986D01*
X98480501Y-64725066D01*
X98481687Y-64731030D01*
X98481688Y-64731037D01*
X98492883Y-64787324D01*
X98492884Y-64787327D01*
X98495266Y-64799301D01*
X98502048Y-64809451D01*
X98502050Y-64809455D01*
X98516819Y-64831557D01*
X98535335Y-64876256D01*
X98535336Y-64924638D01*
X98516821Y-64969338D01*
X98502522Y-64990737D01*
X98493354Y-65012872D01*
X98482189Y-65069002D01*
X98481000Y-65081079D01*
X98481000Y-65306674D01*
X98484450Y-65319549D01*
X98497326Y-65323000D01*
X99088000Y-65323000D01*
X99150000Y-65339613D01*
X99195387Y-65385000D01*
X99212000Y-65447000D01*
X99212000Y-66037673D01*
X99215450Y-66050548D01*
X99228326Y-66053999D01*
X99453926Y-66053999D01*
X99465987Y-66052811D01*
X99472315Y-66051553D01*
X99526634Y-66052889D01*
X99575167Y-66077321D01*
X99608595Y-66120157D01*
X99620500Y-66173172D01*
X99620500Y-66291444D01*
X99611061Y-66338897D01*
X99584183Y-66379122D01*
X99454121Y-66509183D01*
X99413896Y-66536061D01*
X99366443Y-66545500D01*
X98716023Y-66545500D01*
X98716012Y-66545500D01*
X98709934Y-66545501D01*
X98703970Y-66546687D01*
X98703962Y-66546688D01*
X98647675Y-66557883D01*
X98647670Y-66557884D01*
X98635699Y-66560266D01*
X98625548Y-66567048D01*
X98625545Y-66567050D01*
X98561669Y-66609731D01*
X98561666Y-66609733D01*
X98551516Y-66616516D01*
X98544733Y-66626666D01*
X98544731Y-66626669D01*
X98502050Y-66690545D01*
X98502048Y-66690548D01*
X98495266Y-66700699D01*
X98492883Y-66712674D01*
X98492883Y-66712677D01*
X98481689Y-66768952D01*
X98481688Y-66768958D01*
X98480500Y-66774933D01*
X98480500Y-66781027D01*
X98480500Y-66781028D01*
X98480500Y-67518976D01*
X98480500Y-67518986D01*
X98480501Y-67525066D01*
X98481687Y-67531030D01*
X98481688Y-67531037D01*
X98492883Y-67587324D01*
X98492884Y-67587327D01*
X98495266Y-67599301D01*
X98502048Y-67609451D01*
X98502050Y-67609455D01*
X98516819Y-67631557D01*
X98535335Y-67676256D01*
X98535336Y-67724638D01*
X98516821Y-67769338D01*
X98502522Y-67790737D01*
X98493354Y-67812872D01*
X98482189Y-67869002D01*
X98481000Y-67881079D01*
X98481000Y-68106674D01*
X98484450Y-68119549D01*
X98497326Y-68123000D01*
X99088000Y-68123000D01*
X99150000Y-68139613D01*
X99195387Y-68185000D01*
X99212000Y-68247000D01*
X99212000Y-68837673D01*
X99215450Y-68850548D01*
X99228326Y-68853999D01*
X99453926Y-68853999D01*
X99465987Y-68852811D01*
X99472315Y-68851553D01*
X99526634Y-68852889D01*
X99575167Y-68877321D01*
X99608595Y-68920157D01*
X99620500Y-68973172D01*
X99620500Y-69226318D01*
X99608595Y-69279335D01*
X99575165Y-69322171D01*
X99526630Y-69346602D01*
X99472313Y-69347935D01*
X99460067Y-69345500D01*
X99453971Y-69345500D01*
X98716023Y-69345500D01*
X98716012Y-69345500D01*
X98709934Y-69345501D01*
X98703970Y-69346687D01*
X98703962Y-69346688D01*
X98647675Y-69357883D01*
X98647670Y-69357884D01*
X98635699Y-69360266D01*
X98625548Y-69367048D01*
X98625545Y-69367050D01*
X98561669Y-69409731D01*
X98561666Y-69409733D01*
X98551516Y-69416516D01*
X98544733Y-69426666D01*
X98544731Y-69426669D01*
X98502050Y-69490545D01*
X98502048Y-69490548D01*
X98495266Y-69500699D01*
X98492883Y-69512674D01*
X98492883Y-69512677D01*
X98481689Y-69568952D01*
X98481688Y-69568958D01*
X98480500Y-69574933D01*
X98480500Y-69581027D01*
X98480500Y-69581028D01*
X98480500Y-70318976D01*
X98480500Y-70318986D01*
X98480501Y-70325066D01*
X98481687Y-70331030D01*
X98481688Y-70331037D01*
X98492883Y-70387324D01*
X98492884Y-70387327D01*
X98495266Y-70399301D01*
X98502048Y-70409451D01*
X98502050Y-70409455D01*
X98516819Y-70431557D01*
X98535335Y-70476256D01*
X98535336Y-70524638D01*
X98516821Y-70569338D01*
X98502522Y-70590737D01*
X98493354Y-70612872D01*
X98482189Y-70669002D01*
X98481000Y-70681079D01*
X98481000Y-70906674D01*
X98484450Y-70919549D01*
X98497326Y-70923000D01*
X99088000Y-70923000D01*
X99150000Y-70939613D01*
X99195387Y-70985000D01*
X99212000Y-71047000D01*
X99212000Y-71637673D01*
X99215450Y-71650548D01*
X99228326Y-71653999D01*
X99453926Y-71653999D01*
X99465987Y-71652811D01*
X99472315Y-71651553D01*
X99526634Y-71652889D01*
X99575167Y-71677321D01*
X99608595Y-71720157D01*
X99620500Y-71773172D01*
X99620500Y-72026318D01*
X99608595Y-72079335D01*
X99575165Y-72122171D01*
X99526630Y-72146602D01*
X99472313Y-72147935D01*
X99460067Y-72145500D01*
X99453971Y-72145500D01*
X98716023Y-72145500D01*
X98716012Y-72145500D01*
X98709934Y-72145501D01*
X98703970Y-72146687D01*
X98703962Y-72146688D01*
X98647675Y-72157883D01*
X98647670Y-72157884D01*
X98635699Y-72160266D01*
X98625548Y-72167048D01*
X98625545Y-72167050D01*
X98561669Y-72209731D01*
X98561666Y-72209733D01*
X98551516Y-72216516D01*
X98544733Y-72226666D01*
X98544731Y-72226669D01*
X98502050Y-72290545D01*
X98502048Y-72290548D01*
X98495266Y-72300699D01*
X98492883Y-72312674D01*
X98492883Y-72312677D01*
X98481689Y-72368952D01*
X98481688Y-72368958D01*
X98480500Y-72374933D01*
X98480500Y-72381027D01*
X98480500Y-72381028D01*
X98480500Y-73118976D01*
X98480500Y-73118986D01*
X98480501Y-73125066D01*
X98481687Y-73131030D01*
X98481688Y-73131037D01*
X98492883Y-73187324D01*
X98492884Y-73187327D01*
X98495266Y-73199301D01*
X98502048Y-73209451D01*
X98502050Y-73209455D01*
X98516819Y-73231557D01*
X98535335Y-73276256D01*
X98535336Y-73324638D01*
X98516821Y-73369338D01*
X98502522Y-73390737D01*
X98493354Y-73412872D01*
X98482189Y-73469002D01*
X98481000Y-73481079D01*
X98481000Y-73706674D01*
X98484450Y-73719549D01*
X98497326Y-73723000D01*
X99088000Y-73723000D01*
X99150000Y-73739613D01*
X99195387Y-73785000D01*
X99212000Y-73847000D01*
X99212000Y-74437673D01*
X99215450Y-74450548D01*
X99228326Y-74453999D01*
X99453926Y-74453999D01*
X99465987Y-74452811D01*
X99472315Y-74451553D01*
X99526634Y-74452889D01*
X99575167Y-74477321D01*
X99608595Y-74520157D01*
X99620500Y-74573172D01*
X99620500Y-74791443D01*
X99611060Y-74838898D01*
X99584178Y-74879127D01*
X99553548Y-74909755D01*
X99507648Y-74938821D01*
X99460067Y-74944693D01*
X99460067Y-74945500D01*
X98716023Y-74945500D01*
X98716012Y-74945500D01*
X98709934Y-74945501D01*
X98703970Y-74946687D01*
X98703962Y-74946688D01*
X98647675Y-74957883D01*
X98647670Y-74957884D01*
X98635699Y-74960266D01*
X98625548Y-74967048D01*
X98625545Y-74967050D01*
X98561669Y-75009731D01*
X98561666Y-75009733D01*
X98551516Y-75016516D01*
X98544733Y-75026666D01*
X98544731Y-75026669D01*
X98502050Y-75090545D01*
X98502048Y-75090548D01*
X98495266Y-75100699D01*
X98492883Y-75112674D01*
X98492883Y-75112677D01*
X98481689Y-75168952D01*
X98481688Y-75168958D01*
X98480500Y-75174933D01*
X98480500Y-75181027D01*
X98480500Y-75181028D01*
X98480500Y-75918976D01*
X98480500Y-75918986D01*
X98480501Y-75925066D01*
X98481687Y-75931030D01*
X98481688Y-75931037D01*
X98492883Y-75987324D01*
X98492884Y-75987327D01*
X98495266Y-75999301D01*
X98502048Y-76009451D01*
X98502050Y-76009455D01*
X98516819Y-76031557D01*
X98535335Y-76076256D01*
X98535336Y-76124638D01*
X98516821Y-76169338D01*
X98502522Y-76190737D01*
X98493354Y-76212872D01*
X98482189Y-76269002D01*
X98481000Y-76281079D01*
X98481000Y-76506674D01*
X98484450Y-76519549D01*
X98497326Y-76523000D01*
X99088000Y-76523000D01*
X99150000Y-76539613D01*
X99195387Y-76585000D01*
X99212000Y-76647000D01*
X99212000Y-77237673D01*
X99215450Y-77250548D01*
X99228326Y-77253999D01*
X99453926Y-77253999D01*
X99465987Y-77252811D01*
X99472315Y-77251553D01*
X99526634Y-77252889D01*
X99575167Y-77277321D01*
X99608595Y-77320157D01*
X99620500Y-77373172D01*
X99620500Y-77626318D01*
X99608595Y-77679335D01*
X99575165Y-77722171D01*
X99526630Y-77746602D01*
X99472313Y-77747935D01*
X99460067Y-77745500D01*
X99453971Y-77745500D01*
X98716023Y-77745500D01*
X98716012Y-77745500D01*
X98709934Y-77745501D01*
X98703970Y-77746687D01*
X98703962Y-77746688D01*
X98647675Y-77757883D01*
X98647670Y-77757884D01*
X98635699Y-77760266D01*
X98625548Y-77767048D01*
X98625545Y-77767050D01*
X98561669Y-77809731D01*
X98561666Y-77809733D01*
X98551516Y-77816516D01*
X98544733Y-77826666D01*
X98544731Y-77826669D01*
X98502050Y-77890545D01*
X98502048Y-77890548D01*
X98495266Y-77900699D01*
X98492883Y-77912674D01*
X98492883Y-77912677D01*
X98481689Y-77968952D01*
X98481688Y-77968958D01*
X98480500Y-77974933D01*
X98480500Y-77981027D01*
X98480500Y-77981028D01*
X98480500Y-78718976D01*
X98480500Y-78718986D01*
X98480501Y-78725066D01*
X98481687Y-78731030D01*
X98481688Y-78731037D01*
X98492883Y-78787324D01*
X98492884Y-78787327D01*
X98495266Y-78799301D01*
X98502048Y-78809451D01*
X98502050Y-78809455D01*
X98516819Y-78831557D01*
X98535335Y-78876256D01*
X98535336Y-78924638D01*
X98516821Y-78969338D01*
X98502522Y-78990737D01*
X98493354Y-79012872D01*
X98482189Y-79069002D01*
X98481000Y-79081079D01*
X98481000Y-79306674D01*
X98484450Y-79319549D01*
X98497326Y-79323000D01*
X99088000Y-79323000D01*
X99150000Y-79339613D01*
X99195387Y-79385000D01*
X99212000Y-79447000D01*
X99212000Y-80037673D01*
X99215450Y-80050548D01*
X99228326Y-80053999D01*
X99453926Y-80053999D01*
X99465987Y-80052811D01*
X99472315Y-80051553D01*
X99526634Y-80052889D01*
X99575167Y-80077321D01*
X99608595Y-80120157D01*
X99620500Y-80173172D01*
X99620500Y-80291444D01*
X99611061Y-80338897D01*
X99584183Y-80379122D01*
X99454121Y-80509183D01*
X99413896Y-80536061D01*
X99366443Y-80545500D01*
X98716023Y-80545500D01*
X98716012Y-80545500D01*
X98709934Y-80545501D01*
X98703970Y-80546687D01*
X98703962Y-80546688D01*
X98647675Y-80557883D01*
X98647670Y-80557884D01*
X98635699Y-80560266D01*
X98625548Y-80567048D01*
X98625545Y-80567050D01*
X98561669Y-80609731D01*
X98561666Y-80609733D01*
X98551516Y-80616516D01*
X98544733Y-80626666D01*
X98544731Y-80626669D01*
X98502050Y-80690545D01*
X98502048Y-80690548D01*
X98495266Y-80700699D01*
X98492883Y-80712674D01*
X98492883Y-80712677D01*
X98481689Y-80768952D01*
X98481688Y-80768958D01*
X98480500Y-80774933D01*
X98480500Y-80781027D01*
X98480500Y-80781028D01*
X98480500Y-81518976D01*
X98480500Y-81518986D01*
X98480501Y-81525066D01*
X98481687Y-81531030D01*
X98481688Y-81531037D01*
X98492883Y-81587324D01*
X98492884Y-81587327D01*
X98495266Y-81599301D01*
X98502048Y-81609451D01*
X98502050Y-81609455D01*
X98516819Y-81631557D01*
X98535335Y-81676256D01*
X98535336Y-81724638D01*
X98516821Y-81769338D01*
X98502522Y-81790737D01*
X98493354Y-81812872D01*
X98482189Y-81869002D01*
X98481000Y-81881079D01*
X98481000Y-82106674D01*
X98484450Y-82119549D01*
X98497326Y-82123000D01*
X99088000Y-82123000D01*
X99150000Y-82139613D01*
X99195387Y-82185000D01*
X99212000Y-82247000D01*
X99212000Y-82837673D01*
X99215450Y-82850548D01*
X99228326Y-82853999D01*
X99453926Y-82853999D01*
X99465987Y-82852811D01*
X99472315Y-82851553D01*
X99526634Y-82852889D01*
X99575167Y-82877321D01*
X99608595Y-82920157D01*
X99620500Y-82973172D01*
X99620500Y-83226318D01*
X99608595Y-83279335D01*
X99575165Y-83322171D01*
X99526630Y-83346602D01*
X99472313Y-83347935D01*
X99460067Y-83345500D01*
X99453971Y-83345500D01*
X98716023Y-83345500D01*
X98716012Y-83345500D01*
X98709934Y-83345501D01*
X98703970Y-83346687D01*
X98703962Y-83346688D01*
X98647675Y-83357883D01*
X98647670Y-83357884D01*
X98635699Y-83360266D01*
X98625548Y-83367048D01*
X98625545Y-83367050D01*
X98561669Y-83409731D01*
X98561666Y-83409733D01*
X98551516Y-83416516D01*
X98544733Y-83426666D01*
X98544731Y-83426669D01*
X98502050Y-83490545D01*
X98502048Y-83490548D01*
X98495266Y-83500699D01*
X98492883Y-83512674D01*
X98492883Y-83512677D01*
X98481689Y-83568952D01*
X98481688Y-83568958D01*
X98480500Y-83574933D01*
X98480500Y-83581027D01*
X98480500Y-83581028D01*
X98480500Y-84318976D01*
X98480500Y-84318986D01*
X98480501Y-84325066D01*
X98481687Y-84331030D01*
X98481688Y-84331037D01*
X98492883Y-84387324D01*
X98492884Y-84387327D01*
X98495266Y-84399301D01*
X98502048Y-84409451D01*
X98502050Y-84409455D01*
X98516819Y-84431557D01*
X98535335Y-84476256D01*
X98535336Y-84524638D01*
X98516821Y-84569338D01*
X98502522Y-84590737D01*
X98493354Y-84612872D01*
X98482189Y-84669002D01*
X98481000Y-84681079D01*
X98481000Y-84906674D01*
X98484450Y-84919549D01*
X98497326Y-84923000D01*
X99088000Y-84923000D01*
X99150000Y-84939613D01*
X99195387Y-84985000D01*
X99212000Y-85047000D01*
X99212000Y-85637673D01*
X99215450Y-85650548D01*
X99228326Y-85653999D01*
X99453926Y-85653999D01*
X99465987Y-85652811D01*
X99472315Y-85651553D01*
X99526634Y-85652889D01*
X99575167Y-85677321D01*
X99608595Y-85720157D01*
X99620500Y-85773172D01*
X99620500Y-86026318D01*
X99608595Y-86079335D01*
X99575165Y-86122171D01*
X99526630Y-86146602D01*
X99472313Y-86147935D01*
X99460067Y-86145500D01*
X99453971Y-86145500D01*
X98716023Y-86145500D01*
X98716012Y-86145500D01*
X98709934Y-86145501D01*
X98703970Y-86146687D01*
X98703962Y-86146688D01*
X98647675Y-86157883D01*
X98647670Y-86157884D01*
X98635699Y-86160266D01*
X98625548Y-86167048D01*
X98625545Y-86167050D01*
X98561669Y-86209731D01*
X98561666Y-86209733D01*
X98551516Y-86216516D01*
X98544733Y-86226666D01*
X98544731Y-86226669D01*
X98502050Y-86290545D01*
X98502048Y-86290548D01*
X98495266Y-86300699D01*
X98492883Y-86312674D01*
X98492883Y-86312677D01*
X98481689Y-86368952D01*
X98481688Y-86368958D01*
X98480500Y-86374933D01*
X98480500Y-86381027D01*
X98480500Y-86381028D01*
X98480500Y-87118976D01*
X98480500Y-87118986D01*
X98480501Y-87125066D01*
X98481687Y-87131030D01*
X98481688Y-87131037D01*
X98492883Y-87187324D01*
X98492884Y-87187327D01*
X98495266Y-87199301D01*
X98502048Y-87209451D01*
X98502050Y-87209455D01*
X98516819Y-87231557D01*
X98535335Y-87276256D01*
X98535336Y-87324638D01*
X98516821Y-87369338D01*
X98502522Y-87390737D01*
X98493354Y-87412872D01*
X98482189Y-87469002D01*
X98481000Y-87481079D01*
X98481000Y-87706674D01*
X98484450Y-87719549D01*
X98497326Y-87723000D01*
X99088000Y-87723000D01*
X99150000Y-87739613D01*
X99195387Y-87785000D01*
X99212000Y-87847000D01*
X99212000Y-88437673D01*
X99215450Y-88450548D01*
X99228326Y-88453999D01*
X99453926Y-88453999D01*
X99465987Y-88452811D01*
X99522129Y-88441645D01*
X99544259Y-88432478D01*
X99607109Y-88390484D01*
X99669916Y-88369735D01*
X99734453Y-88384228D01*
X99782358Y-88429837D01*
X99800000Y-88493586D01*
X99800000Y-90072000D01*
X99783387Y-90134000D01*
X99738000Y-90179387D01*
X99676000Y-90196000D01*
X99205826Y-90196000D01*
X99192950Y-90199450D01*
X99189500Y-90212326D01*
X99189500Y-90753000D01*
X99172887Y-90815000D01*
X99127500Y-90860387D01*
X99065500Y-90877000D01*
X98141612Y-90877000D01*
X98086767Y-90864212D01*
X98078463Y-90857397D01*
X98078162Y-90866599D01*
X98076554Y-90872599D01*
X98051768Y-90920209D01*
X98009184Y-90952883D01*
X97956781Y-90964500D01*
X96587326Y-90964500D01*
X96574450Y-90967950D01*
X96571000Y-90980826D01*
X96571000Y-91181184D01*
X96571355Y-91187817D01*
X96576464Y-91235335D01*
X96580004Y-91250317D01*
X96623584Y-91367160D01*
X96632002Y-91382576D01*
X96706068Y-91481517D01*
X96718482Y-91493931D01*
X96824527Y-91573315D01*
X96823605Y-91574546D01*
X96862665Y-91611970D01*
X96880463Y-91674232D01*
X96864448Y-91736977D01*
X96818986Y-91783091D01*
X96756476Y-91800000D01*
X96324000Y-91800000D01*
X96262000Y-91783387D01*
X96216613Y-91738000D01*
X96200000Y-91676000D01*
X96200000Y-90694174D01*
X96571000Y-90694174D01*
X96574450Y-90707049D01*
X96587326Y-90710500D01*
X97156674Y-90710500D01*
X97169549Y-90707049D01*
X97173000Y-90694174D01*
X97427000Y-90694174D01*
X97430450Y-90707049D01*
X97443326Y-90710500D01*
X97958389Y-90710500D01*
X98013234Y-90723288D01*
X98021537Y-90730102D01*
X98021839Y-90720901D01*
X98023447Y-90714901D01*
X98048233Y-90667291D01*
X98090817Y-90634617D01*
X98143220Y-90623000D01*
X98919174Y-90623000D01*
X98932049Y-90619549D01*
X98935500Y-90606674D01*
X98935500Y-90212327D01*
X98932049Y-90199451D01*
X98919174Y-90196001D01*
X98448075Y-90196001D01*
X98438399Y-90196762D01*
X98358237Y-90209457D01*
X98339907Y-90215413D01*
X98243270Y-90264652D01*
X98227676Y-90275982D01*
X98171034Y-90332624D01*
X98122512Y-90362597D01*
X98065706Y-90367680D01*
X98012634Y-90346799D01*
X97974522Y-90304370D01*
X97968001Y-90292428D01*
X97893931Y-90193482D01*
X97881517Y-90181068D01*
X97782576Y-90107002D01*
X97767160Y-90098584D01*
X97650317Y-90055004D01*
X97635335Y-90051464D01*
X97587817Y-90046355D01*
X97581184Y-90046000D01*
X97443326Y-90046000D01*
X97430450Y-90049450D01*
X97427000Y-90062326D01*
X97427000Y-90694174D01*
X97173000Y-90694174D01*
X97173000Y-90062326D01*
X97169549Y-90049450D01*
X97156674Y-90046000D01*
X97018816Y-90046000D01*
X97012182Y-90046355D01*
X96964664Y-90051464D01*
X96949682Y-90055004D01*
X96832839Y-90098584D01*
X96817423Y-90107002D01*
X96718482Y-90181068D01*
X96706068Y-90193482D01*
X96632002Y-90292423D01*
X96623584Y-90307839D01*
X96580004Y-90424682D01*
X96576464Y-90439664D01*
X96571355Y-90487182D01*
X96571000Y-90493816D01*
X96571000Y-90694174D01*
X96200000Y-90694174D01*
X96200000Y-88218926D01*
X98481001Y-88218926D01*
X98482188Y-88230987D01*
X98493354Y-88287129D01*
X98502521Y-88309259D01*
X98545091Y-88372970D01*
X98562029Y-88389908D01*
X98625739Y-88432478D01*
X98647872Y-88441645D01*
X98704002Y-88452810D01*
X98716079Y-88454000D01*
X98941674Y-88454000D01*
X98954549Y-88450549D01*
X98958000Y-88437674D01*
X98958000Y-87993326D01*
X98954549Y-87980450D01*
X98941674Y-87977000D01*
X98497327Y-87977000D01*
X98484451Y-87980450D01*
X98481001Y-87993326D01*
X98481001Y-88218926D01*
X96200000Y-88218926D01*
X96200000Y-85418926D01*
X98481001Y-85418926D01*
X98482188Y-85430987D01*
X98493354Y-85487129D01*
X98502521Y-85509259D01*
X98545091Y-85572970D01*
X98562029Y-85589908D01*
X98625739Y-85632478D01*
X98647872Y-85641645D01*
X98704002Y-85652810D01*
X98716079Y-85654000D01*
X98941674Y-85654000D01*
X98954549Y-85650549D01*
X98958000Y-85637674D01*
X98958000Y-85193326D01*
X98954549Y-85180450D01*
X98941674Y-85177000D01*
X98497327Y-85177000D01*
X98484451Y-85180450D01*
X98481001Y-85193326D01*
X98481001Y-85418926D01*
X96200000Y-85418926D01*
X96200000Y-82906184D01*
X96571000Y-82906184D01*
X96571355Y-82912817D01*
X96576464Y-82960335D01*
X96580004Y-82975317D01*
X96623584Y-83092160D01*
X96632002Y-83107576D01*
X96706068Y-83206517D01*
X96718482Y-83218931D01*
X96817423Y-83292997D01*
X96832839Y-83301415D01*
X96949682Y-83344995D01*
X96964664Y-83348535D01*
X97012182Y-83353644D01*
X97018816Y-83354000D01*
X97156674Y-83354000D01*
X97169549Y-83350549D01*
X97173000Y-83337674D01*
X97427000Y-83337674D01*
X97430450Y-83350549D01*
X97443326Y-83354000D01*
X97581184Y-83354000D01*
X97587817Y-83353644D01*
X97635335Y-83348535D01*
X97650317Y-83344995D01*
X97767160Y-83301415D01*
X97782576Y-83292997D01*
X97881517Y-83218931D01*
X97893931Y-83206517D01*
X97967997Y-83107576D01*
X97976415Y-83092160D01*
X98019995Y-82975317D01*
X98023535Y-82960335D01*
X98028644Y-82912817D01*
X98029000Y-82906184D01*
X98029000Y-82705826D01*
X98025549Y-82692950D01*
X98012674Y-82689500D01*
X97443326Y-82689500D01*
X97430450Y-82692950D01*
X97427000Y-82705826D01*
X97427000Y-83337674D01*
X97173000Y-83337674D01*
X97173000Y-82705826D01*
X97169549Y-82692950D01*
X97156674Y-82689500D01*
X96587326Y-82689500D01*
X96574450Y-82692950D01*
X96571000Y-82705826D01*
X96571000Y-82906184D01*
X96200000Y-82906184D01*
X96200000Y-82618926D01*
X98481001Y-82618926D01*
X98482188Y-82630987D01*
X98493354Y-82687129D01*
X98502521Y-82709259D01*
X98545091Y-82772970D01*
X98562029Y-82789908D01*
X98625739Y-82832478D01*
X98647872Y-82841645D01*
X98704002Y-82852810D01*
X98716079Y-82854000D01*
X98941674Y-82854000D01*
X98954549Y-82850549D01*
X98958000Y-82837674D01*
X98958000Y-82393326D01*
X98954549Y-82380450D01*
X98941674Y-82377000D01*
X98497327Y-82377000D01*
X98484451Y-82380450D01*
X98481001Y-82393326D01*
X98481001Y-82618926D01*
X96200000Y-82618926D01*
X96200000Y-81181262D01*
X96570500Y-81181262D01*
X96570501Y-81184556D01*
X96570853Y-81187833D01*
X96570854Y-81187847D01*
X96574328Y-81220164D01*
X96576800Y-81243157D01*
X96579509Y-81250419D01*
X96579510Y-81250422D01*
X96614692Y-81344750D01*
X96626242Y-81375715D01*
X96711026Y-81488974D01*
X96824285Y-81573758D01*
X96851971Y-81584084D01*
X96901180Y-81617731D01*
X96929001Y-81670456D01*
X96929003Y-81730070D01*
X96901184Y-81782796D01*
X96851975Y-81816446D01*
X96832844Y-81823582D01*
X96817423Y-81832002D01*
X96718482Y-81906068D01*
X96706068Y-81918482D01*
X96632002Y-82017423D01*
X96623584Y-82032839D01*
X96580004Y-82149682D01*
X96576464Y-82164664D01*
X96571355Y-82212182D01*
X96571000Y-82218816D01*
X96571000Y-82419174D01*
X96574450Y-82432049D01*
X96587326Y-82435500D01*
X98012674Y-82435500D01*
X98025549Y-82432049D01*
X98029000Y-82419174D01*
X98029000Y-82218816D01*
X98028644Y-82212182D01*
X98023535Y-82164664D01*
X98019995Y-82149682D01*
X97976415Y-82032839D01*
X97967997Y-82017423D01*
X97893931Y-81918482D01*
X97881517Y-81906068D01*
X97782576Y-81832002D01*
X97767160Y-81823584D01*
X97748025Y-81816447D01*
X97698815Y-81782797D01*
X97670996Y-81730070D01*
X97670998Y-81670455D01*
X97698820Y-81617730D01*
X97748028Y-81584084D01*
X97775715Y-81573758D01*
X97888974Y-81488974D01*
X97973758Y-81375715D01*
X98023200Y-81243157D01*
X98029500Y-81184557D01*
X98029499Y-80490444D01*
X98023200Y-80431843D01*
X97973758Y-80299285D01*
X97888974Y-80186026D01*
X97806103Y-80123990D01*
X97765127Y-80070385D01*
X97758284Y-80003261D01*
X97787602Y-79942491D01*
X97787876Y-79942181D01*
X97793498Y-79937201D01*
X97875137Y-79818926D01*
X98481001Y-79818926D01*
X98482188Y-79830987D01*
X98493354Y-79887129D01*
X98502521Y-79909259D01*
X98545091Y-79972970D01*
X98562029Y-79989908D01*
X98625739Y-80032478D01*
X98647872Y-80041645D01*
X98704002Y-80052810D01*
X98716079Y-80054000D01*
X98941674Y-80054000D01*
X98954549Y-80050549D01*
X98958000Y-80037674D01*
X98958000Y-79593326D01*
X98954549Y-79580450D01*
X98941674Y-79577000D01*
X98497327Y-79577000D01*
X98484451Y-79580450D01*
X98481001Y-79593326D01*
X98481001Y-79818926D01*
X97875137Y-79818926D01*
X97883787Y-79806395D01*
X97940149Y-79657782D01*
X97959307Y-79500000D01*
X97940149Y-79342218D01*
X97883787Y-79193605D01*
X97813360Y-79091574D01*
X97797757Y-79068969D01*
X97797756Y-79068968D01*
X97793498Y-79062799D01*
X97728368Y-79005099D01*
X97680144Y-78962375D01*
X97680141Y-78962373D01*
X97674529Y-78957401D01*
X97667889Y-78953916D01*
X97540432Y-78887021D01*
X97540429Y-78887019D01*
X97533793Y-78883537D01*
X97500610Y-78875358D01*
X97386752Y-78847294D01*
X97386747Y-78847293D01*
X97379471Y-78845500D01*
X97220529Y-78845500D01*
X97213253Y-78847293D01*
X97213247Y-78847294D01*
X97073489Y-78881742D01*
X97073487Y-78881742D01*
X97066207Y-78883537D01*
X97059573Y-78887018D01*
X97059567Y-78887021D01*
X96932110Y-78953916D01*
X96932106Y-78953918D01*
X96925471Y-78957401D01*
X96919862Y-78962370D01*
X96919855Y-78962375D01*
X96851371Y-79023048D01*
X96806502Y-79062799D01*
X96802247Y-79068963D01*
X96802242Y-79068969D01*
X96720476Y-79187428D01*
X96720473Y-79187432D01*
X96716213Y-79193605D01*
X96713553Y-79200616D01*
X96713551Y-79200622D01*
X96673331Y-79306674D01*
X96659851Y-79342218D01*
X96658947Y-79349658D01*
X96658946Y-79349665D01*
X96654656Y-79385000D01*
X96640693Y-79500000D01*
X96641597Y-79507445D01*
X96658946Y-79650334D01*
X96658947Y-79650339D01*
X96659851Y-79657782D01*
X96662510Y-79664795D01*
X96662511Y-79664796D01*
X96674388Y-79696114D01*
X96716213Y-79806395D01*
X96806502Y-79937201D01*
X96812120Y-79942178D01*
X96812400Y-79942494D01*
X96841715Y-80003263D01*
X96834872Y-80070386D01*
X96793896Y-80123990D01*
X96711026Y-80186026D01*
X96705714Y-80193121D01*
X96705711Y-80193125D01*
X96631557Y-80292184D01*
X96631555Y-80292187D01*
X96626242Y-80299285D01*
X96623144Y-80307588D01*
X96623143Y-80307592D01*
X96579508Y-80424580D01*
X96579506Y-80424587D01*
X96576800Y-80431843D01*
X96575971Y-80439544D01*
X96575971Y-80439549D01*
X96570853Y-80487156D01*
X96570500Y-80490443D01*
X96570500Y-80493751D01*
X96570500Y-80493752D01*
X96570500Y-81181244D01*
X96570500Y-81181262D01*
X96200000Y-81181262D01*
X96200000Y-77018926D01*
X98481001Y-77018926D01*
X98482188Y-77030987D01*
X98493354Y-77087129D01*
X98502521Y-77109259D01*
X98545091Y-77172970D01*
X98562029Y-77189908D01*
X98625739Y-77232478D01*
X98647872Y-77241645D01*
X98704002Y-77252810D01*
X98716079Y-77254000D01*
X98941674Y-77254000D01*
X98954549Y-77250549D01*
X98958000Y-77237674D01*
X98958000Y-76793326D01*
X98954549Y-76780450D01*
X98941674Y-76777000D01*
X98497327Y-76777000D01*
X98484451Y-76780450D01*
X98481001Y-76793326D01*
X98481001Y-77018926D01*
X96200000Y-77018926D01*
X96200000Y-74506184D01*
X96571000Y-74506184D01*
X96571355Y-74512817D01*
X96576464Y-74560335D01*
X96580004Y-74575317D01*
X96623584Y-74692160D01*
X96632002Y-74707576D01*
X96706068Y-74806517D01*
X96718482Y-74818931D01*
X96817423Y-74892997D01*
X96832839Y-74901415D01*
X96949682Y-74944995D01*
X96964664Y-74948535D01*
X97012182Y-74953644D01*
X97018816Y-74954000D01*
X97156674Y-74954000D01*
X97169549Y-74950549D01*
X97173000Y-74937674D01*
X97427000Y-74937674D01*
X97430450Y-74950549D01*
X97443326Y-74954000D01*
X97581184Y-74954000D01*
X97587817Y-74953644D01*
X97635335Y-74948535D01*
X97650317Y-74944995D01*
X97767160Y-74901415D01*
X97782576Y-74892997D01*
X97881517Y-74818931D01*
X97893931Y-74806517D01*
X97967997Y-74707576D01*
X97976415Y-74692160D01*
X98019995Y-74575317D01*
X98023535Y-74560335D01*
X98028644Y-74512817D01*
X98029000Y-74506184D01*
X98029000Y-74305826D01*
X98025549Y-74292950D01*
X98012674Y-74289500D01*
X97443326Y-74289500D01*
X97430450Y-74292950D01*
X97427000Y-74305826D01*
X97427000Y-74937674D01*
X97173000Y-74937674D01*
X97173000Y-74305826D01*
X97169549Y-74292950D01*
X97156674Y-74289500D01*
X96587326Y-74289500D01*
X96574450Y-74292950D01*
X96571000Y-74305826D01*
X96571000Y-74506184D01*
X96200000Y-74506184D01*
X96200000Y-74218926D01*
X98481001Y-74218926D01*
X98482188Y-74230987D01*
X98493354Y-74287129D01*
X98502521Y-74309259D01*
X98545091Y-74372970D01*
X98562029Y-74389908D01*
X98625739Y-74432478D01*
X98647872Y-74441645D01*
X98704002Y-74452810D01*
X98716079Y-74454000D01*
X98941674Y-74454000D01*
X98954549Y-74450549D01*
X98958000Y-74437674D01*
X98958000Y-73993326D01*
X98954549Y-73980450D01*
X98941674Y-73977000D01*
X98497327Y-73977000D01*
X98484451Y-73980450D01*
X98481001Y-73993326D01*
X98481001Y-74218926D01*
X96200000Y-74218926D01*
X96200000Y-72781262D01*
X96570500Y-72781262D01*
X96570501Y-72784556D01*
X96570853Y-72787833D01*
X96570854Y-72787847D01*
X96571750Y-72796177D01*
X96576800Y-72843157D01*
X96579509Y-72850419D01*
X96579510Y-72850422D01*
X96614692Y-72944750D01*
X96626242Y-72975715D01*
X96711026Y-73088974D01*
X96824285Y-73173758D01*
X96851971Y-73184084D01*
X96901180Y-73217731D01*
X96929001Y-73270456D01*
X96929003Y-73330070D01*
X96901184Y-73382796D01*
X96851975Y-73416446D01*
X96832844Y-73423582D01*
X96817423Y-73432002D01*
X96718482Y-73506068D01*
X96706068Y-73518482D01*
X96632002Y-73617423D01*
X96623584Y-73632839D01*
X96580004Y-73749682D01*
X96576464Y-73764664D01*
X96571355Y-73812182D01*
X96571000Y-73818816D01*
X96571000Y-74019174D01*
X96574450Y-74032049D01*
X96587326Y-74035500D01*
X98012674Y-74035500D01*
X98025549Y-74032049D01*
X98029000Y-74019174D01*
X98029000Y-73818816D01*
X98028644Y-73812182D01*
X98023535Y-73764664D01*
X98019995Y-73749682D01*
X97976415Y-73632839D01*
X97967997Y-73617423D01*
X97893931Y-73518482D01*
X97881517Y-73506068D01*
X97782576Y-73432002D01*
X97767160Y-73423584D01*
X97748025Y-73416447D01*
X97698815Y-73382797D01*
X97670996Y-73330070D01*
X97670998Y-73270455D01*
X97698820Y-73217730D01*
X97748028Y-73184084D01*
X97775715Y-73173758D01*
X97888974Y-73088974D01*
X97973758Y-72975715D01*
X98023200Y-72843157D01*
X98029500Y-72784557D01*
X98029499Y-72090444D01*
X98023200Y-72031843D01*
X97973758Y-71899285D01*
X97888974Y-71786026D01*
X97806103Y-71723990D01*
X97765127Y-71670385D01*
X97758284Y-71603261D01*
X97787602Y-71542491D01*
X97787876Y-71542181D01*
X97793498Y-71537201D01*
X97875137Y-71418926D01*
X98481001Y-71418926D01*
X98482188Y-71430987D01*
X98493354Y-71487129D01*
X98502521Y-71509259D01*
X98545091Y-71572970D01*
X98562029Y-71589908D01*
X98625739Y-71632478D01*
X98647872Y-71641645D01*
X98704002Y-71652810D01*
X98716079Y-71654000D01*
X98941674Y-71654000D01*
X98954549Y-71650549D01*
X98958000Y-71637674D01*
X98958000Y-71193326D01*
X98954549Y-71180450D01*
X98941674Y-71177000D01*
X98497327Y-71177000D01*
X98484451Y-71180450D01*
X98481001Y-71193326D01*
X98481001Y-71418926D01*
X97875137Y-71418926D01*
X97883787Y-71406395D01*
X97940149Y-71257782D01*
X97959307Y-71100000D01*
X97940149Y-70942218D01*
X97883787Y-70793605D01*
X97813359Y-70691573D01*
X97797757Y-70668969D01*
X97797756Y-70668968D01*
X97793498Y-70662799D01*
X97728368Y-70605099D01*
X97680144Y-70562375D01*
X97680141Y-70562373D01*
X97674529Y-70557401D01*
X97667889Y-70553916D01*
X97540432Y-70487021D01*
X97540429Y-70487019D01*
X97533793Y-70483537D01*
X97500610Y-70475358D01*
X97386752Y-70447294D01*
X97386747Y-70447293D01*
X97379471Y-70445500D01*
X97220529Y-70445500D01*
X97213253Y-70447293D01*
X97213247Y-70447294D01*
X97073489Y-70481742D01*
X97073487Y-70481742D01*
X97066207Y-70483537D01*
X97059573Y-70487018D01*
X97059567Y-70487021D01*
X96932110Y-70553916D01*
X96932106Y-70553918D01*
X96925471Y-70557401D01*
X96919862Y-70562370D01*
X96919855Y-70562375D01*
X96851371Y-70623048D01*
X96806502Y-70662799D01*
X96802247Y-70668963D01*
X96802242Y-70668969D01*
X96720476Y-70787428D01*
X96720473Y-70787432D01*
X96716213Y-70793605D01*
X96713553Y-70800616D01*
X96713551Y-70800622D01*
X96673331Y-70906674D01*
X96659851Y-70942218D01*
X96658947Y-70949658D01*
X96658946Y-70949665D01*
X96654656Y-70985000D01*
X96640693Y-71100000D01*
X96641597Y-71107445D01*
X96658946Y-71250334D01*
X96658947Y-71250339D01*
X96659851Y-71257782D01*
X96662510Y-71264795D01*
X96662511Y-71264796D01*
X96707788Y-71384182D01*
X96716213Y-71406395D01*
X96806502Y-71537201D01*
X96812120Y-71542178D01*
X96812400Y-71542494D01*
X96841715Y-71603263D01*
X96834872Y-71670386D01*
X96793896Y-71723990D01*
X96711026Y-71786026D01*
X96705714Y-71793121D01*
X96705711Y-71793125D01*
X96631557Y-71892184D01*
X96631555Y-71892187D01*
X96626242Y-71899285D01*
X96623144Y-71907588D01*
X96623143Y-71907592D01*
X96579508Y-72024580D01*
X96579506Y-72024587D01*
X96576800Y-72031843D01*
X96575971Y-72039544D01*
X96575971Y-72039549D01*
X96570853Y-72087156D01*
X96570500Y-72090443D01*
X96570500Y-72093751D01*
X96570500Y-72093752D01*
X96570500Y-72781244D01*
X96570500Y-72781262D01*
X96200000Y-72781262D01*
X96200000Y-68618926D01*
X98481001Y-68618926D01*
X98482188Y-68630987D01*
X98493354Y-68687129D01*
X98502521Y-68709259D01*
X98545091Y-68772970D01*
X98562029Y-68789908D01*
X98625739Y-68832478D01*
X98647872Y-68841645D01*
X98704002Y-68852810D01*
X98716079Y-68854000D01*
X98941674Y-68854000D01*
X98954549Y-68850549D01*
X98958000Y-68837674D01*
X98958000Y-68393326D01*
X98954549Y-68380450D01*
X98941674Y-68377000D01*
X98497327Y-68377000D01*
X98484451Y-68380450D01*
X98481001Y-68393326D01*
X98481001Y-68618926D01*
X96200000Y-68618926D01*
X96200000Y-66106184D01*
X96571000Y-66106184D01*
X96571355Y-66112817D01*
X96576464Y-66160335D01*
X96580004Y-66175317D01*
X96623584Y-66292160D01*
X96632002Y-66307576D01*
X96706068Y-66406517D01*
X96718482Y-66418931D01*
X96817423Y-66492997D01*
X96832839Y-66501415D01*
X96949682Y-66544995D01*
X96964664Y-66548535D01*
X97012182Y-66553644D01*
X97018816Y-66554000D01*
X97156674Y-66554000D01*
X97169549Y-66550549D01*
X97173000Y-66537674D01*
X97427000Y-66537674D01*
X97430450Y-66550549D01*
X97443326Y-66554000D01*
X97581184Y-66554000D01*
X97587817Y-66553644D01*
X97635335Y-66548535D01*
X97650317Y-66544995D01*
X97767160Y-66501415D01*
X97782576Y-66492997D01*
X97881517Y-66418931D01*
X97893931Y-66406517D01*
X97967997Y-66307576D01*
X97976415Y-66292160D01*
X98019995Y-66175317D01*
X98023535Y-66160335D01*
X98028644Y-66112817D01*
X98029000Y-66106184D01*
X98029000Y-65905826D01*
X98025549Y-65892950D01*
X98012674Y-65889500D01*
X97443326Y-65889500D01*
X97430450Y-65892950D01*
X97427000Y-65905826D01*
X97427000Y-66537674D01*
X97173000Y-66537674D01*
X97173000Y-65905826D01*
X97169549Y-65892950D01*
X97156674Y-65889500D01*
X96587326Y-65889500D01*
X96574450Y-65892950D01*
X96571000Y-65905826D01*
X96571000Y-66106184D01*
X96200000Y-66106184D01*
X96200000Y-65818926D01*
X98481001Y-65818926D01*
X98482188Y-65830987D01*
X98493354Y-65887129D01*
X98502521Y-65909259D01*
X98545091Y-65972970D01*
X98562029Y-65989908D01*
X98625739Y-66032478D01*
X98647872Y-66041645D01*
X98704002Y-66052810D01*
X98716079Y-66054000D01*
X98941674Y-66054000D01*
X98954549Y-66050549D01*
X98958000Y-66037674D01*
X98958000Y-65593326D01*
X98954549Y-65580450D01*
X98941674Y-65577000D01*
X98497327Y-65577000D01*
X98484451Y-65580450D01*
X98481001Y-65593326D01*
X98481001Y-65818926D01*
X96200000Y-65818926D01*
X96200000Y-64381262D01*
X96570500Y-64381262D01*
X96570501Y-64384556D01*
X96570853Y-64387833D01*
X96570854Y-64387847D01*
X96574328Y-64420164D01*
X96576800Y-64443157D01*
X96579509Y-64450419D01*
X96579510Y-64450422D01*
X96614692Y-64544750D01*
X96626242Y-64575715D01*
X96711026Y-64688974D01*
X96824285Y-64773758D01*
X96851971Y-64784084D01*
X96901180Y-64817731D01*
X96929001Y-64870456D01*
X96929003Y-64930070D01*
X96901184Y-64982796D01*
X96851975Y-65016446D01*
X96832844Y-65023582D01*
X96817423Y-65032002D01*
X96718482Y-65106068D01*
X96706068Y-65118482D01*
X96632002Y-65217423D01*
X96623584Y-65232839D01*
X96580004Y-65349682D01*
X96576464Y-65364664D01*
X96571355Y-65412182D01*
X96571000Y-65418816D01*
X96571000Y-65619174D01*
X96574450Y-65632049D01*
X96587326Y-65635500D01*
X98012674Y-65635500D01*
X98025549Y-65632049D01*
X98029000Y-65619174D01*
X98029000Y-65418816D01*
X98028644Y-65412182D01*
X98023535Y-65364664D01*
X98019995Y-65349682D01*
X97976415Y-65232839D01*
X97967997Y-65217423D01*
X97893931Y-65118482D01*
X97881517Y-65106068D01*
X97782576Y-65032002D01*
X97767160Y-65023584D01*
X97748025Y-65016447D01*
X97698815Y-64982797D01*
X97670996Y-64930070D01*
X97670998Y-64870455D01*
X97698820Y-64817730D01*
X97748028Y-64784084D01*
X97775715Y-64773758D01*
X97888974Y-64688974D01*
X97973758Y-64575715D01*
X98023200Y-64443157D01*
X98029500Y-64384557D01*
X98029499Y-63690444D01*
X98023200Y-63631843D01*
X97973758Y-63499285D01*
X97888974Y-63386026D01*
X97775715Y-63301242D01*
X97767407Y-63298143D01*
X97759620Y-63293891D01*
X97760696Y-63291920D01*
X97720284Y-63263410D01*
X97693303Y-63206318D01*
X97697936Y-63143341D01*
X97732979Y-63090816D01*
X97793498Y-63037201D01*
X97806112Y-63018926D01*
X98481001Y-63018926D01*
X98482188Y-63030987D01*
X98493354Y-63087129D01*
X98502521Y-63109259D01*
X98545091Y-63172970D01*
X98562029Y-63189908D01*
X98625739Y-63232478D01*
X98647872Y-63241645D01*
X98704002Y-63252810D01*
X98716079Y-63254000D01*
X98941674Y-63254000D01*
X98954549Y-63250549D01*
X98958000Y-63237674D01*
X98958000Y-62793326D01*
X98954549Y-62780450D01*
X98941674Y-62777000D01*
X98497327Y-62777000D01*
X98484451Y-62780450D01*
X98481001Y-62793326D01*
X98481001Y-63018926D01*
X97806112Y-63018926D01*
X97883787Y-62906395D01*
X97940149Y-62757782D01*
X97959307Y-62600000D01*
X97940149Y-62442218D01*
X97883787Y-62293605D01*
X97793498Y-62162799D01*
X97728368Y-62105099D01*
X97680144Y-62062375D01*
X97680141Y-62062373D01*
X97674529Y-62057401D01*
X97667889Y-62053916D01*
X97540432Y-61987021D01*
X97540429Y-61987019D01*
X97533793Y-61983537D01*
X97503421Y-61976051D01*
X97386752Y-61947294D01*
X97386747Y-61947293D01*
X97379471Y-61945500D01*
X97220529Y-61945500D01*
X97213253Y-61947293D01*
X97213247Y-61947294D01*
X97073489Y-61981742D01*
X97073487Y-61981742D01*
X97066207Y-61983537D01*
X97059573Y-61987018D01*
X97059567Y-61987021D01*
X96932110Y-62053916D01*
X96932106Y-62053918D01*
X96925471Y-62057401D01*
X96919862Y-62062370D01*
X96919855Y-62062375D01*
X96812115Y-62157826D01*
X96806502Y-62162799D01*
X96802247Y-62168963D01*
X96802242Y-62168969D01*
X96720476Y-62287428D01*
X96720473Y-62287432D01*
X96716213Y-62293605D01*
X96713553Y-62300616D01*
X96713551Y-62300622D01*
X96662511Y-62435203D01*
X96659851Y-62442218D01*
X96658947Y-62449658D01*
X96658946Y-62449665D01*
X96650461Y-62519549D01*
X96640693Y-62600000D01*
X96641597Y-62607445D01*
X96658946Y-62750334D01*
X96658947Y-62750339D01*
X96659851Y-62757782D01*
X96662510Y-62764795D01*
X96662511Y-62764796D01*
X96707788Y-62884182D01*
X96716213Y-62906395D01*
X96720476Y-62912571D01*
X96802212Y-63030987D01*
X96806502Y-63037201D01*
X96867019Y-63090814D01*
X96902062Y-63143339D01*
X96906697Y-63206313D01*
X96879720Y-63263404D01*
X96839304Y-63291921D01*
X96840380Y-63293891D01*
X96832591Y-63298143D01*
X96824285Y-63301242D01*
X96817187Y-63306555D01*
X96817184Y-63306557D01*
X96718125Y-63380711D01*
X96718121Y-63380714D01*
X96711026Y-63386026D01*
X96705714Y-63393121D01*
X96705711Y-63393125D01*
X96631557Y-63492184D01*
X96631555Y-63492187D01*
X96626242Y-63499285D01*
X96623144Y-63507588D01*
X96623143Y-63507592D01*
X96579508Y-63624580D01*
X96579506Y-63624587D01*
X96576800Y-63631843D01*
X96575971Y-63639544D01*
X96575971Y-63639549D01*
X96570853Y-63687156D01*
X96570500Y-63690443D01*
X96570500Y-63693751D01*
X96570500Y-63693752D01*
X96570500Y-64381244D01*
X96570500Y-64381262D01*
X96200000Y-64381262D01*
X96200000Y-60218926D01*
X98481001Y-60218926D01*
X98482188Y-60230987D01*
X98493354Y-60287129D01*
X98502521Y-60309259D01*
X98545091Y-60372970D01*
X98562029Y-60389908D01*
X98625739Y-60432478D01*
X98647872Y-60441645D01*
X98704002Y-60452810D01*
X98716079Y-60454000D01*
X98941674Y-60454000D01*
X98954549Y-60450549D01*
X98958000Y-60437674D01*
X98958000Y-59993326D01*
X98954549Y-59980450D01*
X98941674Y-59977000D01*
X98497327Y-59977000D01*
X98484451Y-59980450D01*
X98481001Y-59993326D01*
X98481001Y-60218926D01*
X96200000Y-60218926D01*
X96200000Y-57706184D01*
X96571000Y-57706184D01*
X96571355Y-57712817D01*
X96576464Y-57760335D01*
X96580004Y-57775317D01*
X96623584Y-57892160D01*
X96632002Y-57907576D01*
X96706068Y-58006517D01*
X96718482Y-58018931D01*
X96817423Y-58092997D01*
X96832839Y-58101415D01*
X96949682Y-58144995D01*
X96964664Y-58148535D01*
X97012182Y-58153644D01*
X97018816Y-58154000D01*
X97156674Y-58154000D01*
X97169549Y-58150549D01*
X97173000Y-58137674D01*
X97427000Y-58137674D01*
X97430450Y-58150549D01*
X97443326Y-58154000D01*
X97581184Y-58154000D01*
X97587817Y-58153644D01*
X97635335Y-58148535D01*
X97650317Y-58144995D01*
X97767160Y-58101415D01*
X97782576Y-58092997D01*
X97881517Y-58018931D01*
X97893931Y-58006517D01*
X97967997Y-57907576D01*
X97976415Y-57892160D01*
X98019995Y-57775317D01*
X98023535Y-57760335D01*
X98028644Y-57712817D01*
X98029000Y-57706184D01*
X98029000Y-57505826D01*
X98025549Y-57492950D01*
X98012674Y-57489500D01*
X97443326Y-57489500D01*
X97430450Y-57492950D01*
X97427000Y-57505826D01*
X97427000Y-58137674D01*
X97173000Y-58137674D01*
X97173000Y-57505826D01*
X97169549Y-57492950D01*
X97156674Y-57489500D01*
X96587326Y-57489500D01*
X96574450Y-57492950D01*
X96571000Y-57505826D01*
X96571000Y-57706184D01*
X96200000Y-57706184D01*
X96200000Y-57418926D01*
X98481001Y-57418926D01*
X98482188Y-57430987D01*
X98493354Y-57487129D01*
X98502521Y-57509259D01*
X98545091Y-57572970D01*
X98562029Y-57589908D01*
X98625739Y-57632478D01*
X98647872Y-57641645D01*
X98704002Y-57652810D01*
X98716079Y-57654000D01*
X98941674Y-57654000D01*
X98954549Y-57650549D01*
X98958000Y-57637674D01*
X98958000Y-57193326D01*
X98954549Y-57180450D01*
X98941674Y-57177000D01*
X98497327Y-57177000D01*
X98484451Y-57180450D01*
X98481001Y-57193326D01*
X98481001Y-57418926D01*
X96200000Y-57418926D01*
X96200000Y-56909160D01*
X96217883Y-56845010D01*
X96266374Y-56799363D01*
X96374529Y-56742599D01*
X96424599Y-56698240D01*
X96482866Y-56669393D01*
X96547723Y-56673996D01*
X96601335Y-56710784D01*
X96628961Y-56769643D01*
X96623006Y-56834390D01*
X96580004Y-56949681D01*
X96576464Y-56964664D01*
X96571355Y-57012182D01*
X96571000Y-57018816D01*
X96571000Y-57219174D01*
X96574450Y-57232049D01*
X96587326Y-57235500D01*
X98012674Y-57235500D01*
X98025549Y-57232049D01*
X98029000Y-57219174D01*
X98029000Y-57018816D01*
X98028644Y-57012182D01*
X98023535Y-56964664D01*
X98019995Y-56949682D01*
X97976415Y-56832839D01*
X97967997Y-56817423D01*
X97893931Y-56718482D01*
X97881517Y-56706068D01*
X97782576Y-56632002D01*
X97767160Y-56623584D01*
X97748025Y-56616447D01*
X97698815Y-56582797D01*
X97670996Y-56530070D01*
X97670998Y-56470455D01*
X97698820Y-56417730D01*
X97748028Y-56384084D01*
X97775715Y-56373758D01*
X97888974Y-56288974D01*
X97973758Y-56175715D01*
X98023200Y-56043157D01*
X98029500Y-55984557D01*
X98029499Y-55323999D01*
X98046112Y-55262000D01*
X98091499Y-55216613D01*
X98153499Y-55200000D01*
X98472039Y-55200000D01*
X98528334Y-55213515D01*
G37*
%TD.AperFunction*%
%TD*%
M02*
