%TF.GenerationSoftware,KiCad,Pcbnew,(7.0.0)*%
%TF.CreationDate,2023-05-06T08:33:59+03:00*%
%TF.ProjectId,LEDSpinner,4c454453-7069-46e6-9e65-722e6b696361,1.0*%
%TF.SameCoordinates,Original*%
%TF.FileFunction,Legend,Bot*%
%TF.FilePolarity,Positive*%
%FSLAX46Y46*%
G04 Gerber Fmt 4.6, Leading zero omitted, Abs format (unit mm)*
G04 Created by KiCad (PCBNEW (7.0.0)) date 2023-05-06 08:33:59*
%MOMM*%
%LPD*%
G01*
G04 APERTURE LIST*
%ADD10C,0.150000*%
%ADD11C,0.300000*%
%ADD12C,0.120000*%
%ADD13C,0.010000*%
G04 APERTURE END LIST*
D10*
X75616180Y-116442503D02*
X75598750Y-116507552D01*
X75598750Y-116507552D02*
X75628939Y-116655079D01*
X75628939Y-116655079D02*
X75676558Y-116737558D01*
X75676558Y-116737558D02*
X75789226Y-116837466D01*
X75789226Y-116837466D02*
X75919324Y-116872326D01*
X75919324Y-116872326D02*
X76025612Y-116865946D01*
X76025612Y-116865946D02*
X76214379Y-116811947D01*
X76214379Y-116811947D02*
X76338097Y-116740518D01*
X76338097Y-116740518D02*
X76479244Y-116604041D01*
X76479244Y-116604041D02*
X76537913Y-116515183D01*
X76537913Y-116515183D02*
X76572773Y-116385085D01*
X76572773Y-116385085D02*
X76542584Y-116237558D01*
X76542584Y-116237558D02*
X76494965Y-116155079D01*
X76494965Y-116155079D02*
X76382297Y-116055171D01*
X76382297Y-116055171D02*
X76317248Y-116037741D01*
X75033701Y-115624096D02*
X75612761Y-115674676D01*
X75319416Y-116118968D02*
X76185441Y-115618968D01*
X76185441Y-115618968D02*
X75994965Y-115289054D01*
X75994965Y-115289054D02*
X75906106Y-115230385D01*
X75906106Y-115230385D02*
X75841058Y-115212955D01*
X75841058Y-115212955D02*
X75734769Y-115219334D01*
X75734769Y-115219334D02*
X75611051Y-115290763D01*
X75611051Y-115290763D02*
X75552382Y-115379621D01*
X75552382Y-115379621D02*
X75534953Y-115444670D01*
X75534953Y-115444670D02*
X75541332Y-115550958D01*
X75541332Y-115550958D02*
X75731809Y-115880873D01*
X74557511Y-114799310D02*
X74843225Y-115294182D01*
X74700368Y-115046746D02*
X75566393Y-114546746D01*
X75566393Y-114546746D02*
X75490294Y-114700653D01*
X75490294Y-114700653D02*
X75455435Y-114830751D01*
X75455435Y-114830751D02*
X75461815Y-114937039D01*
X74994965Y-113557003D02*
X75090203Y-113721960D01*
X75090203Y-113721960D02*
X75096583Y-113828248D01*
X75096583Y-113828248D02*
X75079153Y-113893297D01*
X75079153Y-113893297D02*
X75003054Y-114047204D01*
X75003054Y-114047204D02*
X74861906Y-114183682D01*
X74861906Y-114183682D02*
X74531992Y-114374158D01*
X74531992Y-114374158D02*
X74425704Y-114380537D01*
X74425704Y-114380537D02*
X74360655Y-114363108D01*
X74360655Y-114363108D02*
X74271796Y-114304439D01*
X74271796Y-114304439D02*
X74176558Y-114139481D01*
X74176558Y-114139481D02*
X74170179Y-114033193D01*
X74170179Y-114033193D02*
X74187608Y-113968144D01*
X74187608Y-113968144D02*
X74246277Y-113879286D01*
X74246277Y-113879286D02*
X74452474Y-113760238D01*
X74452474Y-113760238D02*
X74558762Y-113753859D01*
X74558762Y-113753859D02*
X74623811Y-113771288D01*
X74623811Y-113771288D02*
X74712669Y-113829958D01*
X74712669Y-113829958D02*
X74807907Y-113994915D01*
X74807907Y-113994915D02*
X74814287Y-114101203D01*
X74814287Y-114101203D02*
X74796857Y-114166252D01*
X74796857Y-114166252D02*
X74738188Y-114255110D01*
X74780679Y-113185849D02*
X74471155Y-112649738D01*
X74471155Y-112649738D02*
X74307907Y-113128889D01*
X74307907Y-113128889D02*
X74236479Y-113005171D01*
X74236479Y-113005171D02*
X74147620Y-112946502D01*
X74147620Y-112946502D02*
X74082572Y-112929073D01*
X74082572Y-112929073D02*
X73976283Y-112935452D01*
X73976283Y-112935452D02*
X73770087Y-113054500D01*
X73770087Y-113054500D02*
X73711418Y-113143358D01*
X73711418Y-113143358D02*
X73693988Y-113208407D01*
X73693988Y-113208407D02*
X73700368Y-113314695D01*
X73700368Y-113314695D02*
X73843225Y-113562131D01*
X73843225Y-113562131D02*
X73932083Y-113620800D01*
X73932083Y-113620800D02*
X73997132Y-113638230D01*
X74198200Y-112367443D02*
X74215630Y-112302394D01*
X74215630Y-112302394D02*
X74209250Y-112196106D01*
X74209250Y-112196106D02*
X74090203Y-111989909D01*
X74090203Y-111989909D02*
X74001344Y-111931240D01*
X74001344Y-111931240D02*
X73936296Y-111913810D01*
X73936296Y-111913810D02*
X73830007Y-111920190D01*
X73830007Y-111920190D02*
X73747529Y-111967809D01*
X73747529Y-111967809D02*
X73647620Y-112080477D01*
X73647620Y-112080477D02*
X73438463Y-112861063D01*
X73438463Y-112861063D02*
X73128939Y-112324952D01*
X126574295Y-112844639D02*
X126639344Y-112827209D01*
X126639344Y-112827209D02*
X126752012Y-112727301D01*
X126752012Y-112727301D02*
X126799631Y-112644822D01*
X126799631Y-112644822D02*
X126829820Y-112497295D01*
X126829820Y-112497295D02*
X126794961Y-112367197D01*
X126794961Y-112367197D02*
X126736292Y-112278339D01*
X126736292Y-112278339D02*
X126595144Y-112141861D01*
X126595144Y-112141861D02*
X126471426Y-112070433D01*
X126471426Y-112070433D02*
X126282659Y-112016434D01*
X126282659Y-112016434D02*
X126176371Y-112010054D01*
X126176371Y-112010054D02*
X126046274Y-112044914D01*
X126046274Y-112044914D02*
X125933606Y-112144822D01*
X125933606Y-112144822D02*
X125885987Y-112227301D01*
X125885987Y-112227301D02*
X125855797Y-112374828D01*
X125855797Y-112374828D02*
X125873227Y-112439877D01*
X126156774Y-113758284D02*
X125911048Y-113231513D01*
X126442488Y-113263412D02*
X125576463Y-112763412D01*
X125576463Y-112763412D02*
X125385987Y-113093326D01*
X125385987Y-113093326D02*
X125379607Y-113199614D01*
X125379607Y-113199614D02*
X125397037Y-113264663D01*
X125397037Y-113264663D02*
X125455706Y-113353522D01*
X125455706Y-113353522D02*
X125579424Y-113424950D01*
X125579424Y-113424950D02*
X125685712Y-113431330D01*
X125685712Y-113431330D02*
X125750761Y-113413900D01*
X125750761Y-113413900D02*
X125839619Y-113355231D01*
X125839619Y-113355231D02*
X126030095Y-113025317D01*
X125680583Y-114583070D02*
X125966298Y-114088198D01*
X125823441Y-114335634D02*
X124957415Y-113835634D01*
X124957415Y-113835634D02*
X125128752Y-113824584D01*
X125128752Y-113824584D02*
X125258850Y-113789724D01*
X125258850Y-113789724D02*
X125347708Y-113731055D01*
X124385987Y-114825377D02*
X124481225Y-114660420D01*
X124481225Y-114660420D02*
X124570083Y-114601751D01*
X124570083Y-114601751D02*
X124635132Y-114584321D01*
X124635132Y-114584321D02*
X124806469Y-114573271D01*
X124806469Y-114573271D02*
X124995236Y-114627270D01*
X124995236Y-114627270D02*
X125325150Y-114817746D01*
X125325150Y-114817746D02*
X125383819Y-114906604D01*
X125383819Y-114906604D02*
X125401249Y-114971653D01*
X125401249Y-114971653D02*
X125394869Y-115077941D01*
X125394869Y-115077941D02*
X125299631Y-115242899D01*
X125299631Y-115242899D02*
X125210773Y-115301568D01*
X125210773Y-115301568D02*
X125145724Y-115318997D01*
X125145724Y-115318997D02*
X125039436Y-115312618D01*
X125039436Y-115312618D02*
X124833239Y-115193570D01*
X124833239Y-115193570D02*
X124774570Y-115104712D01*
X124774570Y-115104712D02*
X124757140Y-115039663D01*
X124757140Y-115039663D02*
X124763520Y-114933375D01*
X124763520Y-114933375D02*
X124858758Y-114768418D01*
X124858758Y-114768418D02*
X124947617Y-114709748D01*
X124947617Y-114709748D02*
X125012665Y-114692319D01*
X125012665Y-114692319D02*
X125118954Y-114698698D01*
X124171701Y-115196531D02*
X123862177Y-115732642D01*
X123862177Y-115732642D02*
X124358758Y-115634443D01*
X124358758Y-115634443D02*
X124287330Y-115758161D01*
X124287330Y-115758161D02*
X124280950Y-115864449D01*
X124280950Y-115864449D02*
X124298380Y-115929498D01*
X124298380Y-115929498D02*
X124357049Y-116018356D01*
X124357049Y-116018356D02*
X124563245Y-116137404D01*
X124563245Y-116137404D02*
X124669533Y-116143784D01*
X124669533Y-116143784D02*
X124734582Y-116126354D01*
X124734582Y-116126354D02*
X124823441Y-116067685D01*
X124823441Y-116067685D02*
X124966298Y-115820249D01*
X124966298Y-115820249D02*
X124972677Y-115713961D01*
X124972677Y-115713961D02*
X124955248Y-115648912D01*
X123754179Y-116110175D02*
X123689131Y-116127605D01*
X123689131Y-116127605D02*
X123600272Y-116186274D01*
X123600272Y-116186274D02*
X123481225Y-116392471D01*
X123481225Y-116392471D02*
X123474845Y-116498759D01*
X123474845Y-116498759D02*
X123492275Y-116563808D01*
X123492275Y-116563808D02*
X123550944Y-116652666D01*
X123550944Y-116652666D02*
X123633422Y-116700285D01*
X123633422Y-116700285D02*
X123780950Y-116730474D01*
X123780950Y-116730474D02*
X124561536Y-116521317D01*
X124561536Y-116521317D02*
X124252012Y-117057428D01*
X97904761Y-70662857D02*
X97857142Y-70615238D01*
X97857142Y-70615238D02*
X97714285Y-70567619D01*
X97714285Y-70567619D02*
X97619047Y-70567619D01*
X97619047Y-70567619D02*
X97476190Y-70615238D01*
X97476190Y-70615238D02*
X97380952Y-70710476D01*
X97380952Y-70710476D02*
X97333333Y-70805714D01*
X97333333Y-70805714D02*
X97285714Y-70996190D01*
X97285714Y-70996190D02*
X97285714Y-71139047D01*
X97285714Y-71139047D02*
X97333333Y-71329523D01*
X97333333Y-71329523D02*
X97380952Y-71424761D01*
X97380952Y-71424761D02*
X97476190Y-71520000D01*
X97476190Y-71520000D02*
X97619047Y-71567619D01*
X97619047Y-71567619D02*
X97714285Y-71567619D01*
X97714285Y-71567619D02*
X97857142Y-71520000D01*
X97857142Y-71520000D02*
X97904761Y-71472380D01*
X98904761Y-70567619D02*
X98571428Y-71043809D01*
X98333333Y-70567619D02*
X98333333Y-71567619D01*
X98333333Y-71567619D02*
X98714285Y-71567619D01*
X98714285Y-71567619D02*
X98809523Y-71520000D01*
X98809523Y-71520000D02*
X98857142Y-71472380D01*
X98857142Y-71472380D02*
X98904761Y-71377142D01*
X98904761Y-71377142D02*
X98904761Y-71234285D01*
X98904761Y-71234285D02*
X98857142Y-71139047D01*
X98857142Y-71139047D02*
X98809523Y-71091428D01*
X98809523Y-71091428D02*
X98714285Y-71043809D01*
X98714285Y-71043809D02*
X98333333Y-71043809D01*
X99857142Y-70567619D02*
X99285714Y-70567619D01*
X99571428Y-70567619D02*
X99571428Y-71567619D01*
X99571428Y-71567619D02*
X99476190Y-71424761D01*
X99476190Y-71424761D02*
X99380952Y-71329523D01*
X99380952Y-71329523D02*
X99285714Y-71281904D01*
X100714285Y-71567619D02*
X100523809Y-71567619D01*
X100523809Y-71567619D02*
X100428571Y-71520000D01*
X100428571Y-71520000D02*
X100380952Y-71472380D01*
X100380952Y-71472380D02*
X100285714Y-71329523D01*
X100285714Y-71329523D02*
X100238095Y-71139047D01*
X100238095Y-71139047D02*
X100238095Y-70758095D01*
X100238095Y-70758095D02*
X100285714Y-70662857D01*
X100285714Y-70662857D02*
X100333333Y-70615238D01*
X100333333Y-70615238D02*
X100428571Y-70567619D01*
X100428571Y-70567619D02*
X100619047Y-70567619D01*
X100619047Y-70567619D02*
X100714285Y-70615238D01*
X100714285Y-70615238D02*
X100761904Y-70662857D01*
X100761904Y-70662857D02*
X100809523Y-70758095D01*
X100809523Y-70758095D02*
X100809523Y-70996190D01*
X100809523Y-70996190D02*
X100761904Y-71091428D01*
X100761904Y-71091428D02*
X100714285Y-71139047D01*
X100714285Y-71139047D02*
X100619047Y-71186666D01*
X100619047Y-71186666D02*
X100428571Y-71186666D01*
X100428571Y-71186666D02*
X100333333Y-71139047D01*
X100333333Y-71139047D02*
X100285714Y-71091428D01*
X100285714Y-71091428D02*
X100238095Y-70996190D01*
X101142857Y-71567619D02*
X101761904Y-71567619D01*
X101761904Y-71567619D02*
X101428571Y-71186666D01*
X101428571Y-71186666D02*
X101571428Y-71186666D01*
X101571428Y-71186666D02*
X101666666Y-71139047D01*
X101666666Y-71139047D02*
X101714285Y-71091428D01*
X101714285Y-71091428D02*
X101761904Y-70996190D01*
X101761904Y-70996190D02*
X101761904Y-70758095D01*
X101761904Y-70758095D02*
X101714285Y-70662857D01*
X101714285Y-70662857D02*
X101666666Y-70615238D01*
X101666666Y-70615238D02*
X101571428Y-70567619D01*
X101571428Y-70567619D02*
X101285714Y-70567619D01*
X101285714Y-70567619D02*
X101190476Y-70615238D01*
X101190476Y-70615238D02*
X101142857Y-70662857D01*
X102142857Y-71472380D02*
X102190476Y-71520000D01*
X102190476Y-71520000D02*
X102285714Y-71567619D01*
X102285714Y-71567619D02*
X102523809Y-71567619D01*
X102523809Y-71567619D02*
X102619047Y-71520000D01*
X102619047Y-71520000D02*
X102666666Y-71472380D01*
X102666666Y-71472380D02*
X102714285Y-71377142D01*
X102714285Y-71377142D02*
X102714285Y-71281904D01*
X102714285Y-71281904D02*
X102666666Y-71139047D01*
X102666666Y-71139047D02*
X102095238Y-70567619D01*
X102095238Y-70567619D02*
X102714285Y-70567619D01*
D11*
X102285713Y-108051071D02*
X101785713Y-109551071D01*
X101785713Y-109551071D02*
X101285713Y-108051071D01*
X99999999Y-109551071D02*
X100857142Y-109551071D01*
X100428571Y-109551071D02*
X100428571Y-108051071D01*
X100428571Y-108051071D02*
X100571428Y-108265357D01*
X100571428Y-108265357D02*
X100714285Y-108408214D01*
X100714285Y-108408214D02*
X100857142Y-108479642D01*
X99357143Y-109408214D02*
X99285714Y-109479642D01*
X99285714Y-109479642D02*
X99357143Y-109551071D01*
X99357143Y-109551071D02*
X99428571Y-109479642D01*
X99428571Y-109479642D02*
X99357143Y-109408214D01*
X99357143Y-109408214D02*
X99357143Y-109551071D01*
X98357142Y-108051071D02*
X98214285Y-108051071D01*
X98214285Y-108051071D02*
X98071428Y-108122500D01*
X98071428Y-108122500D02*
X98000000Y-108193928D01*
X98000000Y-108193928D02*
X97928571Y-108336785D01*
X97928571Y-108336785D02*
X97857142Y-108622500D01*
X97857142Y-108622500D02*
X97857142Y-108979642D01*
X97857142Y-108979642D02*
X97928571Y-109265357D01*
X97928571Y-109265357D02*
X98000000Y-109408214D01*
X98000000Y-109408214D02*
X98071428Y-109479642D01*
X98071428Y-109479642D02*
X98214285Y-109551071D01*
X98214285Y-109551071D02*
X98357142Y-109551071D01*
X98357142Y-109551071D02*
X98500000Y-109479642D01*
X98500000Y-109479642D02*
X98571428Y-109408214D01*
X98571428Y-109408214D02*
X98642857Y-109265357D01*
X98642857Y-109265357D02*
X98714285Y-108979642D01*
X98714285Y-108979642D02*
X98714285Y-108622500D01*
X98714285Y-108622500D02*
X98642857Y-108336785D01*
X98642857Y-108336785D02*
X98571428Y-108193928D01*
X98571428Y-108193928D02*
X98500000Y-108122500D01*
X98500000Y-108122500D02*
X98357142Y-108051071D01*
D10*
%TO.C,BT3*%
X122557386Y-112141337D02*
X122527196Y-112288864D01*
X122527196Y-112288864D02*
X122544626Y-112353913D01*
X122544626Y-112353913D02*
X122603295Y-112442771D01*
X122603295Y-112442771D02*
X122727013Y-112514200D01*
X122727013Y-112514200D02*
X122833301Y-112520579D01*
X122833301Y-112520579D02*
X122898350Y-112503150D01*
X122898350Y-112503150D02*
X122987208Y-112444481D01*
X122987208Y-112444481D02*
X123177685Y-112114566D01*
X123177685Y-112114566D02*
X122311659Y-111614566D01*
X122311659Y-111614566D02*
X122144993Y-111903241D01*
X122144993Y-111903241D02*
X122138613Y-112009529D01*
X122138613Y-112009529D02*
X122156043Y-112074578D01*
X122156043Y-112074578D02*
X122214712Y-112163437D01*
X122214712Y-112163437D02*
X122297190Y-112211056D01*
X122297190Y-112211056D02*
X122403478Y-112217435D01*
X122403478Y-112217435D02*
X122468527Y-112200006D01*
X122468527Y-112200006D02*
X122557386Y-112141337D01*
X122557386Y-112141337D02*
X122724052Y-111852661D01*
X121883088Y-112356874D02*
X121597374Y-112851745D01*
X122606256Y-113104310D02*
X121740231Y-112604310D01*
X121478326Y-113057942D02*
X121168802Y-113594053D01*
X121168802Y-113594053D02*
X121665383Y-113495854D01*
X121665383Y-113495854D02*
X121593954Y-113619572D01*
X121593954Y-113619572D02*
X121587575Y-113725860D01*
X121587575Y-113725860D02*
X121605005Y-113790909D01*
X121605005Y-113790909D02*
X121663674Y-113879767D01*
X121663674Y-113879767D02*
X121869870Y-113998815D01*
X121869870Y-113998815D02*
X121976158Y-114005195D01*
X121976158Y-114005195D02*
X122041207Y-113987765D01*
X122041207Y-113987765D02*
X122130065Y-113929096D01*
X122130065Y-113929096D02*
X122272923Y-113681660D01*
X122272923Y-113681660D02*
X122279302Y-113575372D01*
X122279302Y-113575372D02*
X122261873Y-113510323D01*
%TO.C,BT1*%
X99214285Y-74456428D02*
X99357142Y-74408809D01*
X99357142Y-74408809D02*
X99404761Y-74361190D01*
X99404761Y-74361190D02*
X99452380Y-74265952D01*
X99452380Y-74265952D02*
X99452380Y-74123095D01*
X99452380Y-74123095D02*
X99404761Y-74027857D01*
X99404761Y-74027857D02*
X99357142Y-73980238D01*
X99357142Y-73980238D02*
X99261904Y-73932619D01*
X99261904Y-73932619D02*
X98880952Y-73932619D01*
X98880952Y-73932619D02*
X98880952Y-74932619D01*
X98880952Y-74932619D02*
X99214285Y-74932619D01*
X99214285Y-74932619D02*
X99309523Y-74885000D01*
X99309523Y-74885000D02*
X99357142Y-74837380D01*
X99357142Y-74837380D02*
X99404761Y-74742142D01*
X99404761Y-74742142D02*
X99404761Y-74646904D01*
X99404761Y-74646904D02*
X99357142Y-74551666D01*
X99357142Y-74551666D02*
X99309523Y-74504047D01*
X99309523Y-74504047D02*
X99214285Y-74456428D01*
X99214285Y-74456428D02*
X98880952Y-74456428D01*
X99738095Y-74932619D02*
X100309523Y-74932619D01*
X100023809Y-73932619D02*
X100023809Y-74932619D01*
X101166666Y-73932619D02*
X100595238Y-73932619D01*
X100880952Y-73932619D02*
X100880952Y-74932619D01*
X100880952Y-74932619D02*
X100785714Y-74789761D01*
X100785714Y-74789761D02*
X100690476Y-74694523D01*
X100690476Y-74694523D02*
X100595238Y-74646904D01*
%TO.C,BT2*%
X78228328Y-113402234D02*
X78115660Y-113302325D01*
X78115660Y-113302325D02*
X78050611Y-113284896D01*
X78050611Y-113284896D02*
X77944323Y-113291275D01*
X77944323Y-113291275D02*
X77820605Y-113362704D01*
X77820605Y-113362704D02*
X77761936Y-113451562D01*
X77761936Y-113451562D02*
X77744506Y-113516611D01*
X77744506Y-113516611D02*
X77750886Y-113622899D01*
X77750886Y-113622899D02*
X77941362Y-113952814D01*
X77941362Y-113952814D02*
X78807388Y-113452814D01*
X78807388Y-113452814D02*
X78640721Y-113164139D01*
X78640721Y-113164139D02*
X78551863Y-113105470D01*
X78551863Y-113105470D02*
X78486814Y-113088040D01*
X78486814Y-113088040D02*
X78380526Y-113094420D01*
X78380526Y-113094420D02*
X78298047Y-113142039D01*
X78298047Y-113142039D02*
X78239378Y-113230897D01*
X78239378Y-113230897D02*
X78221948Y-113295946D01*
X78221948Y-113295946D02*
X78228328Y-113402234D01*
X78228328Y-113402234D02*
X78394994Y-113690909D01*
X78378816Y-112710506D02*
X78093102Y-112215635D01*
X77369934Y-112963070D02*
X78235959Y-112463070D01*
X77867766Y-112015818D02*
X77885196Y-111950769D01*
X77885196Y-111950769D02*
X77878816Y-111844481D01*
X77878816Y-111844481D02*
X77759768Y-111638284D01*
X77759768Y-111638284D02*
X77670910Y-111579615D01*
X77670910Y-111579615D02*
X77605861Y-111562185D01*
X77605861Y-111562185D02*
X77499573Y-111568565D01*
X77499573Y-111568565D02*
X77417094Y-111616184D01*
X77417094Y-111616184D02*
X77317186Y-111728852D01*
X77317186Y-111728852D02*
X77108029Y-112509438D01*
X77108029Y-112509438D02*
X76798505Y-111973327D01*
D12*
%TO.C,BT3*%
X138304616Y-111852034D02*
X136984793Y-111090034D01*
X138304616Y-111852034D02*
X137796616Y-112731916D01*
X133905207Y-109312034D02*
X132585384Y-108550034D01*
X132585384Y-108550034D02*
X132077384Y-109429916D01*
X137796616Y-112731916D02*
X140349966Y-119485384D01*
X140349966Y-119485384D02*
X137047966Y-125204616D01*
X129922616Y-126370084D02*
X137047966Y-125204616D01*
X124203384Y-123068084D02*
X123695384Y-123947966D01*
X129414616Y-127249966D02*
X129922616Y-126370084D01*
X128094793Y-126487966D02*
X129414616Y-127249966D01*
X123695384Y-123947966D02*
X125015207Y-124709966D01*
X132077384Y-109429917D02*
G75*
G03*
X128092123Y-112901892I-1397001J-2419673D01*
G01*
X128198200Y-113429221D02*
G75*
G03*
X128092121Y-112901892I-4017421J-533816D01*
G01*
X125217572Y-117880758D02*
G75*
G03*
X125772856Y-117689824I-1036656J3917758D01*
G01*
X125217572Y-117880758D02*
G75*
G03*
X124203384Y-123068084I382812J-2767651D01*
G01*
%TO.C,BT1*%
X91110000Y-60998000D02*
X91110000Y-62522000D01*
X91110000Y-60998000D02*
X92126000Y-60998000D01*
X91110000Y-66078000D02*
X91110000Y-67602000D01*
X91110000Y-67602000D02*
X92126000Y-67602000D01*
X92126000Y-60998000D02*
X96698000Y-55410000D01*
X96698000Y-55410000D02*
X103302000Y-55410000D01*
X107874000Y-60998000D02*
X103302000Y-55410000D01*
X107874000Y-67602000D02*
X108890000Y-67602000D01*
X108890000Y-60998000D02*
X107874000Y-60998000D01*
X108890000Y-62522000D02*
X108890000Y-60998000D01*
X108890000Y-67602000D02*
X108890000Y-66078000D01*
X92126001Y-67602000D02*
G75*
G03*
X97125450Y-69317350I2793999J-1D01*
G01*
X97529092Y-68961819D02*
G75*
G03*
X97125450Y-69317350I2471008J-3212281D01*
G01*
X102874550Y-69317350D02*
G75*
G03*
X102431554Y-68931928I-2874550J-2856650D01*
G01*
X102874550Y-69317350D02*
G75*
G03*
X107874000Y-67602000I2205450J1715350D01*
G01*
%TO.C,G\u002A\u002A\u002A*%
G36*
X101524000Y-84269067D02*
G01*
X101049867Y-84269067D01*
X101049867Y-81830667D01*
X101524000Y-81830667D01*
X101524000Y-84269067D01*
G37*
D13*
X101524000Y-84269067D02*
X101049867Y-84269067D01*
X101049867Y-81830667D01*
X101524000Y-81830667D01*
X101524000Y-84269067D01*
G36*
X100711200Y-83320800D02*
G01*
X100711200Y-84269067D01*
X98726328Y-84269067D01*
X98575764Y-84173473D01*
X98459632Y-84079348D01*
X98327799Y-83898583D01*
X98280330Y-83805168D01*
X98250188Y-83716631D01*
X98241029Y-83620591D01*
X98244447Y-83544280D01*
X98717708Y-83544280D01*
X98765787Y-83651931D01*
X98778591Y-83669173D01*
X98801223Y-83690220D01*
X98835640Y-83705445D01*
X98891165Y-83715789D01*
X98977125Y-83722194D01*
X99102843Y-83725603D01*
X99277644Y-83726958D01*
X99510854Y-83727200D01*
X100203200Y-83727200D01*
X100203200Y-83320800D01*
X99525867Y-83320800D01*
X99478570Y-83320810D01*
X99258189Y-83321410D01*
X99094121Y-83323573D01*
X98976718Y-83328177D01*
X98896333Y-83336097D01*
X98843317Y-83348212D01*
X98808022Y-83365399D01*
X98780800Y-83388534D01*
X98735378Y-83447460D01*
X98717708Y-83544280D01*
X98244447Y-83544280D01*
X98247001Y-83487250D01*
X98257604Y-83389294D01*
X98285321Y-83255843D01*
X98321828Y-83166351D01*
X98350666Y-83117671D01*
X98361530Y-83069156D01*
X98347098Y-83006189D01*
X98305936Y-82905195D01*
X98278265Y-82831261D01*
X98240402Y-82621239D01*
X98256918Y-82415555D01*
X98322799Y-82225552D01*
X98433030Y-82062578D01*
X98582598Y-81937976D01*
X98766488Y-81863093D01*
X98827020Y-81855494D01*
X98948702Y-81847885D01*
X99117932Y-81841357D01*
X99324146Y-81836232D01*
X99556778Y-81832830D01*
X99805267Y-81831475D01*
X100711200Y-81830667D01*
X100711200Y-82372534D01*
X99794574Y-82372534D01*
X99606740Y-82373111D01*
X99357006Y-82375943D01*
X99145647Y-82380912D01*
X98980001Y-82387765D01*
X98867404Y-82396251D01*
X98815193Y-82406118D01*
X98776386Y-82437769D01*
X98732684Y-82525689D01*
X98727605Y-82627523D01*
X98765925Y-82713475D01*
X98777601Y-82725278D01*
X98802205Y-82742055D01*
X98839403Y-82754926D01*
X98897073Y-82764405D01*
X98983090Y-82771007D01*
X99105333Y-82775247D01*
X99271679Y-82777638D01*
X99490003Y-82778695D01*
X99768182Y-82778934D01*
X100711200Y-82778934D01*
X100711200Y-83320800D01*
G37*
X100711200Y-83320800D02*
X100711200Y-84269067D01*
X98726328Y-84269067D01*
X98575764Y-84173473D01*
X98459632Y-84079348D01*
X98327799Y-83898583D01*
X98280330Y-83805168D01*
X98250188Y-83716631D01*
X98241029Y-83620591D01*
X98244447Y-83544280D01*
X98717708Y-83544280D01*
X98765787Y-83651931D01*
X98778591Y-83669173D01*
X98801223Y-83690220D01*
X98835640Y-83705445D01*
X98891165Y-83715789D01*
X98977125Y-83722194D01*
X99102843Y-83725603D01*
X99277644Y-83726958D01*
X99510854Y-83727200D01*
X100203200Y-83727200D01*
X100203200Y-83320800D01*
X99525867Y-83320800D01*
X99478570Y-83320810D01*
X99258189Y-83321410D01*
X99094121Y-83323573D01*
X98976718Y-83328177D01*
X98896333Y-83336097D01*
X98843317Y-83348212D01*
X98808022Y-83365399D01*
X98780800Y-83388534D01*
X98735378Y-83447460D01*
X98717708Y-83544280D01*
X98244447Y-83544280D01*
X98247001Y-83487250D01*
X98257604Y-83389294D01*
X98285321Y-83255843D01*
X98321828Y-83166351D01*
X98350666Y-83117671D01*
X98361530Y-83069156D01*
X98347098Y-83006189D01*
X98305936Y-82905195D01*
X98278265Y-82831261D01*
X98240402Y-82621239D01*
X98256918Y-82415555D01*
X98322799Y-82225552D01*
X98433030Y-82062578D01*
X98582598Y-81937976D01*
X98766488Y-81863093D01*
X98827020Y-81855494D01*
X98948702Y-81847885D01*
X99117932Y-81841357D01*
X99324146Y-81836232D01*
X99556778Y-81832830D01*
X99805267Y-81831475D01*
X100711200Y-81830667D01*
X100711200Y-82372534D01*
X99794574Y-82372534D01*
X99606740Y-82373111D01*
X99357006Y-82375943D01*
X99145647Y-82380912D01*
X98980001Y-82387765D01*
X98867404Y-82396251D01*
X98815193Y-82406118D01*
X98776386Y-82437769D01*
X98732684Y-82525689D01*
X98727605Y-82627523D01*
X98765925Y-82713475D01*
X98777601Y-82725278D01*
X98802205Y-82742055D01*
X98839403Y-82754926D01*
X98897073Y-82764405D01*
X98983090Y-82771007D01*
X99105333Y-82775247D01*
X99271679Y-82777638D01*
X99490003Y-82778695D01*
X99768182Y-82778934D01*
X100711200Y-82778934D01*
X100711200Y-83320800D01*
G36*
X101790516Y-80865467D02*
G01*
X101813386Y-80883683D01*
X101943203Y-80997810D01*
X102067112Y-81117851D01*
X102174001Y-81234848D01*
X102316081Y-81423064D01*
X102493602Y-81716373D01*
X102642462Y-82030900D01*
X102748819Y-82340032D01*
X102787927Y-82518256D01*
X102824171Y-82840380D01*
X102824689Y-82917693D01*
X102826437Y-83179100D01*
X102795044Y-83509170D01*
X102730310Y-83805346D01*
X102709001Y-83874026D01*
X102561160Y-84253765D01*
X102373132Y-84589666D01*
X102137374Y-84895600D01*
X102008435Y-85030474D01*
X101694553Y-85294373D01*
X101340932Y-85517779D01*
X100962648Y-85691889D01*
X100574776Y-85807903D01*
X100510613Y-85820307D01*
X100261678Y-85848610D01*
X99985406Y-85855839D01*
X99710378Y-85842013D01*
X99465172Y-85807151D01*
X99320031Y-85772740D01*
X98939547Y-85639687D01*
X98575140Y-85452198D01*
X98238715Y-85218121D01*
X97942177Y-84945306D01*
X97697428Y-84641600D01*
X97573965Y-84443663D01*
X97391233Y-84061198D01*
X97270247Y-83668705D01*
X97208813Y-83271818D01*
X97205940Y-82993076D01*
X97532980Y-82993076D01*
X97558357Y-83401639D01*
X97644852Y-83790806D01*
X97788726Y-84155060D01*
X97986243Y-84488883D01*
X98233666Y-84786759D01*
X98527258Y-85043170D01*
X98863282Y-85252600D01*
X99238000Y-85409532D01*
X99285277Y-85424050D01*
X99535192Y-85477653D01*
X99819638Y-85508706D01*
X100114339Y-85516368D01*
X100395018Y-85499794D01*
X100637396Y-85458141D01*
X100899236Y-85376380D01*
X101257528Y-85208572D01*
X101578853Y-84989555D01*
X101859056Y-84724999D01*
X102093983Y-84420578D01*
X102279480Y-84081965D01*
X102411392Y-83714831D01*
X102485567Y-83324849D01*
X102497848Y-82917693D01*
X102460141Y-82568025D01*
X102368986Y-82212437D01*
X102222108Y-81882969D01*
X102015504Y-81570842D01*
X101745170Y-81267278D01*
X101663160Y-81186757D01*
X101527966Y-81062529D01*
X101409289Y-80969312D01*
X101289010Y-80893568D01*
X101234225Y-80865467D01*
X101354667Y-80865467D01*
X101371600Y-80882400D01*
X101388534Y-80865467D01*
X101371600Y-80848534D01*
X101354667Y-80865467D01*
X101234225Y-80865467D01*
X101149012Y-80821758D01*
X100875419Y-80704808D01*
X100606984Y-80624321D01*
X100329902Y-80580616D01*
X100016933Y-80567577D01*
X100005314Y-80567607D01*
X99588831Y-80599381D01*
X99203240Y-80691279D01*
X98847067Y-80843928D01*
X98518840Y-81057954D01*
X98217087Y-81333984D01*
X98109533Y-81454458D01*
X97871945Y-81782289D01*
X97698308Y-82129446D01*
X97586943Y-82499785D01*
X97536170Y-82897162D01*
X97532980Y-82993076D01*
X97205940Y-82993076D01*
X97204735Y-82876173D01*
X97255821Y-82487407D01*
X97359877Y-82111154D01*
X97514708Y-81753051D01*
X97718121Y-81418733D01*
X97967921Y-81113836D01*
X98261915Y-80843995D01*
X98597909Y-80614846D01*
X98973709Y-80432026D01*
X99387121Y-80301169D01*
X99674173Y-80251631D01*
X100025629Y-80233311D01*
X100379528Y-80255332D01*
X100715967Y-80316304D01*
X101015043Y-80414836D01*
X101201207Y-80497845D01*
X101338410Y-80567152D01*
X101417840Y-80618570D01*
X101436267Y-80650296D01*
X101433349Y-80661658D01*
X101462975Y-80661563D01*
X101499604Y-80666384D01*
X101580474Y-80709010D01*
X101688772Y-80784430D01*
X101790516Y-80865467D01*
G37*
X101790516Y-80865467D02*
X101813386Y-80883683D01*
X101943203Y-80997810D01*
X102067112Y-81117851D01*
X102174001Y-81234848D01*
X102316081Y-81423064D01*
X102493602Y-81716373D01*
X102642462Y-82030900D01*
X102748819Y-82340032D01*
X102787927Y-82518256D01*
X102824171Y-82840380D01*
X102824689Y-82917693D01*
X102826437Y-83179100D01*
X102795044Y-83509170D01*
X102730310Y-83805346D01*
X102709001Y-83874026D01*
X102561160Y-84253765D01*
X102373132Y-84589666D01*
X102137374Y-84895600D01*
X102008435Y-85030474D01*
X101694553Y-85294373D01*
X101340932Y-85517779D01*
X100962648Y-85691889D01*
X100574776Y-85807903D01*
X100510613Y-85820307D01*
X100261678Y-85848610D01*
X99985406Y-85855839D01*
X99710378Y-85842013D01*
X99465172Y-85807151D01*
X99320031Y-85772740D01*
X98939547Y-85639687D01*
X98575140Y-85452198D01*
X98238715Y-85218121D01*
X97942177Y-84945306D01*
X97697428Y-84641600D01*
X97573965Y-84443663D01*
X97391233Y-84061198D01*
X97270247Y-83668705D01*
X97208813Y-83271818D01*
X97205940Y-82993076D01*
X97532980Y-82993076D01*
X97558357Y-83401639D01*
X97644852Y-83790806D01*
X97788726Y-84155060D01*
X97986243Y-84488883D01*
X98233666Y-84786759D01*
X98527258Y-85043170D01*
X98863282Y-85252600D01*
X99238000Y-85409532D01*
X99285277Y-85424050D01*
X99535192Y-85477653D01*
X99819638Y-85508706D01*
X100114339Y-85516368D01*
X100395018Y-85499794D01*
X100637396Y-85458141D01*
X100899236Y-85376380D01*
X101257528Y-85208572D01*
X101578853Y-84989555D01*
X101859056Y-84724999D01*
X102093983Y-84420578D01*
X102279480Y-84081965D01*
X102411392Y-83714831D01*
X102485567Y-83324849D01*
X102497848Y-82917693D01*
X102460141Y-82568025D01*
X102368986Y-82212437D01*
X102222108Y-81882969D01*
X102015504Y-81570842D01*
X101745170Y-81267278D01*
X101663160Y-81186757D01*
X101527966Y-81062529D01*
X101409289Y-80969312D01*
X101289010Y-80893568D01*
X101234225Y-80865467D01*
X101354667Y-80865467D01*
X101371600Y-80882400D01*
X101388534Y-80865467D01*
X101371600Y-80848534D01*
X101354667Y-80865467D01*
X101234225Y-80865467D01*
X101149012Y-80821758D01*
X100875419Y-80704808D01*
X100606984Y-80624321D01*
X100329902Y-80580616D01*
X100016933Y-80567577D01*
X100005314Y-80567607D01*
X99588831Y-80599381D01*
X99203240Y-80691279D01*
X98847067Y-80843928D01*
X98518840Y-81057954D01*
X98217087Y-81333984D01*
X98109533Y-81454458D01*
X97871945Y-81782289D01*
X97698308Y-82129446D01*
X97586943Y-82499785D01*
X97536170Y-82897162D01*
X97532980Y-82993076D01*
X97205940Y-82993076D01*
X97204735Y-82876173D01*
X97255821Y-82487407D01*
X97359877Y-82111154D01*
X97514708Y-81753051D01*
X97718121Y-81418733D01*
X97967921Y-81113836D01*
X98261915Y-80843995D01*
X98597909Y-80614846D01*
X98973709Y-80432026D01*
X99387121Y-80301169D01*
X99674173Y-80251631D01*
X100025629Y-80233311D01*
X100379528Y-80255332D01*
X100715967Y-80316304D01*
X101015043Y-80414836D01*
X101201207Y-80497845D01*
X101338410Y-80567152D01*
X101417840Y-80618570D01*
X101436267Y-80650296D01*
X101433349Y-80661658D01*
X101462975Y-80661563D01*
X101499604Y-80666384D01*
X101580474Y-80709010D01*
X101688772Y-80784430D01*
X101790516Y-80865467D01*
G36*
X100072291Y-78111960D02*
G01*
X100150440Y-78181267D01*
X100186892Y-78221106D01*
X100260783Y-78336452D01*
X100314811Y-78486782D01*
X100355532Y-78688302D01*
X100372458Y-78762526D01*
X100412836Y-78815108D01*
X100496376Y-78847544D01*
X100547911Y-78864281D01*
X100672776Y-78938743D01*
X100737243Y-79041997D01*
X100739493Y-79169340D01*
X100677705Y-79316067D01*
X100660575Y-79343309D01*
X100605512Y-79409956D01*
X100558439Y-79418659D01*
X100506644Y-79373699D01*
X100439282Y-79334375D01*
X100357628Y-79344454D01*
X100291326Y-79402786D01*
X100276632Y-79435671D01*
X100287358Y-79483468D01*
X100347189Y-79545142D01*
X100456484Y-79616904D01*
X100603574Y-79670018D01*
X100761291Y-79693763D01*
X100915016Y-79688773D01*
X101050130Y-79655685D01*
X101152016Y-79595137D01*
X101206055Y-79507763D01*
X101211809Y-79447023D01*
X101181677Y-79374825D01*
X101116081Y-79346438D01*
X101030592Y-79373753D01*
X101004083Y-79389848D01*
X100949438Y-79404160D01*
X100921954Y-79365284D01*
X100914400Y-79266550D01*
X100922198Y-79195630D01*
X100979459Y-79083450D01*
X101086075Y-79011352D01*
X101234594Y-78985867D01*
X101277159Y-78984592D01*
X101357746Y-78971820D01*
X101388534Y-78948762D01*
X101408065Y-78888157D01*
X101471962Y-78799282D01*
X101565450Y-78707615D01*
X101673115Y-78630402D01*
X101718428Y-78606614D01*
X101820566Y-78564384D01*
X101930898Y-78528761D01*
X102031679Y-78504441D01*
X102105162Y-78496122D01*
X102133600Y-78508504D01*
X102121634Y-78538146D01*
X102083289Y-78621252D01*
X102022404Y-78749262D01*
X101942941Y-78913918D01*
X101848864Y-79106962D01*
X101744134Y-79320139D01*
X101649526Y-79513193D01*
X101554010Y-79710840D01*
X101472778Y-79881872D01*
X101409819Y-80017791D01*
X101369119Y-80110097D01*
X101354667Y-80150292D01*
X101355436Y-80154227D01*
X101390041Y-80195737D01*
X101465820Y-80258778D01*
X101568595Y-80331351D01*
X101678570Y-80412335D01*
X101825231Y-80538024D01*
X101977063Y-80682799D01*
X102119225Y-80831730D01*
X102236875Y-80969890D01*
X102315173Y-81082348D01*
X102320311Y-81091567D01*
X102335491Y-81127945D01*
X102316999Y-81122995D01*
X102260737Y-81073911D01*
X102162607Y-80977886D01*
X102005988Y-80832962D01*
X101712654Y-80608817D01*
X101395968Y-80417199D01*
X101072911Y-80267884D01*
X100760466Y-80170649D01*
X100516100Y-80125111D01*
X100061380Y-80090450D01*
X99612916Y-80120614D01*
X99176979Y-80214968D01*
X98759842Y-80372878D01*
X98524165Y-80492932D01*
X98161602Y-80726957D01*
X97851816Y-80997309D01*
X97811908Y-81037676D01*
X97734203Y-81113630D01*
X97695758Y-81144539D01*
X97691499Y-81133660D01*
X97716349Y-81084248D01*
X97720944Y-81076305D01*
X97788556Y-80983115D01*
X97892432Y-80863050D01*
X98019282Y-80729243D01*
X98155812Y-80594828D01*
X98288730Y-80472939D01*
X98404743Y-80376710D01*
X98490560Y-80319274D01*
X98522818Y-80302930D01*
X98582675Y-80270009D01*
X98624717Y-80235836D01*
X98647476Y-80192949D01*
X98649484Y-80133887D01*
X98629274Y-80051189D01*
X98585377Y-79937392D01*
X98516326Y-79785037D01*
X98420653Y-79586660D01*
X98296891Y-79334801D01*
X98194260Y-79125486D01*
X98098859Y-78929475D01*
X98017845Y-78761523D01*
X97955133Y-78629792D01*
X97914636Y-78542443D01*
X97900267Y-78507639D01*
X97907796Y-78502522D01*
X97962307Y-78502305D01*
X98052203Y-78514996D01*
X98137732Y-78534549D01*
X98347527Y-78617828D01*
X98516128Y-78739621D01*
X98632488Y-78892734D01*
X98670626Y-78949443D01*
X98727376Y-78978876D01*
X98824934Y-78985867D01*
X98940311Y-78994921D01*
X99044920Y-79038278D01*
X99102100Y-79123859D01*
X99119467Y-79258721D01*
X99117580Y-79360747D01*
X99106244Y-79412173D01*
X99077125Y-79417250D01*
X99021893Y-79386922D01*
X98977280Y-79366029D01*
X98907317Y-79367313D01*
X98862955Y-79409555D01*
X98849867Y-79476559D01*
X98873728Y-79552134D01*
X98940209Y-79620086D01*
X98946190Y-79623890D01*
X99051488Y-79666021D01*
X99178715Y-79682795D01*
X99316667Y-79677617D01*
X99454138Y-79653895D01*
X99579926Y-79615033D01*
X99682825Y-79564438D01*
X99751630Y-79505516D01*
X99775137Y-79441672D01*
X99742142Y-79376314D01*
X99734513Y-79369149D01*
X99659263Y-79330465D01*
X99584964Y-79332484D01*
X99538114Y-79375333D01*
X99530249Y-79392102D01*
X99483924Y-79424243D01*
X99422752Y-79397874D01*
X99356162Y-79316067D01*
X99313788Y-79229969D01*
X99291483Y-79091836D01*
X99330802Y-78974093D01*
X99428193Y-78884443D01*
X99580103Y-78830588D01*
X99607386Y-78825181D01*
X99666889Y-78803481D01*
X99691285Y-78758816D01*
X99696687Y-78668831D01*
X99710338Y-78528008D01*
X99765943Y-78347379D01*
X99857007Y-78199437D01*
X99975651Y-78100240D01*
X100016908Y-78089279D01*
X100072291Y-78111960D01*
G37*
X100072291Y-78111960D02*
X100150440Y-78181267D01*
X100186892Y-78221106D01*
X100260783Y-78336452D01*
X100314811Y-78486782D01*
X100355532Y-78688302D01*
X100372458Y-78762526D01*
X100412836Y-78815108D01*
X100496376Y-78847544D01*
X100547911Y-78864281D01*
X100672776Y-78938743D01*
X100737243Y-79041997D01*
X100739493Y-79169340D01*
X100677705Y-79316067D01*
X100660575Y-79343309D01*
X100605512Y-79409956D01*
X100558439Y-79418659D01*
X100506644Y-79373699D01*
X100439282Y-79334375D01*
X100357628Y-79344454D01*
X100291326Y-79402786D01*
X100276632Y-79435671D01*
X100287358Y-79483468D01*
X100347189Y-79545142D01*
X100456484Y-79616904D01*
X100603574Y-79670018D01*
X100761291Y-79693763D01*
X100915016Y-79688773D01*
X101050130Y-79655685D01*
X101152016Y-79595137D01*
X101206055Y-79507763D01*
X101211809Y-79447023D01*
X101181677Y-79374825D01*
X101116081Y-79346438D01*
X101030592Y-79373753D01*
X101004083Y-79389848D01*
X100949438Y-79404160D01*
X100921954Y-79365284D01*
X100914400Y-79266550D01*
X100922198Y-79195630D01*
X100979459Y-79083450D01*
X101086075Y-79011352D01*
X101234594Y-78985867D01*
X101277159Y-78984592D01*
X101357746Y-78971820D01*
X101388534Y-78948762D01*
X101408065Y-78888157D01*
X101471962Y-78799282D01*
X101565450Y-78707615D01*
X101673115Y-78630402D01*
X101718428Y-78606614D01*
X101820566Y-78564384D01*
X101930898Y-78528761D01*
X102031679Y-78504441D01*
X102105162Y-78496122D01*
X102133600Y-78508504D01*
X102121634Y-78538146D01*
X102083289Y-78621252D01*
X102022404Y-78749262D01*
X101942941Y-78913918D01*
X101848864Y-79106962D01*
X101744134Y-79320139D01*
X101649526Y-79513193D01*
X101554010Y-79710840D01*
X101472778Y-79881872D01*
X101409819Y-80017791D01*
X101369119Y-80110097D01*
X101354667Y-80150292D01*
X101355436Y-80154227D01*
X101390041Y-80195737D01*
X101465820Y-80258778D01*
X101568595Y-80331351D01*
X101678570Y-80412335D01*
X101825231Y-80538024D01*
X101977063Y-80682799D01*
X102119225Y-80831730D01*
X102236875Y-80969890D01*
X102315173Y-81082348D01*
X102320311Y-81091567D01*
X102335491Y-81127945D01*
X102316999Y-81122995D01*
X102260737Y-81073911D01*
X102162607Y-80977886D01*
X102005988Y-80832962D01*
X101712654Y-80608817D01*
X101395968Y-80417199D01*
X101072911Y-80267884D01*
X100760466Y-80170649D01*
X100516100Y-80125111D01*
X100061380Y-80090450D01*
X99612916Y-80120614D01*
X99176979Y-80214968D01*
X98759842Y-80372878D01*
X98524165Y-80492932D01*
X98161602Y-80726957D01*
X97851816Y-80997309D01*
X97811908Y-81037676D01*
X97734203Y-81113630D01*
X97695758Y-81144539D01*
X97691499Y-81133660D01*
X97716349Y-81084248D01*
X97720944Y-81076305D01*
X97788556Y-80983115D01*
X97892432Y-80863050D01*
X98019282Y-80729243D01*
X98155812Y-80594828D01*
X98288730Y-80472939D01*
X98404743Y-80376710D01*
X98490560Y-80319274D01*
X98522818Y-80302930D01*
X98582675Y-80270009D01*
X98624717Y-80235836D01*
X98647476Y-80192949D01*
X98649484Y-80133887D01*
X98629274Y-80051189D01*
X98585377Y-79937392D01*
X98516326Y-79785037D01*
X98420653Y-79586660D01*
X98296891Y-79334801D01*
X98194260Y-79125486D01*
X98098859Y-78929475D01*
X98017845Y-78761523D01*
X97955133Y-78629792D01*
X97914636Y-78542443D01*
X97900267Y-78507639D01*
X97907796Y-78502522D01*
X97962307Y-78502305D01*
X98052203Y-78514996D01*
X98137732Y-78534549D01*
X98347527Y-78617828D01*
X98516128Y-78739621D01*
X98632488Y-78892734D01*
X98670626Y-78949443D01*
X98727376Y-78978876D01*
X98824934Y-78985867D01*
X98940311Y-78994921D01*
X99044920Y-79038278D01*
X99102100Y-79123859D01*
X99119467Y-79258721D01*
X99117580Y-79360747D01*
X99106244Y-79412173D01*
X99077125Y-79417250D01*
X99021893Y-79386922D01*
X98977280Y-79366029D01*
X98907317Y-79367313D01*
X98862955Y-79409555D01*
X98849867Y-79476559D01*
X98873728Y-79552134D01*
X98940209Y-79620086D01*
X98946190Y-79623890D01*
X99051488Y-79666021D01*
X99178715Y-79682795D01*
X99316667Y-79677617D01*
X99454138Y-79653895D01*
X99579926Y-79615033D01*
X99682825Y-79564438D01*
X99751630Y-79505516D01*
X99775137Y-79441672D01*
X99742142Y-79376314D01*
X99734513Y-79369149D01*
X99659263Y-79330465D01*
X99584964Y-79332484D01*
X99538114Y-79375333D01*
X99530249Y-79392102D01*
X99483924Y-79424243D01*
X99422752Y-79397874D01*
X99356162Y-79316067D01*
X99313788Y-79229969D01*
X99291483Y-79091836D01*
X99330802Y-78974093D01*
X99428193Y-78884443D01*
X99580103Y-78830588D01*
X99607386Y-78825181D01*
X99666889Y-78803481D01*
X99691285Y-78758816D01*
X99696687Y-78668831D01*
X99710338Y-78528008D01*
X99765943Y-78347379D01*
X99857007Y-78199437D01*
X99975651Y-78100240D01*
X100016908Y-78089279D01*
X100072291Y-78111960D01*
D12*
%TO.C,BT2*%
X70685384Y-127149966D02*
X72005207Y-126387966D01*
X70685384Y-127149966D02*
X70177384Y-126270084D01*
X75084793Y-124609966D02*
X76404616Y-123847966D01*
X76404616Y-123847966D02*
X75896616Y-122968084D01*
X70177384Y-126270084D02*
X63052034Y-125104616D01*
X63052034Y-125104616D02*
X59750034Y-119385384D01*
X62303384Y-112631916D02*
X59750034Y-119385384D01*
X68022616Y-109329916D02*
X67514616Y-108450034D01*
X61795384Y-111752034D02*
X62303384Y-112631916D01*
X63115207Y-110990034D02*
X61795384Y-111752034D01*
X67514616Y-108450034D02*
X66194793Y-109212034D01*
X75896616Y-122968084D02*
G75*
G03*
X74882428Y-117780758I-1396999J2419675D01*
G01*
X74372709Y-117608959D02*
G75*
G03*
X74882428Y-117780757I1546412J3746096D01*
G01*
X72007878Y-112801892D02*
G75*
G03*
X71895590Y-113378248I3911206J-1061108D01*
G01*
X72007878Y-112801892D02*
G75*
G03*
X68022616Y-109329916I-2588262J1052301D01*
G01*
%TD*%
M02*
